<svg width="34" height="34" viewBox="0 0 34 34" fill="none" xmlns="http://www.w3.org/2000/svg">
<rect y="0.345703" width="33.0812" height="33.0812" rx="10" fill="#EBB803"/>
<path d="M17.4167 13.6671H16.1667V18.6671L20.125 21.0421L20.75 20.0171L17.4167 18.0421V13.6671ZM21.4475 8.50879L25.2867 11.713L24.22 12.9921L20.3783 9.78962L21.4475 8.50879ZM12.5525 8.50879L13.6208 9.78879L9.78084 12.9921L8.71417 11.7121L12.5525 8.50879ZM17 10.3338C15.0108 10.3339 13.1031 11.1242 11.6965 12.5309C10.29 13.9376 9.4999 15.8454 9.50001 17.8346C9.50012 19.8239 10.2904 21.7316 11.6971 23.1381C13.1038 24.5446 15.0116 25.3347 17.0008 25.3346C17.9858 25.3346 18.9611 25.1405 19.8711 24.7635C20.7811 24.3865 21.6079 23.834 22.3043 23.1375C23.0008 22.441 23.5532 21.6141 23.9301 20.7041C24.3069 19.7941 24.5009 18.8188 24.5008 17.8338C24.5008 16.8488 24.3067 15.8735 23.9297 14.9635C23.5528 14.0536 23.0002 13.2268 22.3037 12.5303C21.6072 11.8339 20.7803 11.2814 19.8703 10.9046C18.9603 10.5277 17.985 10.3337 17 10.3338ZM17 23.6671C13.7833 23.6671 11.1667 21.0505 11.1667 17.8338C11.1667 14.6171 13.7833 12.0005 17 12.0005C20.2167 12.0005 22.8333 14.6171 22.8333 17.8338C22.8333 21.0505 20.2167 23.6671 17 23.6671Z" fill="white"/>
</svg>
