<svg width="26" height="27" viewBox="0 0 26 27" fill="none" xmlns="http://www.w3.org/2000/svg">
<path d="M12.6866 12.3646L12.7523 12.3669L12.7974 12.3578C12.808 12.3573 12.8242 12.3569 12.8457 12.3569C12.8925 12.3569 12.9505 12.359 13.0061 12.3632L13.0405 12.3659L13.075 12.3643C15.4771 12.254 17.3602 10.2804 17.3724 7.86238H17.3724V7.85954C17.3724 5.37388 15.342 3.34347 12.8564 3.34347C10.3707 3.34347 8.3403 5.37388 8.3403 7.85954C8.3403 10.3056 10.252 12.2789 12.6866 12.3646ZM13.0278 12.847H13.0276H13.0274H13.0272H13.027H13.0269H13.0267H13.0265H13.0263H13.0261H13.0259H13.0257H13.0256H13.0254H13.0252H13.025H13.0248H13.0246H13.0244H13.0243H13.0241H13.0239H13.0237H13.0235H13.0233H13.0232H13.023H13.0228H13.0226H13.0224H13.0223H13.0221H13.0219H13.0217H13.0215H13.0213H13.0212H13.021H13.0208H13.0206H13.0204H13.0203H13.0201H13.0199H13.0197H13.0196H13.0194H13.0192H13.019H13.0188H13.0187H13.0185H13.0183H13.0181H13.018H13.0178H13.0176H13.0174H13.0173H13.0171H13.0169H13.0167H13.0166H13.0164H13.0162H13.016H13.0159H13.0157H13.0155H13.0153H13.0152H13.015H13.0148H13.0146H13.0145H13.0143H13.0141H13.0139H13.0138H13.0136H13.0134H13.0133H13.0131H13.0129H13.0127H13.0126H13.0124H13.0122H13.0121H13.0119H13.0117H13.0116H13.0114H13.0112H13.011H13.0109H13.0107H13.0105H13.0104H13.0102H13.01H13.0099H13.0097H13.0095H13.0094H13.0092H13.009H13.0089H13.0087H13.0085H13.0084H13.0082H13.008H13.0079H13.0077H13.0075H13.0074H13.0072H13.007H13.0069H13.0067H13.0065H13.0064H13.0062H13.006H13.0059H13.0057H13.0055H13.0054H13.0052H13.005H13.0049H13.0047H13.0045H13.0044H13.0042H13.004H13.0039H13.0037H13.0036H13.0034H13.0032H13.0031H13.0029H13.0027H13.0026H13.0024H13.0023H13.0021H13.0019H13.0018H13.0016H13.0014H13.0013H13.0011H13.001H13.0008H13.0006H13.0005H13.0003H13.0001H13H12.9998H12.9997H12.9995H12.9993H12.9992H12.999H12.9989H12.9987H12.9985H12.9984H12.9982H12.9981H12.9979H12.9977H12.9976H12.9974H12.9973H12.9971H12.9969H12.9968H12.9966H12.9965H12.9963H12.9961H12.996H12.9958H12.9957H12.9955H12.9953H12.9952H12.995H12.9949H12.9947H12.9945H12.9944H12.9942H12.9941H12.9939H12.9938H12.9936H12.9934H12.9933H12.9931H12.993H12.9928H12.9926H12.9925H12.9923H12.9922H12.992H12.9919H12.9917H12.9915H12.9914H12.9912H12.9911H12.9909H12.9908H12.9906H12.9904H12.9903H12.9901H12.99H12.9898H12.9897H12.9895H12.9893H12.9892H12.989H12.9889H12.9887H12.9886H12.9884H12.9882H12.9881H12.9879H12.9878H12.9876H12.9875H12.9873H12.9871H12.987H12.9868H12.9867H12.9865H12.9864H12.9862H12.986H12.9859H12.9857H12.9856H12.9854H12.9853H12.9851H12.9849H12.9848H12.9846H12.9845H12.9844C12.8962 12.8361 12.8052 12.8369 12.7224 12.8458C9.93775 12.7371 7.85815 10.5487 7.85815 7.85954C7.85815 5.10592 10.1027 2.86133 12.8564 2.86133C15.6097 2.86133 17.8541 5.10541 17.8546 7.85861C17.8444 10.5666 15.7292 12.756 13.0506 12.847H13.0506H13.0505H13.0505H13.0504H13.0503H13.0503H13.0502H13.0501H13.0501H13.05H13.05H13.0499H13.0498H13.0498H13.0497H13.0496H13.0496H13.0495H13.0495H13.0494H13.0493H13.0493H13.0492H13.0491H13.0491H13.049H13.049H13.0489H13.0488H13.0488H13.0487H13.0486H13.0486H13.0485H13.0485H13.0484H13.0483H13.0483H13.0482H13.0481H13.0481H13.048H13.0479H13.0479H13.0478H13.0478H13.0477H13.0476H13.0476H13.0475H13.0474H13.0474H13.0473H13.0473H13.0472H13.0471H13.0471H13.047H13.0469H13.0469H13.0468H13.0468H13.0467H13.0466H13.0466H13.0465H13.0464H13.0464H13.0463H13.0463H13.0462H13.0461H13.0461H13.046H13.0459H13.0459H13.0458H13.0458H13.0457H13.0456H13.0456H13.0455H13.0454H13.0454H13.0453H13.0452H13.0452H13.0451H13.0451H13.045H13.0449H13.0449H13.0448H13.0447H13.0447H13.0446H13.0446H13.0445H13.0444H13.0444H13.0443H13.0442H13.0442H13.0441H13.0441H13.044H13.0439H13.0439H13.0438H13.0437H13.0437H13.0436H13.0436H13.0435H13.0434H13.0434H13.0433H13.0432H13.0432H13.0431H13.0431H13.043H13.0429H13.0429H13.0428H13.0427H13.0427H13.0426H13.0426H13.0425H13.0424H13.0424H13.0423H13.0422H13.0422H13.0421H13.042H13.042H13.0419H13.0419H13.0418H13.0417H13.0417H13.0416H13.0415H13.0415H13.0414H13.0414H13.0413H13.0412H13.0412H13.0411H13.041H13.041H13.0409H13.0409H13.0408H13.0407H13.0407H13.0406H13.0405H13.0405H13.0404H13.0404H13.0403H13.0402H13.0402H13.0401H13.04H13.04H13.0399H13.0399H13.0398H13.0397H13.0397H13.0396H13.0395H13.0395H13.0394H13.0393H13.0393H13.0392H13.0392H13.0391H13.039H13.039H13.0389H13.0388H13.0388H13.0387H13.0387H13.0386H13.0385H13.0385H13.0384H13.0383H13.0383H13.0382H13.0382H13.0381H13.038H13.038H13.0379H13.0378H13.0378H13.0377H13.0377H13.0376H13.0375H13.0375H13.0374H13.0373H13.0373H13.0372H13.0372H13.0371H13.037H13.037H13.0369H13.0368H13.0368H13.0367H13.0366H13.0366H13.0365H13.0365H13.0364H13.0363H13.0363H13.0362H13.0361H13.0361H13.036H13.036H13.0359H13.0358H13.0358H13.0357H13.0356H13.0356H13.0355H13.0355H13.0354H13.0353H13.0353H13.0352H13.0351H13.0351H13.035H13.035H13.0349H13.0348H13.0348H13.0347H13.0346H13.0346H13.0345H13.0345H13.0344H13.0343H13.0343H13.0342H13.0341H13.0341H13.034H13.0339H13.0339H13.0338H13.0338H13.0337H13.0336H13.0336H13.0335H13.0334H13.0334H13.0333H13.0333H13.0332H13.0331H13.0331H13.033H13.0329H13.0329H13.0328H13.0328H13.0327H13.0326H13.0326H13.0325H13.0324H13.0324H13.0323H13.0323H13.0322H13.0321H13.0321H13.032H13.0319H13.0319H13.0318H13.0318H13.0317H13.0316H13.0316H13.0315H13.0314H13.0314H13.0313H13.0312H13.0312H13.0311H13.0311H13.031H13.0309H13.0309H13.0308H13.0307H13.0307H13.0306H13.0306H13.0305H13.0304H13.0304H13.0303H13.0302H13.0302H13.0301H13.0301H13.03H13.0299H13.0299H13.0298H13.0297H13.0297H13.0296H13.0296H13.0295H13.0294H13.0294H13.0293H13.0292H13.0292H13.0291H13.0291H13.029H13.0289H13.0289H13.0288H13.0287H13.0287H13.0286H13.0286H13.0285H13.0284H13.0284H13.0283H13.0282H13.0282H13.0281H13.028H13.028H13.0279H13.0279H13.0278Z" fill="#202020" stroke="#202020" stroke-width="1.125"/>
<path d="M7.54501 23.0458L7.54201 23.0438C6.17218 22.1371 5.49048 20.947 5.49048 19.7093C5.49048 18.4705 6.17323 17.2695 7.54342 16.3524C9.03974 15.3602 11.0305 14.8477 13.0467 14.8477C15.0635 14.8477 17.0485 15.3604 18.5335 16.3521L18.5338 16.3523C19.8962 17.2605 20.5869 18.4518 20.5869 19.6878C20.5869 20.9268 19.9039 22.1281 18.5332 23.0452C17.0367 24.0426 15.0515 24.5575 13.0387 24.5575C11.0246 24.5575 9.02945 24.042 7.54501 23.0458ZM7.80882 16.7662C6.68111 17.518 5.97262 18.5507 5.97262 19.72C5.97262 20.8816 6.69513 21.9134 7.8088 22.6523C9.2566 23.6228 11.1645 24.0887 13.0387 24.0887C14.9131 24.0887 16.8212 23.6227 18.2691 22.652C19.3965 21.9002 20.1048 20.8677 20.1048 19.6985C20.1048 18.5367 19.3819 17.5047 18.2678 16.7657C16.8202 15.8009 14.9125 15.3378 13.0387 15.3378C11.1646 15.3378 9.25658 15.8011 7.80882 16.7662Z" fill="#202020" stroke="#202020" stroke-width="1.125"/>
</svg>
