<svg width="34" height="34" viewBox="0 0 34 34" fill="none" xmlns="http://www.w3.org/2000/svg">
<rect y="0.345703" width="33.0812" height="33.0812" rx="10" fill="white"/>
<path d="M20.2425 9.53961C20.8017 8.98034 21.5601 8.66609 22.351 8.66602C23.1418 8.66594 23.9003 8.98003 24.4596 9.53919C25.0189 10.0984 25.3331 10.8568 25.3332 11.6476C25.3333 12.4385 25.0192 13.197 24.46 13.7563L23.7167 14.5004L19.5 10.2829L20.2425 9.53961ZM18.6167 11.1671L10.2833 19.4996C9.94463 19.838 9.7066 20.2638 9.59584 20.7296L8.68334 24.5646C8.65864 24.6685 8.66095 24.777 8.69007 24.8797C8.71919 24.9824 8.77414 25.076 8.84968 25.1514C8.92523 25.2269 9.01884 25.2817 9.1216 25.3107C9.22436 25.3397 9.33283 25.3419 9.43668 25.3171L13.2708 24.4038C13.7369 24.2932 14.1631 24.0551 14.5017 23.7163L22.8333 15.3838L18.6167 11.1671Z" fill="#179ED5"/>
</svg>
