<svg width="121" height="116" viewBox="0 0 121 116" fill="none" xmlns="http://www.w3.org/2000/svg">
<g filter="url(#filter0_d_265_197)">
<rect x="35.0756" y="31.4246" width="59.6823" height="58.609" rx="20.7178" fill="#179ED5" stroke="#ABABAB" stroke-width="1.49769"/>
<rect x="30.8654" y="26.8654" width="68.9682" height="67.7279" rx="23.9413" fill="#179ED5" stroke="#C9EDFE" stroke-width="1.73072"/>
<path d="M69.8638 49.8099C70.7025 48.971 71.8402 48.4996 73.0264 48.4995C74.2127 48.4994 75.3505 48.9705 76.1894 49.8093C77.0283 50.648 77.4997 51.7857 77.4998 52.972C77.4999 54.1582 77.0288 55.296 76.19 56.1349L75.075 57.2512L68.75 50.9249L69.8638 49.8099ZM67.425 52.2512L54.925 64.7499C54.4169 65.2575 54.0599 65.8962 53.8938 66.5949L52.525 72.3474C52.488 72.5032 52.4914 72.6659 52.5351 72.82C52.5788 72.9741 52.6612 73.1144 52.7745 73.2276C52.8878 73.3408 53.0283 73.4231 53.1824 73.4666C53.3365 73.5101 53.4992 73.5134 53.655 73.4762L59.4063 72.1062C60.1054 71.9402 60.7446 71.5832 61.2525 71.0749L73.75 58.5762L67.425 52.2512Z" fill="white"/>
</g>
<defs>
<filter id="filter0_d_265_197" x="0" y="0" width="130.699" height="129.458" filterUnits="userSpaceOnUse" color-interpolation-filters="sRGB">
<feFlood flood-opacity="0" result="BackgroundImageFix"/>
<feColorMatrix in="SourceAlpha" type="matrix" values="0 0 0 0 0 0 0 0 0 0 0 0 0 0 0 0 0 0 127 0" result="hardAlpha"/>
<feOffset dy="4"/>
<feGaussianBlur stdDeviation="15"/>
<feComposite in2="hardAlpha" operator="out"/>
<feColorMatrix type="matrix" values="0 0 0 0 0 0 0 0 0 0 0 0 0 0 0 0 0 0 0.3 0"/>
<feBlend mode="normal" in2="BackgroundImageFix" result="effect1_dropShadow_265_197"/>
<feBlend mode="normal" in="SourceGraphic" in2="effect1_dropShadow_265_197" result="shape"/>
</filter>
</defs>
</svg>
