<svg width="305" height="305" viewBox="0 0 305 305" fill="none" xmlns="http://www.w3.org/2000/svg">
<path d="M152.5 291.537C231.869 291.537 296.21 254.389 296.21 208.566C296.21 162.742 231.869 125.595 152.5 125.595C73.1312 125.595 8.7901 162.742 8.7901 208.566C8.7901 254.389 73.1312 291.537 152.5 291.537Z" fill="#F1F9FF"/>
<path d="M122.761 271.443C150.13 271.443 172.318 258.633 172.318 242.831C172.318 227.03 150.13 214.22 122.761 214.22C95.3911 214.22 73.2037 227.03 73.2037 242.831C73.2037 258.633 95.3911 271.443 122.761 271.443Z" fill="#D8EEFF"/>
<path d="M263.688 207.036L257.877 203.681C257.877 203.681 256.454 191.236 257.401 181.598C258.731 168.054 267.478 151.758 277.913 155.585C288.347 159.413 273.129 173.205 269.741 184.693C266.353 196.18 263.688 207.036 263.688 207.036Z" fill="#179ED5"/>
<path opacity="0.15" d="M263.688 207.036L257.877 203.681C257.877 203.681 256.454 191.236 257.401 181.598C258.731 168.054 267.478 151.758 277.913 155.585C288.347 159.413 273.129 173.205 269.741 184.693C266.353 196.18 263.688 207.036 263.688 207.036Z" fill="black"/>
<path d="M260.632 205.624C260.636 205.624 260.64 205.624 260.644 205.624C260.838 205.617 260.991 205.455 260.984 205.26C259.964 175.167 274.944 160.029 275.095 159.88C275.234 159.744 275.236 159.521 275.099 159.383C274.961 159.245 274.738 159.243 274.601 159.38C274.448 159.531 259.25 174.886 260.28 205.285C260.287 205.474 260.443 205.624 260.632 205.624Z" fill="white"/>
<path d="M267.342 209.128L263.206 206.741C263.206 206.741 262.503 198.201 266.69 187.826C270.335 178.795 279.379 171.302 283.928 172.876C288.477 174.451 288.364 177.677 286.146 181.06C283.929 184.444 270.436 192.509 267.342 209.128Z" fill="#179ED5"/>
<path d="M265.161 208.22H265.163C265.357 208.219 265.514 208.062 265.513 207.867C265.431 188.84 283.297 175.98 283.477 175.853C283.636 175.74 283.674 175.521 283.561 175.362C283.45 175.204 283.231 175.165 283.071 175.279C282.888 175.408 264.725 188.481 264.809 207.871C264.81 208.064 264.967 208.22 265.161 208.22Z" fill="white"/>
<path d="M48.5926 199.559L53.9582 195.938C53.9582 195.938 56.3201 181.88 54.1259 169.532C51.0405 152.171 39.0675 146.393 34.795 148.207C30.5226 150.022 29.6094 155.2 37.5809 165.112C42.284 170.959 48.4279 183.395 48.5926 199.559Z" fill="#179ED5"/>
<g opacity="0.15">
<path d="M48.5926 199.559L53.9582 195.938C53.9582 195.938 56.3201 181.88 54.1259 169.532C51.0405 152.171 39.0675 146.393 34.795 148.207C30.5226 150.022 29.6094 155.2 37.5809 165.112C42.284 170.959 48.4279 183.395 48.5926 199.559Z" fill="black"/>
</g>
<path d="M50.4354 192.605C50.4171 192.605 50.3994 192.604 50.3817 192.602C50.1688 192.576 50.0157 192.384 50.0414 192.17C51.9793 175.823 45.0784 158.088 37.573 151.032C37.4168 150.885 37.4089 150.638 37.5565 150.482C37.7041 150.327 37.9499 150.318 38.1061 150.466C45.7482 157.651 52.7809 175.674 50.8136 192.262C50.7898 192.457 50.6257 192.601 50.4354 192.605Z" fill="white"/>
<path d="M34.5382 209.04C33.6867 209.551 31.1972 207.704 30.5086 207.261C29.3294 206.503 28.365 205.414 27.7141 204.176C26.9571 202.733 26.743 201.177 26.9401 199.562C27.0425 198.725 27.2603 197.906 27.4775 197.091C27.691 196.291 27.9045 195.49 28.118 194.689C28.3284 193.899 28.5413 193.083 28.4217 192.274C28.1814 190.645 26.7095 189.529 25.3724 188.567C23.8937 187.504 22.3486 186.093 22.3187 184.127C22.2955 182.61 23.0544 181.185 23.9712 179.977C24.8886 178.768 25.9836 177.695 26.8089 176.421C27.403 175.504 27.8599 174.433 27.7392 173.347C27.6641 172.672 27.3719 172.041 27.037 171.451C26.3179 170.184 25.3797 169.029 24.874 167.663C24.3683 166.297 24.4037 164.585 25.4584 163.58C26.324 162.755 27.6312 162.617 28.825 162.673C29.9297 162.725 31.0173 163.202 31.9927 163.72C35.1476 165.395 37.0008 169.057 40.3387 170.329C41.6264 170.82 43.0282 170.906 44.3665 171.232C45.7049 171.558 47.0762 172.212 47.7167 173.432C48.9794 175.837 46.7809 178.874 47.6855 181.435C48.4859 183.702 50.7197 184.532 52.0043 186.564C52.5662 187.453 52.7119 188.49 52.6442 189.54C52.5296 191.316 52.2953 192.622 51.4828 194.611C50.8112 196.254 48.8165 199.411 48.8165 199.411C48.8165 199.411 34.6681 208.961 34.5382 209.04Z" fill="#179ED5"/>
<path d="M42.7842 203.982C42.7787 203.982 42.7738 203.982 42.7738 203.982C42.5536 203.977 42.384 203.799 42.3883 203.584C42.7324 188.141 35.133 171.245 29.7497 166.398C29.5905 166.255 29.5771 166.009 29.7211 165.849C29.865 165.69 30.1102 165.678 30.2701 165.821C35.7613 170.765 43.5144 187.941 43.1661 203.602C43.1606 203.811 42.9916 203.977 42.7842 203.982Z" fill="white"/>
<path d="M39.9391 185.168C39.9013 185.169 39.8623 185.164 39.8245 185.153C34.8371 183.716 28.6529 183.565 28.5913 183.564C28.3766 183.559 28.2064 183.381 28.2107 183.166C28.2156 182.952 28.3748 182.779 28.6084 182.785C28.6712 182.787 34.9536 182.94 40.0398 184.405C40.246 184.465 40.3655 184.68 40.3058 184.886C40.2563 185.054 40.1051 185.165 39.9391 185.168Z" fill="white"/>
<path d="M183.707 188.944L181.393 187.607C180.664 187.185 180.073 186.161 180.073 185.319L180.072 89.2332C180.072 88.3908 180.663 87.3666 181.393 86.9457L245.653 49.8455C246.383 49.4246 247.565 49.4246 248.294 49.8455L250.609 51.1814C251.339 51.6023 251.93 52.6265 251.93 53.4689V149.554C251.93 150.396 251.339 151.42 250.609 151.841L186.348 188.944C185.619 189.366 184.436 189.365 183.707 188.944Z" fill="#455A64"/>
<path d="M251.919 53.2542C251.828 52.571 251.272 52.3209 250.608 52.7052L186.35 89.8115C185.984 90.025 185.661 90.3788 185.417 90.7936L180.458 87.9327C180.695 87.5179 181.025 87.158 181.391 86.9445L245.654 49.8443C246.38 49.4234 247.564 49.4234 248.296 49.8443L250.608 51.1802C251.279 51.5645 251.834 52.4612 251.919 53.2542Z" fill="#455A64"/>
<path d="M186.124 189.051C185.392 189.362 184.368 189.325 183.709 188.947L181.391 187.605C180.665 187.184 180.073 186.159 180.073 185.317V89.232C180.073 88.8111 180.22 88.3475 180.457 87.9327L185.417 90.7936C185.173 91.2084 185.026 91.6781 185.026 92.099V188.184C185.026 188.941 185.502 189.288 186.124 189.051Z" fill="#263238"/>
<path d="M185.027 92.0978V188.183C185.027 189.025 185.618 189.366 186.348 188.945L250.609 151.842C251.339 151.421 251.93 150.397 251.93 149.554V53.4683C251.93 52.6259 251.339 52.2849 250.609 52.7058L186.348 89.8103C185.619 90.2312 185.027 91.2554 185.027 92.0978Z" fill="#37474F"/>
<path d="M170.02 128.723C169.191 128.229 165.342 126.039 165.14 125.924C164.53 125.551 164.311 124.649 164.878 124.039L180.073 107.739L185.026 110.582L169.837 126.887C169.288 127.473 169.465 128.321 170.02 128.723Z" fill="#455A64"/>
<path d="M185.028 110.584L169.836 126.885C169.074 127.702 169.717 129.028 170.83 128.936L185.028 127.767V110.584Z" fill="#37474F"/>
<path d="M218.478 81.2532C225.968 76.9289 232.039 80.4346 232.039 89.0825C232.039 97.7305 225.968 108.246 218.478 112.571C210.989 116.895 204.917 113.389 204.917 104.741C204.918 96.0927 210.989 85.5769 218.478 81.2532Z" fill="#179ED5"/>
<path d="M218.383 88.059C220.813 86.656 222.783 87.793 222.783 90.5984C222.783 93.4044 220.813 96.8161 218.383 98.2185C215.953 99.6209 213.984 98.4845 213.984 95.6785C213.984 92.8731 215.953 89.4614 218.383 88.059Z" fill="white"/>
<path d="M227.054 103.019C227.054 98.4095 223.817 96.541 219.826 98.8462L217.33 100.287C213.339 102.592 210.102 108.197 210.102 112.806V114.063C210.823 114.302 211.605 114.421 212.432 114.423C214.253 114.426 216.303 113.827 218.479 112.571C221.733 110.692 224.717 107.643 227.054 104.089V103.019Z" fill="white"/>
<path d="M209.888 155.385L227.069 145.465C227.799 145.045 228.39 145.386 228.39 146.228V151.761C228.39 152.604 227.799 153.628 227.069 154.049L209.888 163.969C209.159 164.389 208.568 164.049 208.568 163.206V157.673C208.568 156.83 209.159 155.806 209.888 155.385Z" fill="#179ED5"/>
<path d="M201.479 143.024L235.478 123.396C236.353 122.891 237.062 123.3 237.062 124.311V126.37C237.062 127.381 236.353 128.61 235.478 129.115L201.48 148.744C200.605 149.249 199.895 148.839 199.895 147.829V145.769C199.895 144.758 200.605 143.529 201.479 143.024Z" fill="#FAFAFA"/>
<path d="M205.455 128.819C205.918 128.551 206.278 128.511 206.534 128.7C206.79 128.887 206.918 129.305 206.918 129.953C206.918 130.601 206.79 131.169 206.534 131.658C206.278 132.148 205.918 132.526 205.455 132.793L204.537 133.323V135.292C204.537 135.358 204.522 135.422 204.492 135.486C204.46 135.552 204.424 135.596 204.382 135.62L203.917 135.888C203.875 135.913 203.839 135.911 203.808 135.881C203.777 135.851 203.762 135.805 203.762 135.74V130.034C203.762 129.969 203.777 129.904 203.808 129.839C203.839 129.775 203.875 129.729 203.917 129.706L205.455 128.819ZM204.537 132.219L205.426 131.705C205.644 131.579 205.818 131.413 205.948 131.205C206.078 130.997 206.143 130.73 206.143 130.4C206.143 130.07 206.078 129.879 205.948 129.827C205.818 129.776 205.644 129.813 205.426 129.94L204.537 130.453V132.219Z" fill="#FAFAFA"/>
<path d="M209.476 126.496C209.537 126.461 209.584 126.459 209.614 126.491C209.645 126.524 209.672 126.584 209.695 126.671L211.101 131.442C211.104 131.457 211.106 131.476 211.106 131.5C211.106 131.565 211.091 131.629 211.061 131.694C211.03 131.759 210.994 131.804 210.951 131.828L210.538 132.066C210.462 132.11 210.408 132.116 210.377 132.084C210.346 132.052 210.326 132.016 210.314 131.974L210.067 131.137L208.255 132.184L208.008 133.306C207.997 133.36 207.975 133.421 207.945 133.489C207.914 133.556 207.861 133.612 207.784 133.656L207.371 133.895C207.329 133.919 207.293 133.916 207.262 133.886C207.231 133.857 207.216 133.81 207.216 133.746C207.216 133.722 207.218 133.701 207.222 133.681L208.628 127.287C208.651 127.173 208.677 127.084 208.708 127.016C208.739 126.949 208.785 126.897 208.846 126.862L209.476 126.496ZM209.792 130.192L209.161 128.04L208.53 130.921L209.792 130.192Z" fill="#FAFAFA"/>
<path d="M213.24 124.235C213.496 124.087 213.722 124.01 213.917 124.004C214.112 123.997 214.274 124.036 214.405 124.119C214.535 124.203 214.633 124.322 214.7 124.474C214.766 124.627 214.804 124.786 214.812 124.952C214.816 125.021 214.801 125.087 214.769 125.149C214.736 125.212 214.699 125.256 214.657 125.28L214.255 125.512C214.191 125.55 214.142 125.558 214.109 125.539C214.077 125.52 214.047 125.486 214.02 125.437C213.963 125.322 213.877 125.245 213.76 125.202C213.643 125.162 213.469 125.206 213.24 125.339C213.141 125.396 213.046 125.468 212.956 125.551C212.866 125.636 212.787 125.728 212.721 125.829C212.654 125.929 212.601 126.035 212.563 126.145C212.525 126.256 212.506 126.367 212.506 126.479C212.506 126.615 212.523 126.715 212.56 126.779C212.596 126.843 212.657 126.881 212.744 126.893C212.83 126.906 212.944 126.897 213.085 126.868C213.227 126.84 213.403 126.801 213.613 126.749C213.842 126.693 214.04 126.67 214.207 126.677C214.373 126.684 214.508 126.729 214.614 126.812C214.719 126.896 214.797 127.017 214.849 127.176C214.901 127.335 214.927 127.535 214.927 127.775C214.927 128.041 214.888 128.309 214.812 128.579C214.736 128.85 214.626 129.107 214.485 129.351C214.343 129.594 214.17 129.823 213.962 130.037C213.756 130.25 213.524 130.431 213.268 130.579C213.053 130.703 212.849 130.782 212.655 130.814C212.459 130.847 212.286 130.833 212.135 130.77C211.984 130.707 211.863 130.596 211.77 130.437C211.679 130.278 211.627 130.072 211.616 129.82C211.611 129.751 211.627 129.685 211.658 129.623C211.691 129.56 211.728 129.516 211.77 129.492L212.172 129.26C212.237 129.222 212.287 129.211 212.321 129.227C212.356 129.242 212.384 129.278 212.407 129.335C212.434 129.397 212.467 129.455 212.505 129.509C212.543 129.563 212.594 129.601 212.659 129.623C212.724 129.644 212.806 129.645 212.903 129.628C213.001 129.61 213.122 129.559 213.268 129.474C213.382 129.409 213.493 129.332 213.601 129.243C213.707 129.155 213.801 129.056 213.882 128.948C213.962 128.84 214.026 128.726 214.076 128.606C214.126 128.485 214.151 128.358 214.151 128.222C214.151 128.093 214.124 128.003 214.071 127.951C214.017 127.899 213.936 127.876 213.827 127.88C213.718 127.884 213.584 127.906 213.423 127.946C213.262 127.985 213.077 128.025 212.866 128.063C212.675 128.103 212.508 128.116 212.364 128.102C212.221 128.088 212.102 128.037 212.009 127.949C211.915 127.862 211.845 127.736 211.799 127.571C211.754 127.406 211.731 127.192 211.731 126.926C211.731 126.661 211.769 126.394 211.846 126.127C211.922 125.859 212.027 125.606 212.162 125.371C212.295 125.134 212.454 124.917 212.64 124.719C212.826 124.52 213.027 124.359 213.24 124.235Z" fill="#FAFAFA"/>
<path d="M217.244 121.924C217.501 121.776 217.726 121.699 217.921 121.692C218.116 121.685 218.279 121.724 218.409 121.807C218.539 121.891 218.637 122.01 218.704 122.162C218.771 122.315 218.808 122.475 218.816 122.64C218.82 122.709 218.806 122.775 218.773 122.838C218.74 122.9 218.703 122.944 218.661 122.968L218.259 123.2C218.194 123.238 218.146 123.247 218.113 123.228C218.081 123.208 218.051 123.174 218.025 123.125C217.967 123.011 217.881 122.933 217.764 122.891C217.647 122.85 217.474 122.894 217.244 123.027C217.145 123.085 217.051 123.156 216.961 123.24C216.87 123.325 216.792 123.416 216.725 123.517C216.658 123.618 216.606 123.723 216.567 123.834C216.529 123.944 216.51 124.055 216.51 124.167C216.51 124.303 216.527 124.403 216.564 124.467C216.601 124.532 216.661 124.57 216.748 124.582C216.834 124.594 216.948 124.586 217.089 124.557C217.231 124.528 217.407 124.489 217.617 124.438C217.847 124.382 218.044 124.358 218.211 124.365C218.377 124.372 218.513 124.417 218.618 124.5C218.723 124.585 218.802 124.705 218.853 124.864C218.905 125.024 218.931 125.223 218.931 125.464C218.931 125.729 218.892 125.997 218.816 126.268C218.74 126.538 218.63 126.796 218.489 127.039C218.348 127.283 218.174 127.511 217.967 127.725C217.761 127.939 217.529 128.119 217.273 128.267C217.058 128.391 216.854 128.47 216.659 128.503C216.465 128.536 216.291 128.521 216.14 128.458C215.989 128.395 215.867 128.285 215.775 128.125C215.684 127.966 215.632 127.76 215.62 127.508C215.617 127.439 215.631 127.373 215.664 127.311C215.695 127.248 215.733 127.205 215.775 127.18L216.177 126.948C216.241 126.91 216.291 126.899 216.326 126.915C216.361 126.931 216.389 126.967 216.412 127.024C216.439 127.086 216.472 127.143 216.51 127.198C216.548 127.251 216.599 127.289 216.665 127.311C216.729 127.333 216.811 127.334 216.908 127.317C217.006 127.298 217.126 127.248 217.273 127.164C217.388 127.098 217.498 127.021 217.605 126.931C217.712 126.844 217.806 126.745 217.887 126.637C217.966 126.529 218.032 126.416 218.082 126.295C218.131 126.175 218.156 126.048 218.156 125.912C218.156 125.783 218.129 125.692 218.076 125.64C218.022 125.589 217.94 125.565 217.832 125.57C217.723 125.574 217.588 125.595 217.427 125.635C217.267 125.675 217.081 125.714 216.871 125.753C216.68 125.792 216.512 125.806 216.369 125.792C216.226 125.777 216.107 125.726 216.014 125.639C215.92 125.552 215.85 125.426 215.804 125.26C215.758 125.096 215.736 124.881 215.736 124.616C215.736 124.351 215.774 124.084 215.85 123.817C215.927 123.549 216.032 123.296 216.166 123.06C216.3 122.823 216.459 122.607 216.645 122.409C216.831 122.209 217.03 122.048 217.244 121.924Z" fill="#FAFAFA"/>
<path d="M221.69 122.687L221.197 125.612C221.178 125.711 221.154 125.798 221.125 125.87C221.096 125.942 221.054 125.995 220.996 126.028L220.531 126.297C220.474 126.33 220.428 126.329 220.396 126.29C220.363 126.253 220.342 126.194 220.331 126.113L219.596 120.964C219.592 120.936 219.59 120.914 219.59 120.896C219.59 120.832 219.606 120.767 219.636 120.702C219.667 120.637 219.703 120.592 219.745 120.568L220.169 120.323C220.208 120.302 220.244 120.298 220.279 120.313C220.313 120.329 220.336 120.377 220.347 120.459L220.829 123.926L221.254 121.322C221.262 121.277 221.279 121.212 221.309 121.131C221.337 121.05 221.386 120.99 221.454 120.95L221.925 120.678C221.994 120.638 222.042 120.643 222.071 120.691C222.1 120.739 222.118 120.781 222.125 120.818L222.55 122.931L223.032 118.909C223.043 118.813 223.067 118.739 223.101 118.683C223.135 118.628 223.172 118.589 223.21 118.568L223.634 118.322C223.676 118.299 223.713 118.301 223.743 118.331C223.774 118.36 223.789 118.407 223.789 118.472C223.789 118.489 223.787 118.514 223.783 118.545L223.049 124.542C223.037 124.638 223.015 124.722 222.984 124.797C222.951 124.871 222.906 124.926 222.848 124.959L222.383 125.227C222.325 125.26 222.283 125.257 222.254 125.218C222.225 125.178 222.202 125.12 222.182 125.043L221.69 122.687Z" fill="#FAFAFA"/>
<path d="M224.547 120.101C224.559 119.765 224.6 119.43 224.67 119.098C224.741 118.765 224.845 118.452 224.983 118.158C225.121 117.864 225.293 117.593 225.499 117.348C225.707 117.101 225.951 116.897 226.234 116.733C226.513 116.572 226.756 116.494 226.962 116.498C227.169 116.503 227.341 116.574 227.479 116.712C227.617 116.851 227.721 117.044 227.794 117.29C227.867 117.537 227.909 117.824 227.921 118.153C227.925 118.263 227.928 118.385 227.93 118.519C227.931 118.653 227.933 118.792 227.933 118.937C227.933 119.081 227.931 119.221 227.93 119.357C227.928 119.495 227.925 119.62 227.921 119.733C227.909 120.071 227.868 120.404 227.798 120.737C227.727 121.069 227.623 121.383 227.485 121.677C227.347 121.971 227.174 122.24 226.966 122.484C226.757 122.728 226.513 122.931 226.234 123.092C225.951 123.255 225.707 123.335 225.499 123.331C225.293 123.326 225.121 123.257 224.983 123.121C224.845 122.986 224.741 122.793 224.67 122.542C224.6 122.292 224.559 122.004 224.547 121.682C224.543 121.572 224.54 121.45 224.539 121.315C224.536 121.181 224.536 121.042 224.536 120.898C224.536 120.754 224.536 120.613 224.539 120.476C224.54 120.34 224.543 120.215 224.547 120.101ZM227.146 118.644C227.131 118.229 227.042 117.953 226.879 117.814C226.716 117.675 226.502 117.682 226.234 117.837C225.966 117.992 225.751 118.233 225.588 118.56C225.425 118.886 225.336 119.265 225.321 119.698C225.313 119.926 225.308 120.177 225.308 120.451C225.308 120.725 225.313 120.971 225.321 121.191C225.335 121.606 225.425 121.881 225.588 122.016C225.751 122.152 225.965 122.143 226.234 121.988C226.502 121.834 226.716 121.595 226.879 121.272C227.042 120.948 227.13 120.57 227.146 120.137C227.154 119.909 227.158 119.658 227.158 119.384C227.158 119.11 227.154 118.865 227.146 118.644Z" fill="#FAFAFA"/>
<path d="M230.6 114.301C231.077 114.025 231.44 113.986 231.689 114.185C231.937 114.383 232.062 114.785 232.062 115.392C232.062 115.822 231.998 116.225 231.87 116.602C231.741 116.979 231.553 117.313 231.305 117.604L232.096 119.329C232.108 119.357 232.114 119.387 232.114 119.417C232.114 119.469 232.101 119.522 232.076 119.575C232.051 119.628 232.021 119.664 231.987 119.684L231.499 119.965C231.422 120.009 231.366 120.014 231.33 119.979C231.293 119.943 231.267 119.908 231.252 119.869L230.501 118.244L229.738 118.685V120.743C229.738 120.808 229.723 120.873 229.692 120.937C229.661 121.002 229.626 121.047 229.583 121.072L229.118 121.339C229.076 121.363 229.04 121.361 229.009 121.331C228.978 121.302 228.964 121.255 228.964 121.191V115.485C228.964 115.419 228.978 115.355 229.009 115.291C229.04 115.225 229.076 115.181 229.118 115.156L230.6 114.301ZM229.739 117.581L230.57 117.1C230.789 116.975 230.962 116.815 231.092 116.622C231.222 116.43 231.287 116.168 231.287 115.838C231.287 115.509 231.222 115.325 231.092 115.289C230.962 115.252 230.789 115.297 230.57 115.423L229.739 115.903V117.581Z" fill="#FAFAFA"/>
<path d="M234.667 111.953C234.95 111.789 235.195 111.705 235.404 111.699C235.612 111.694 235.786 111.757 235.927 111.889C236.066 112.02 236.172 112.214 236.247 112.471C236.322 112.729 236.366 113.038 236.382 113.4C236.398 113.827 236.398 114.263 236.382 114.707C236.367 115.087 236.322 115.449 236.247 115.792C236.172 116.136 236.067 116.453 235.929 116.745C235.791 117.036 235.62 117.298 235.415 117.531C235.211 117.765 234.971 117.96 234.695 118.119L233.249 118.954C233.207 118.978 233.171 118.976 233.14 118.946C233.11 118.916 233.094 118.87 233.094 118.805V113.099C233.094 113.035 233.11 112.969 233.14 112.905C233.171 112.84 233.207 112.795 233.249 112.771L234.667 111.953ZM235.608 113.847C235.6 113.664 235.576 113.502 235.536 113.364C235.496 113.225 235.437 113.118 235.358 113.043C235.279 112.967 235.181 112.931 235.063 112.931C234.945 112.932 234.802 112.979 234.639 113.074L233.87 113.518V117.493L234.668 117.033C234.824 116.942 234.96 116.83 235.075 116.695C235.19 116.562 235.285 116.414 235.362 116.251C235.438 116.089 235.497 115.915 235.537 115.727C235.577 115.538 235.601 115.348 235.608 115.156C235.622 114.71 235.622 114.275 235.608 113.847Z" fill="#FAFAFA"/>
<path d="M150.9 23.4209C151.966 23.657 152.971 24.0346 153.915 24.5525C154.858 25.071 155.658 25.706 156.313 26.4575C156.967 27.2084 157.439 28.0624 157.726 29.0189C158.014 29.9742 158.035 31.0087 157.789 32.1195C157.588 33.0266 157.271 33.7842 156.84 34.39C156.408 34.9963 155.912 35.5172 155.352 35.9516C154.792 36.3865 154.201 36.7677 153.582 37.0941C152.962 37.421 152.375 37.7315 151.824 38.0243C151.27 38.3184 150.769 38.6429 150.324 38.9955C149.876 39.3486 149.564 39.7677 149.385 40.2514C149.284 40.4912 149.135 40.6833 148.936 40.8291C148.737 40.9761 148.513 41.0207 148.264 40.9664L145.678 40.3936C145.428 40.3387 145.227 40.1996 145.075 39.9745C144.923 39.7506 144.885 39.517 144.963 39.2724C145.204 38.3977 145.562 37.662 146.04 37.066C146.517 36.4701 147.047 35.957 147.63 35.5264C148.213 35.0963 148.819 34.7255 149.447 34.4125C150.075 34.099 150.66 33.7946 151.202 33.4981C151.743 33.2023 152.205 32.8875 152.587 32.5563C152.97 32.2251 153.214 31.8206 153.32 31.3442C153.511 30.4829 153.305 29.6936 152.702 28.9768C152.099 28.2607 151.196 27.7696 149.995 27.5031C148.067 27.0761 146.436 27.7263 145.102 29.4532C144.934 29.6777 144.773 29.8381 144.621 29.9351C144.468 30.0327 144.244 30.0486 143.949 29.9827L141.194 29.3727C140.99 29.3276 140.828 29.2202 140.712 29.0518C140.595 28.8835 140.561 28.6852 140.611 28.4583C140.809 27.6696 141.233 26.9132 141.881 26.1879C142.529 25.4632 143.319 24.8532 144.249 24.3567C145.18 23.8614 146.221 23.5143 147.371 23.3172C148.522 23.1208 149.698 23.1544 150.9 23.4209ZM147.982 43.0459C148.231 43.1008 148.427 43.2392 148.567 43.4613C148.709 43.6827 148.752 43.9182 148.697 44.1676L148.034 47.1609C147.978 47.411 147.84 47.6062 147.618 47.7471C147.397 47.8893 147.162 47.932 146.912 47.8764L143.987 47.2286C143.737 47.1725 143.542 47.0353 143.4 46.8126C143.259 46.5912 143.215 46.3563 143.271 46.1062L143.934 43.1124C143.989 42.8635 144.127 42.6677 144.349 42.5261C144.571 42.3858 144.806 42.3419 145.056 42.3974L147.982 43.0459Z" fill="#179ED5"/>
<path d="M154.157 52.036C154.9 51.9146 155.641 51.8982 156.38 51.9897C157.117 52.0799 157.792 52.2819 158.404 52.596C159.016 52.9114 159.537 53.3378 159.966 53.877C160.396 54.4169 160.673 55.0744 160.8 55.8485C160.903 56.4817 160.894 57.049 160.773 57.5474C160.651 58.0464 160.467 58.5075 160.219 58.9302C159.971 59.3524 159.691 59.7476 159.377 60.1155C159.063 60.4839 158.767 60.8322 158.488 61.1622C158.208 61.4922 157.97 61.8284 157.775 62.1687C157.578 62.5091 157.485 62.8574 157.495 63.2131C157.491 63.393 157.444 63.5547 157.355 63.6992C157.265 63.8438 157.132 63.9304 156.959 63.9591L155.155 64.2537C154.98 64.2824 154.816 64.244 154.66 64.139C154.505 64.0347 154.421 63.8944 154.409 63.7175C154.34 63.0947 154.381 62.5323 154.535 62.0272C154.687 61.5234 154.896 61.0579 155.16 60.6334C155.423 60.2088 155.717 59.8154 156.039 59.4536C156.362 59.0925 156.659 58.7472 156.93 58.4178C157.201 58.0903 157.417 57.77 157.578 57.4601C157.738 57.149 157.792 56.8282 157.737 56.4951C157.639 55.8949 157.305 55.441 156.735 55.1354C156.164 54.8304 155.46 54.7463 154.622 54.8835C153.277 55.1031 152.398 55.9382 151.984 57.3869C151.933 57.5736 151.872 57.7176 151.798 57.8188C151.726 57.9207 151.586 57.9878 151.381 58.0213L149.459 58.3361C149.316 58.3593 149.185 58.3318 149.066 58.2538C148.948 58.1751 148.876 58.0573 148.85 57.8987C148.775 57.343 148.853 56.7489 149.083 56.1181C149.313 55.4874 149.663 54.8939 150.133 54.3382C150.602 53.7818 151.181 53.2938 151.867 52.8729C152.556 52.452 153.318 52.1733 154.157 52.036ZM157.309 65.3639C157.483 65.3359 157.644 65.3749 157.792 65.4798C157.939 65.5866 158.027 65.7263 158.055 65.8995L158.397 67.9894C158.426 68.1632 158.386 68.3242 158.281 68.4713C158.175 68.6189 158.035 68.7061 157.861 68.7348L155.819 69.0684C155.645 69.0971 155.484 69.0587 155.337 68.9532C155.189 68.847 155.102 68.7073 155.073 68.5335L154.731 66.4436C154.703 66.2704 154.742 66.1093 154.847 65.9617C154.953 65.8147 155.093 65.7263 155.267 65.6976L157.309 65.3639Z" fill="#179ED5"/>
<g opacity="0.2">
<path d="M154.157 52.036C154.9 51.9146 155.641 51.8982 156.38 51.9897C157.117 52.0799 157.792 52.2819 158.404 52.596C159.016 52.9114 159.537 53.3378 159.966 53.877C160.396 54.4169 160.673 55.0744 160.8 55.8485C160.903 56.4817 160.894 57.049 160.773 57.5474C160.651 58.0464 160.467 58.5075 160.219 58.9302C159.971 59.3524 159.691 59.7476 159.377 60.1155C159.063 60.4839 158.767 60.8322 158.488 61.1622C158.208 61.4922 157.97 61.8284 157.775 62.1687C157.578 62.5091 157.485 62.8574 157.495 63.2131C157.491 63.393 157.444 63.5547 157.355 63.6992C157.265 63.8438 157.132 63.9304 156.959 63.9591L155.155 64.2537C154.98 64.2824 154.816 64.244 154.66 64.139C154.505 64.0347 154.421 63.8944 154.409 63.7175C154.34 63.0947 154.381 62.5323 154.535 62.0272C154.687 61.5234 154.896 61.0579 155.16 60.6334C155.423 60.2088 155.717 59.8154 156.039 59.4536C156.362 59.0925 156.659 58.7472 156.93 58.4178C157.201 58.0903 157.417 57.77 157.578 57.4601C157.738 57.149 157.792 56.8282 157.737 56.4951C157.639 55.8949 157.305 55.441 156.735 55.1354C156.164 54.8304 155.46 54.7463 154.622 54.8835C153.277 55.1031 152.398 55.9382 151.984 57.3869C151.933 57.5736 151.872 57.7176 151.798 57.8188C151.726 57.9207 151.586 57.9878 151.381 58.0213L149.459 58.3361C149.316 58.3593 149.185 58.3318 149.066 58.2538C148.948 58.1751 148.876 58.0573 148.85 57.8987C148.775 57.343 148.853 56.7489 149.083 56.1181C149.313 55.4874 149.663 54.8939 150.133 54.3382C150.602 53.7818 151.181 53.2938 151.867 52.8729C152.556 52.452 153.318 52.1733 154.157 52.036ZM157.309 65.3639C157.483 65.3359 157.644 65.3749 157.792 65.4798C157.939 65.5866 158.027 65.7263 158.055 65.8995L158.397 67.9894C158.426 68.1632 158.386 68.3242 158.281 68.4713C158.175 68.6189 158.035 68.7061 157.861 68.7348L155.819 69.0684C155.645 69.0971 155.484 69.0587 155.337 68.9532C155.189 68.847 155.102 68.7073 155.073 68.5335L154.731 66.4436C154.703 66.2704 154.742 66.1093 154.847 65.9617C154.953 65.8147 155.093 65.7263 155.267 65.6976L157.309 65.3639Z" fill="black"/>
</g>
<path d="M171.405 55.3203C171.575 55.4417 171.678 55.6082 171.714 55.8199C171.75 56.0321 171.707 56.2231 171.586 56.3933L170.133 58.4374C170.012 58.6082 169.845 58.7113 169.634 58.7466C169.421 58.7832 169.23 58.7399 169.06 58.6192L167.063 57.1991C166.892 57.0777 166.79 56.9118 166.754 56.7001C166.717 56.4872 166.761 56.2969 166.882 56.1267L168.335 54.082C168.456 53.9118 168.622 53.8087 168.835 53.7727C169.046 53.7367 169.237 53.7794 169.407 53.9008L171.405 55.3203ZM179.855 41.466C180.583 41.9826 181.22 42.5871 181.766 43.2783C182.312 43.97 182.713 44.7026 182.965 45.4767C183.219 46.252 183.302 47.0444 183.214 47.8563C183.126 48.6688 182.813 49.4539 182.273 50.2127C181.833 50.8325 181.354 51.3016 180.836 51.6206C180.318 51.9403 179.779 52.1745 179.218 52.3233C178.657 52.4728 178.091 52.5716 177.521 52.621C176.949 52.6692 176.409 52.7162 175.899 52.7613C175.389 52.8065 174.909 52.8913 174.461 53.0151C174.011 53.1383 173.642 53.3549 173.354 53.6623C173.202 53.8105 173.028 53.9075 172.831 53.9545C172.635 54.0015 172.452 53.9642 172.282 53.8429L170.516 52.5875C170.346 52.4667 170.238 52.2977 170.195 52.08C170.152 51.8628 170.197 51.6743 170.334 51.5145C170.795 50.9325 171.299 50.4927 171.849 50.1957C172.398 49.8992 172.96 49.6808 173.537 49.5424C174.112 49.4039 174.688 49.3173 175.261 49.2819C175.833 49.2459 176.371 49.2026 176.874 49.152C177.376 49.1013 177.824 49.0123 178.219 48.8842C178.612 48.7561 178.925 48.5298 179.156 48.2046C179.575 47.616 179.671 46.9566 179.445 46.2246C179.219 45.4932 178.696 44.8356 177.876 44.2524C176.559 43.3167 175.122 43.2868 173.568 44.1628C173.369 44.2781 173.197 44.3488 173.052 44.3732C172.905 44.3976 172.732 44.3384 172.531 44.1957L170.649 42.858C170.51 42.7592 170.423 42.6274 170.388 42.4633C170.353 42.298 170.392 42.1394 170.501 41.9845C170.901 41.4531 171.461 41.0176 172.181 40.6778C172.901 40.3381 173.69 40.1301 174.549 40.0532C175.407 39.9763 176.302 40.0459 177.231 40.2643C178.158 40.4814 179.034 40.8822 179.855 41.466Z" fill="#179ED5"/>
<g opacity="0.6">
<path d="M171.405 55.3203C171.575 55.4417 171.678 55.6082 171.714 55.8199C171.75 56.0321 171.707 56.2231 171.586 56.3933L170.133 58.4374C170.012 58.6082 169.845 58.7113 169.634 58.7466C169.421 58.7832 169.23 58.7399 169.06 58.6192L167.063 57.1991C166.892 57.0777 166.79 56.9118 166.754 56.7001C166.717 56.4872 166.761 56.2969 166.882 56.1267L168.335 54.082C168.456 53.9118 168.622 53.8087 168.835 53.7727C169.046 53.7367 169.237 53.7794 169.407 53.9008L171.405 55.3203ZM179.855 41.466C180.583 41.9826 181.22 42.5871 181.766 43.2783C182.312 43.97 182.713 44.7026 182.965 45.4767C183.219 46.252 183.302 47.0444 183.214 47.8563C183.126 48.6688 182.813 49.4539 182.273 50.2127C181.833 50.8325 181.354 51.3016 180.836 51.6206C180.318 51.9403 179.779 52.1745 179.218 52.3233C178.657 52.4728 178.091 52.5716 177.521 52.621C176.949 52.6692 176.409 52.7162 175.899 52.7613C175.389 52.8065 174.909 52.8913 174.461 53.0151C174.011 53.1383 173.642 53.3549 173.354 53.6623C173.202 53.8105 173.028 53.9075 172.831 53.9545C172.635 54.0015 172.452 53.9642 172.282 53.8429L170.516 52.5875C170.346 52.4667 170.238 52.2977 170.195 52.08C170.152 51.8628 170.197 51.6743 170.334 51.5145C170.795 50.9325 171.299 50.4927 171.849 50.1957C172.398 49.8992 172.96 49.6808 173.537 49.5424C174.112 49.4039 174.688 49.3173 175.261 49.2819C175.833 49.2459 176.371 49.2026 176.874 49.152C177.376 49.1013 177.824 49.0123 178.219 48.8842C178.612 48.7561 178.925 48.5298 179.156 48.2046C179.575 47.616 179.671 46.9566 179.445 46.2246C179.219 45.4932 178.696 44.8356 177.876 44.2524C176.559 43.3167 175.122 43.2868 173.568 44.1628C173.369 44.2781 173.197 44.3488 173.052 44.3732C172.905 44.3976 172.732 44.3384 172.531 44.1957L170.649 42.858C170.51 42.7592 170.423 42.6274 170.388 42.4633C170.353 42.298 170.392 42.1394 170.501 41.9845C170.901 41.4531 171.461 41.0176 172.181 40.6778C172.901 40.3381 173.69 40.1301 174.549 40.0532C175.407 39.9763 176.302 40.0459 177.231 40.2643C178.158 40.4814 179.034 40.8822 179.855 41.466Z" fill="white"/>
</g>
<path d="M125.981 109.319H104.309V56.8075C104.309 47.3116 112.008 39.6128 121.504 39.6128H123.507C133.003 39.6128 140.701 47.311 140.701 56.8075V94.6C140.701 102.729 134.11 109.319 125.981 109.319Z" fill="#263238"/>
<path d="M102.202 235.728C102.024 237.047 101.646 238.587 101.575 242.319C101.499 246.319 100.764 247.739 100.666 251.023C100.555 254.774 101.203 256.179 102.726 258.287C104.248 260.396 108.244 262.309 109.932 258.744C111.642 255.137 111.404 252.846 110.864 249.165C110.306 245.36 110.235 243.259 109.911 240.357C109.626 237.799 109.285 235.857 109.285 235.857L102.202 235.728Z" fill="#263238"/>
<path d="M113.559 209.151L100.38 208.912C100.576 217.709 101.974 227.474 102.202 235.728C102.245 237.281 102.163 247.802 102.75 250.999C103.63 255.802 109.332 255.153 109.634 252.278C109.937 249.404 109.267 237.123 109.285 235.856C109.235 230.562 111.716 221.626 113.017 212.124C113.081 211.657 113.498 209.606 113.559 209.151Z" fill="#FFDCBC"/>
<path d="M130.488 228.882C130.488 228.882 129.967 228.603 129.86 229.158C129.732 229.819 129.542 231.18 129.268 232.265C128.886 233.772 128.569 236.255 128.798 237.483C129.027 238.711 131.89 240.292 133.749 240.863C136.491 241.705 138.373 243.08 139.875 244.494C141.716 246.227 145.689 247.864 148.395 247.844C151.596 247.821 153.828 246.778 154.883 245.064C155.984 243.274 153.921 243.142 150.262 240.768C149.432 240.229 148.486 239.62 147.422 238.925C141.626 235.139 139.504 233.11 137.864 229.323L130.488 228.882Z" fill="#263238"/>
<path d="M137.91 226.539C137.812 223.815 139.681 200.708 139.681 200.708L127.165 206.413C129.846 222.409 130.417 226.181 130.464 228.799C130.444 228.86 130.391 229.082 130.394 229.469C130.405 232.577 133.912 234.253 136.648 236.325C137.729 237.143 140.872 239.56 144.047 241.156C146.035 242.155 150.072 242.246 150.572 240.966C147.242 238.424 142.4 234.619 139.752 231.716C138.488 230.329 138.008 229.262 137.91 226.539Z" fill="#FFDCBC"/>
<path d="M105.781 123.316C100.976 133.868 100.976 142.027 101.771 155.49C102.499 167.839 103.66 178.71 103.66 178.71C103.474 180.902 100.429 185.178 100.035 194.862C99.6661 203.916 100.658 215.425 100.658 215.425C100.658 215.425 107.495 219.214 112.55 215.392C112.55 215.392 117.429 192.096 118.858 180.764C120.106 170.874 122.274 158.237 122.274 158.237L126.866 180.71C126.866 180.71 125.119 186.251 124.71 190.471C124.064 197.137 127.793 210.227 127.793 210.227C127.793 210.227 134.857 212.335 139.171 208.509C139.171 208.509 140.785 187.227 141.387 179.197C142.193 168.444 140.498 139.333 139.171 123.922L105.781 123.316Z" fill="#455A64"/>
<path d="M122.274 158.237L124.172 141.321C124.172 141.321 132.676 140.184 136.528 136.563C136.528 136.563 133.634 141.866 126.509 142.895L123.764 158.636L126.867 180.71L122.274 158.237Z" fill="#263238"/>
<path d="M156.707 119.159C157.236 113.974 157.216 110.52 157.17 109.856C156.985 107.171 156.505 106.734 152.751 101.977C147.685 95.5553 143.36 89.7835 138.786 84.0409C135.521 79.9411 132.088 79.3104 128.736 79.4958C126.391 79.6258 130.965 90.8918 133.269 97.5585L146.415 111.698C146.819 112.256 147.005 112.944 146.937 113.63L146.13 125.667L150.067 130.933C150.067 130.933 156.029 125.794 156.707 119.159Z" fill="#FFDCBC"/>
<path d="M116.071 79.8606C113.529 80.0357 108.905 80.4426 108.905 80.4426C106.237 81.9316 105.563 83.1522 105.066 86.6957C104.855 88.203 106.084 92.2253 107.139 97.9398L109.142 108.538L108.925 113.794C107.885 117 105.534 120.987 103.463 126.862C113.647 132.546 122.189 132.757 129.935 131.762C135.843 131.004 138.968 129.574 140.01 128.163C139.793 122.358 139.383 118.774 139.282 112.71C139.24 110.162 139.393 107.592 139.492 104.661C143.455 101.405 143.5 95.9915 141.338 92.4919C136.316 84.3612 131.433 79.2421 128.199 79.5044L116.071 79.8606Z" fill="#179ED5"/>
<path opacity="0.6" d="M116.071 79.8606C113.529 80.0357 108.905 80.4426 108.905 80.4426C106.237 81.9316 105.563 83.1522 105.066 86.6957C104.855 88.203 106.084 92.2253 107.139 97.9398L109.142 108.538L108.925 113.794C107.885 117 105.534 120.987 103.463 126.862C113.647 132.546 122.189 132.757 129.935 131.762C135.843 131.004 138.968 129.574 140.01 128.163C139.793 122.358 139.383 118.774 139.282 112.71C139.24 110.162 139.393 107.592 139.492 104.661C143.455 101.405 143.5 95.9915 141.338 92.4919C136.316 84.3612 131.433 79.2421 128.199 79.5044L116.071 79.8606Z" fill="white"/>
<path opacity="0.1" d="M131.608 104.749C131.608 104.749 126.956 108.359 121.647 106.477C116.339 104.594 115.564 99.9534 115.564 99.9534C115.564 99.9534 115 106.022 121.697 108.092C128.16 110.089 131.608 104.749 131.608 104.749Z" fill="black"/>
<path d="M137.915 63.2021C137.715 72.0087 134.857 74.1858 133.425 74.811C131.992 75.4363 129.227 75.055 126.544 74.6109V79.896C126.544 79.896 129.641 83.1424 129.409 85.5629C129.172 87.9895 124.543 88.2585 121.065 85.888C118.527 84.1593 116.714 82.1829 115.923 81.2453C115.635 80.9043 115.48 80.4761 115.48 80.0296V67.5929C115.48 67.5929 114.01 69.1502 111.408 67.3678C108.812 65.5915 108.587 62.2761 110.176 60.3998C111.308 59.0675 114.185 58.9736 115.568 61.0439C116.343 62.5641 116.45 64.0903 117.319 63.4583C119.639 61.7881 118.395 57.9915 121.197 56.1151C121.203 56.1151 121.203 56.109 121.209 56.109C122.047 55.6589 122.998 55.2331 124.061 54.864C129.059 53.1377 133.387 51.6865 134.432 48.2711C136.401 49.4411 138.159 52.8126 137.915 63.2021Z" fill="#FFDCBC"/>
<path d="M128.065 71.0705C128.704 71.0705 129.221 70.553 129.221 69.9146C129.221 69.2761 128.704 68.7586 128.065 68.7586C127.427 68.7586 126.909 69.2761 126.909 69.9146C126.909 70.553 127.427 71.0705 128.065 71.0705Z" fill="#F2C58E"/>
<path d="M127.292 61.8668C127.327 62.5653 126.81 63.1564 126.139 63.1887C125.467 63.2204 124.894 62.6806 124.858 61.9821C124.824 61.2843 125.34 60.6926 126.012 60.6602C126.684 60.6291 127.257 61.169 127.292 61.8668Z" fill="#263238"/>
<path d="M136.536 61.987C136.569 62.6214 136.099 63.1594 135.488 63.1881C134.816 63.2198 134.359 62.7897 134.324 62.0919C134.292 61.4575 134.761 60.9195 135.372 60.8902C135.984 60.8615 136.505 61.3526 136.536 61.987Z" fill="#263238"/>
<path d="M125.725 65.0028C123.538 65.0028 121.758 63.2229 121.758 61.0354C121.758 58.338 124.538 58.338 125.725 58.338C126.913 58.338 129.693 58.338 129.693 61.0354C129.693 63.2235 127.913 65.0028 125.725 65.0028ZM125.725 58.9638C123.321 58.9638 122.384 59.5446 122.384 61.036C122.384 62.8788 123.882 64.3776 125.725 64.3776C127.568 64.3776 129.067 62.8788 129.067 61.036C129.067 59.5446 128.13 58.9638 125.725 58.9638Z" fill="#455A64"/>
<path d="M135.797 65.0028C133.609 65.0028 131.829 63.2229 131.829 61.0354C131.829 58.338 134.609 58.338 135.797 58.338C136.985 58.338 139.764 58.338 139.764 61.0354C139.764 63.2235 137.984 65.0028 135.797 65.0028ZM135.797 58.9638C133.392 58.9638 132.455 59.5446 132.455 61.036C132.455 62.8788 133.954 64.3776 135.797 64.3776C137.64 64.3776 139.139 62.8788 139.139 61.036C139.139 59.5446 138.202 58.9638 135.797 58.9638Z" fill="#455A64"/>
<path d="M130.309 59.7568L130.504 67.1659L134.404 65.9575L130.309 59.7568Z" fill="#F2C58E"/>
<path d="M126.541 74.6091C123.709 74.2376 117.882 72.5638 116.975 70.2604C116.975 70.2604 117.277 71.708 119.018 73.2C120.758 74.6915 126.541 76.3726 126.541 76.3726V74.6091Z" fill="#F2C58E"/>
<path d="M126.676 56.1591L124.092 57.7341C123.668 56.9905 123.904 56.0352 124.617 55.6003C125.331 55.1654 126.253 55.4155 126.676 56.1591Z" fill="#263238"/>
<path d="M137.202 57.9153L134.323 56.91C134.573 56.0981 135.42 55.6656 136.215 55.9431C137.01 56.2201 137.451 57.1033 137.202 57.9153Z" fill="#263238"/>
<path d="M129.379 61.3514C129.207 61.3514 129.067 61.2086 129.067 61.0354C129.067 60.5279 130.071 60.1997 130.972 60.1997C131.873 60.1997 132.455 60.5279 132.455 61.0354C132.455 61.208 132.315 61.3483 132.142 61.3483C131.969 61.3483 131.829 61.2086 131.829 61.0354C131.801 60.9781 131.512 60.8256 130.971 60.8256C130.43 60.8256 129.72 60.9781 129.691 61.0409C129.691 61.2141 129.552 61.3514 129.379 61.3514Z" fill="#455A64"/>
<path d="M122.081 61.0872C122.069 61.0872 122.058 61.0866 122.046 61.0854L115.073 60.4504C114.948 60.3345 114.618 59.9935 113.93 59.7086L122.115 60.4638C122.287 60.4827 122.41 60.6377 122.392 60.8097C122.373 60.9689 122.238 61.0872 122.081 61.0872Z" fill="#455A64"/>
<path d="M93.4538 68.3542C95.734 65.3078 97.2889 63.0057 99.3702 60.3943C100.552 58.9114 101.308 57.853 102.445 56.3317C103.227 55.2843 103.686 54.401 104.553 54.0765C105.529 53.7111 106.471 52.9889 107.098 52.3295C107.547 51.8579 107.914 51.3169 108.302 50.7941C109.605 49.0379 111.162 47.4702 112.908 46.1544C114.743 44.7716 116.783 43.7169 118.666 42.3993C119.789 41.613 120.994 40.307 119.626 39.0882C119.218 38.724 118.7 38.5069 118.166 38.3904C114.847 37.6651 111.95 38.8094 108.704 39.6396C107.293 40.0002 105.905 40.4522 104.57 41.0359C103.922 41.319 103.276 41.627 102.739 42.0864C101.902 42.8025 101.402 43.8218 100.858 44.7789C99.3983 47.3506 96.3745 49.6198 94.2462 51.6219C91.7495 53.9704 89.5181 56.1237 86.67 58.7149C84.1068 61.047 81.5991 63.1972 79.2481 65.744C77.3035 67.8509 78.0111 69.4991 78.288 70.0683C79.8728 73.3281 81.6473 74.4969 83.767 76.516C87.4386 80.0137 100.085 90.0751 104.281 93.3959C105.179 94.1065 105.884 95.0282 106.337 96.0799L107.138 97.9404C111.92 98.8206 115.111 91.6403 111.151 82.9948C110.508 81.5924 109.489 80.3986 108.243 79.4897C103.251 75.848 93.4538 68.3542 93.4538 68.3542Z" fill="#FFDCBC"/>
<path d="M93.4538 68.3542C93.4538 68.3542 91.2914 71.2449 87.6088 72.3771C87.6088 72.3771 90.6594 73.1555 94.8349 69.4082L93.4538 68.3542Z" fill="#F2C58E"/>
<path d="M155.465 112.794L155.481 112.796L154.699 112.122L154.698 112.131C154.522 111.99 154.248 111.945 153.894 112.042L145.425 114.346C144.64 114.559 143.787 115.355 143.521 116.124L137.426 133.71C137.285 134.117 137.341 134.431 137.539 134.608L137.532 134.611L138.338 135.305L138.338 135.295C138.513 135.441 138.79 135.488 139.15 135.391L147.619 133.087C148.404 132.874 149.257 132.077 149.523 131.309C150.72 127.852 154.421 117.179 155.618 113.722C155.768 113.289 155.694 112.963 155.465 112.794Z" fill="#455A64"/>
<path d="M138.21 134.385L144.305 116.799C144.571 116.031 145.423 115.235 146.208 115.021L154.678 112.718C155.463 112.504 155.884 112.954 155.618 113.723C154.421 117.179 150.719 127.852 149.523 131.309C149.257 132.078 148.404 132.874 147.619 133.088L139.149 135.391C138.364 135.604 137.944 135.153 138.21 134.385Z" fill="#179ED5"/>
<path d="M145.287 115.509C144.846 115.857 144.467 116.337 144.305 116.801L138.208 134.381C138.076 134.776 138.115 135.085 138.292 135.263L137.534 134.613L137.542 134.605C137.341 134.427 137.287 134.118 137.426 133.708L143.523 116.12C143.67 115.687 144.019 115.245 144.428 114.897L145.287 115.509Z" fill="#37474F"/>
<path d="M153.138 120.807C152.541 122.599 150.413 123.794 146.914 124.623C143.416 125.452 141.478 129.167 142.043 130.297C142.608 131.428 148.261 132.477 150.522 132.155C152.784 131.831 155.058 128.563 155.743 127.552C156.427 126.54 157.225 119.476 156.499 118.507C155.771 117.538 154.245 117.687 154.245 117.687L153.138 120.807Z" fill="#FFD39E"/>
</svg>
