<svg width="199" height="140" viewBox="0 0 199 140" fill="none" xmlns="http://www.w3.org/2000/svg">
<mask id="mask0_242_1153" style="mask-type:luminance" maskUnits="userSpaceOnUse" x="62" y="36" width="45" height="37">
<path d="M62.2819 36.9333H106.983V72.2789H62.2819V36.9333Z" fill="white"/>
</mask>
<g mask="url(#mask0_242_1153)">
<path d="M106.283 71.8689C105.526 72.0217 104.781 72.1633 104.009 72.2714C103.621 67.1576 101.937 61.1642 98.7797 55.7261C98.3474 54.9844 97.8964 54.2427 97.4006 53.5159C95.6712 50.9515 93.5653 48.5586 91.0904 46.5198C83.6023 40.3549 73.9935 38.1782 62.4837 40.0307C62.4054 39.274 62.3421 38.5174 62.3123 37.7608C73.9786 35.953 84.1279 38.1633 91.9104 44.2648C92.1266 44.4325 92.3278 44.604 92.544 44.7754C94.1393 46.0874 95.578 47.5075 96.8751 49.0357C97.5572 49.8259 98.1759 50.6272 98.7797 51.4621C99.2605 52.1405 99.7227 52.8226 100.155 53.5308C102.399 57.1015 103.994 60.948 105.015 64.7014C105.31 65.7823 105.556 66.8483 105.742 67.8993C106.003 69.2561 106.175 70.5867 106.283 71.8689Z" fill="#C8DAE8"/>
</g>
<mask id="mask1_242_1153" style="mask-type:luminance" maskUnits="userSpaceOnUse" x="90" y="36" width="46" height="37">
<path d="M90.7642 36.9333H135.279V72.2789H90.7642V36.9333Z" fill="white"/>
</mask>
<g mask="url(#mask1_242_1153)">
<path d="M135.232 37.7608C135.202 38.5323 135.157 39.2889 135.064 40.0307C123.569 38.1782 113.945 40.3549 106.457 46.5198C103.982 48.5586 101.877 50.9515 100.143 53.5159C99.6477 54.2427 99.1855 54.9695 98.768 55.7261C95.6111 61.1642 93.9412 67.1725 93.5387 72.2714C92.7634 72.1633 92.0068 72.0366 91.2651 71.8689C91.3732 70.5867 91.5409 69.2412 91.8055 67.8993C92.0068 66.8483 92.2379 65.7674 92.5323 64.7014C93.5536 60.948 95.1451 57.1015 97.389 53.5308C97.8213 52.8226 98.2872 52.1405 98.768 51.4621C99.3532 50.6272 99.9906 49.8408 100.654 49.0543L100.669 49.0357C101.97 47.5075 103.408 46.0874 105.004 44.7754C105.201 44.604 105.421 44.4325 105.637 44.2648C113.42 38.1633 123.584 35.953 135.232 37.7608Z" fill="#C8DAE8"/>
</g>
<path d="M103.033 20.9246C102.046 21.8974 101.133 22.8554 100.298 23.7946C99.7534 24.3835 99.2614 24.9873 98.7806 25.5576C91.956 33.929 91.5087 40.8505 96.876 49.0356C96.8909 49.0542 96.8909 49.0841 96.9095 49.099L94.99 50.3513C93.6109 48.2641 92.5896 46.2402 91.9113 44.2647C91.2292 42.3004 90.89 40.3697 90.89 38.439C90.89 36.5083 91.2441 34.5627 91.956 32.6021C92.9773 29.7582 94.7403 26.8547 97.2636 23.8133C97.7444 23.2393 98.2402 22.6541 98.7806 22.0652C99.6006 21.1557 100.465 20.2425 101.427 19.3182C108.08 12.7508 109.996 7.2046 109.485 1.38263C110.275 1.62863 111.066 1.89326 111.837 2.18399C112.087 8.19605 109.903 14.141 103.033 20.9246Z" fill="#C8DAE8"/>
<path d="M106.658 38.4242C106.658 40.3549 106.315 42.2856 105.637 44.2499C104.955 46.2253 103.919 48.2492 102.543 50.3365L100.624 49.0841C100.639 49.0692 100.654 49.0357 100.654 49.0208C106.021 40.8506 105.574 33.9291 98.7528 25.5428C98.2869 24.9688 97.7763 24.3836 97.2358 23.7798C96.4009 22.8368 95.4877 21.8826 94.4963 20.9061C87.6568 14.1411 85.4614 8.19613 85.7223 2.16916C86.4976 1.87843 87.2729 1.6138 88.0742 1.3678C87.5636 7.17486 89.4831 12.7359 96.1363 19.2996C97.0793 20.2277 97.9626 21.1558 98.7826 22.0503C99.3082 22.6392 99.8188 23.2095 100.3 23.7947C102.819 26.8399 104.582 29.7434 105.603 32.5873C106.3 34.5478 106.658 36.4935 106.658 38.4242Z" fill="#C8DAE8"/>
<path d="M93.1938 38.5323L90.9053 38.6889C90.9053 38.5957 90.8904 38.5025 90.8904 38.4242C90.6407 35.2896 89.7759 32.8632 88.5683 30.7945C87.4389 28.8154 85.9853 27.1642 84.4534 25.5428C84.0807 25.1552 83.7117 24.7713 83.339 24.3837C79.7832 20.6899 75.8211 16.5825 74.5687 8.93791C75.2322 8.349 75.9292 7.77873 76.6411 7.23828C77.4909 15.0208 81.1436 18.8077 84.9939 22.7921C87.6551 25.5577 90.3947 28.383 91.9564 32.5687C92.59 34.3019 93.041 36.2624 93.1938 38.5323Z" fill="#C8DAE8"/>
<path d="M90.3319 29.3112L88.692 30.9027C88.6621 30.8729 88.6174 30.8244 88.5839 30.7946C82.6426 24.7714 69.7724 25.6025 63.6299 26.4076C63.861 25.5876 64.1107 24.7863 64.4052 23.9812C69.5413 23.3811 77.909 22.9786 84.469 25.5429C86.6979 26.4076 88.7255 27.6264 90.3319 29.3112Z" fill="#C8DAE8"/>
<path d="M122.978 8.95285C121.726 16.5974 117.764 20.7086 114.204 24.3986C113.835 24.7862 113.462 25.1701 113.108 25.5578C111.576 27.1791 110.119 28.834 108.99 30.8095C107.786 32.8781 106.932 35.3195 106.671 38.4392C106.656 38.5323 106.656 38.6106 106.656 38.7038L104.364 38.5473C104.521 36.2774 104.968 34.3317 105.602 32.6023C107.167 28.4166 109.903 25.5727 112.564 22.822C116.418 18.8375 120.067 15.0544 120.921 7.26813C121.632 7.77876 122.311 8.34903 122.978 8.95285Z" fill="#C8DAE8"/>
<path d="M133.932 26.3927C127.79 25.5876 114.916 24.7527 108.974 30.7797C108.945 30.8095 108.9 30.8542 108.866 30.8878L107.211 29.3112C108.822 27.6264 110.849 26.4076 113.089 25.5429C119.634 22.9786 128.021 23.3811 133.157 23.9812C133.451 24.7714 133.697 25.5727 133.932 26.3927Z" fill="#C8DAE8"/>
<path d="M131.921 51.4621C131.582 52.2038 131.224 52.9157 130.841 53.6239C124.262 52.8822 118.276 54.7384 112.983 59.1552C108.79 62.6625 106.379 66.7401 105.745 67.8993C105.637 68.0819 105.588 68.2087 105.573 68.2087L103.516 67.2023C103.561 67.1091 104.057 66.1363 105.003 64.7013C106.285 62.7706 108.406 60.005 111.436 57.4704C115.738 53.855 122.607 50.165 131.921 51.4621Z" fill="#C8DAE8"/>
<path d="M94.0325 67.2023L91.9713 68.2087C91.9713 68.1901 91.9117 68.082 91.8036 67.8993C91.1849 66.7551 88.7696 62.6625 84.5615 59.1552C79.2726 54.7384 73.2829 52.8822 66.708 53.6239C66.3203 52.9158 65.9514 52.2039 65.6234 51.4621C74.9527 50.1501 81.8071 53.8401 86.1084 57.4407C89.1423 59.9752 91.2631 62.7408 92.5453 64.6715C93.4883 66.1214 93.984 67.1092 94.0325 67.2023Z" fill="#C8DAE8"/>
<path d="M98.9337 18.5915C100.451 17.7267 101.457 16.0867 101.457 14.2194C101.457 12.3483 100.436 10.727 98.9337 9.84732C97.4204 10.712 96.414 12.3483 96.414 14.2194C96.3991 16.0867 97.4204 17.7118 98.9337 18.5915Z" fill="#3DBDEA"/>
<mask id="mask2_242_1153" style="mask-type:luminance" maskUnits="userSpaceOnUse" x="89" y="0" width="9" height="9">
<path d="M89.8094 0H97.4428V8.30805H89.8094V0Z" fill="white"/>
</mask>
<g mask="url(#mask2_242_1153)">
<path d="M95.8915 0.00762939C93.9869 0.0225384 92.1456 1.0289 91.1393 2.80307C90.1329 4.58097 90.2261 6.66451 91.2026 8.3045C93.1035 8.28586 94.9448 7.28323 95.9512 5.50533C96.9575 3.73116 96.8643 1.64389 95.8915 0.00762939Z" fill="#3DBDEA"/>
</g>
<mask id="mask3_242_1153" style="mask-type:luminance" maskUnits="userSpaceOnUse" x="100" y="0" width="8" height="9">
<path d="M100.308 0H107.942V8.30805H100.308V0Z" fill="white"/>
</mask>
<g mask="url(#mask3_242_1153)">
<path d="M101.675 0.00762939C103.58 0.0225384 105.421 1.0289 106.424 2.80307C107.43 4.58097 107.337 6.66451 106.364 8.3045C104.46 8.28586 102.618 7.28323 101.612 5.50533C100.609 3.73116 100.703 1.64389 101.675 0.00762939Z" fill="#3DBDEA"/>
</g>
<path d="M77.9431 65.3799C78.901 67.0199 80.6789 68.1306 82.7065 68.1306C84.7491 68.1306 86.527 67.0199 87.4737 65.3799C86.5121 63.7436 84.7342 62.6329 82.7065 62.6329C80.664 62.6143 78.8861 63.7287 77.9431 65.3799Z" fill="#3DBDEA"/>
<path d="M83.9293 52.5915C85.1033 54.0898 87.0229 54.9396 89.0356 54.6452C91.0632 54.3507 92.6548 53.0089 93.3667 51.2459C92.1926 49.7476 90.273 48.8978 88.2603 49.1922C86.2327 49.4867 84.6412 50.8285 83.9293 52.5915Z" fill="#3DBDEA"/>
<path d="M74.7071 47.9251C76.1756 49.129 78.2331 49.5464 80.1377 48.8196C82.0423 48.1114 83.3245 46.4416 83.6339 44.5742C82.1653 43.3666 80.1079 42.9529 78.2033 43.676C76.2837 44.3879 75.0165 46.0391 74.7071 47.9251Z" fill="#3DBDEA"/>
<path d="M82.1307 33.4036C81.9332 35.133 82.6265 36.9258 84.1286 38.0552C85.6306 39.1808 87.5464 39.3374 89.1566 38.6404C89.3579 36.9109 88.6609 35.1181 87.1625 33.9925C85.6605 32.878 83.7409 32.7103 82.1307 33.4036Z" fill="#3DBDEA"/>
<mask id="mask4_242_1153" style="mask-type:luminance" maskUnits="userSpaceOnUse" x="62" y="27" width="10" height="8">
<path d="M62.2819 27.3914H71.6783V34.0707H62.2819V27.3914Z" fill="white"/>
</mask>
<g mask="url(#mask4_242_1153)">
<path d="M62.2819 32.6319C63.7505 33.8358 65.8079 34.2532 67.7125 33.5264C69.6134 32.8182 70.8993 31.1484 71.2087 29.2811C69.7402 28.0734 67.6827 27.6597 65.7781 28.3828C63.8586 29.0947 62.5913 30.7645 62.2819 32.6319Z" fill="#3DBDEA"/>
</g>
<path d="M72.1837 32.986C73.6559 34.1937 75.7134 34.6111 77.6143 33.8843C79.5189 33.1724 80.8011 31.5063 81.1142 29.6352C79.6419 28.4313 77.5844 28.0139 75.6835 28.7407C73.7789 29.4489 72.5117 31.1187 72.1837 32.986Z" fill="#3DBDEA"/>
<path d="M68.2398 16.2134C68.1914 18.1106 69.1232 19.9817 70.8526 21.0626C72.5858 22.1286 74.6917 22.1137 76.3615 21.2154C76.41 19.3182 75.4819 17.4471 73.7487 16.3662C72.0155 15.3003 69.9246 15.3002 68.2398 16.2134Z" fill="#3DBDEA"/>
<path d="M85.5829 17.1528C84.9344 18.9457 85.2288 21.0143 86.5408 22.576C87.8565 24.1377 89.8543 24.7863 91.7254 24.462C92.374 22.6692 92.0832 20.6006 90.7675 19.0388C89.4518 17.4771 87.4726 16.8286 85.5829 17.1528Z" fill="#3DBDEA"/>
<path d="M80.6482 4.56586C79.2729 5.87785 78.6206 7.87193 79.1014 9.84738C79.5822 11.8266 81.0806 13.2914 82.9069 13.8169C84.2823 12.5049 84.9346 10.5108 84.4537 8.53538C83.9916 6.55621 82.4895 5.10631 80.6482 4.56586Z" fill="#3DBDEA"/>
<path d="M63.9391 46.5793C65.5642 47.5708 67.6514 47.6938 69.448 46.7061C71.2408 45.7333 72.262 43.9069 72.3105 42.0097C70.6854 41.0183 68.5944 40.8953 66.8016 41.8867C65.0051 42.8446 63.9838 44.6822 63.9391 46.5793Z" fill="#3DBDEA"/>
<path d="M70.5613 58.9538C71.5192 60.5901 73.2971 61.7046 75.3247 61.7046C77.3672 61.7046 79.1452 60.5901 80.0919 58.9538C79.1302 57.3176 77.3523 56.2031 75.3247 56.2031C73.2971 56.1882 71.5192 57.3027 70.5613 58.9538Z" fill="#3DBDEA"/>
<path d="M119.622 65.3799C118.664 67.0199 116.882 68.1306 114.858 68.1306C112.816 68.1306 111.034 67.0199 110.091 65.3799C111.053 63.7436 112.831 62.6329 114.858 62.6329C116.901 62.6143 118.664 63.7287 119.622 65.3799Z" fill="#3DBDEA"/>
<path d="M113.634 52.5915C112.456 54.0898 110.54 54.9396 108.527 54.6452C106.5 54.3507 104.908 53.0089 104.196 51.2459C105.37 49.7476 107.29 48.8978 109.299 49.1922C111.311 49.4867 112.922 50.8285 113.634 52.5915Z" fill="#3DBDEA"/>
<path d="M122.855 47.9251C121.382 49.129 119.325 49.5464 117.424 48.8196C115.519 48.1114 114.237 46.4416 113.928 44.5742C115.396 43.3666 117.454 42.9529 119.358 43.676C121.274 44.3879 122.545 46.0391 122.855 47.9251Z" fill="#3DBDEA"/>
<path d="M115.428 33.4036C115.629 35.133 114.932 36.9258 113.434 38.0552C111.931 39.1808 110.012 39.3374 108.405 38.6404C108.204 36.9109 108.901 35.1181 110.4 33.9925C111.902 32.878 113.821 32.7103 115.428 33.4036Z" fill="#3DBDEA"/>
<mask id="mask5_242_1153" style="mask-type:luminance" maskUnits="userSpaceOnUse" x="126" y="27" width="10" height="8">
<path d="M126.069 27.3914H135.28V34.0707H126.069V27.3914Z" fill="white"/>
</mask>
<g mask="url(#mask5_242_1153)">
<path d="M135.279 32.6319C133.811 33.8358 131.749 34.2532 129.848 33.5264C127.944 32.8182 126.662 31.1484 126.352 29.2811C127.821 28.0734 129.878 27.6597 131.783 28.3828C133.684 29.0947 134.955 30.7645 135.279 32.6319Z" fill="#3DBDEA"/>
</g>
<path d="M125.36 32.986C123.892 34.1937 121.834 34.6111 119.93 33.8843C118.029 33.1724 116.743 31.5063 116.434 29.6352C117.902 28.4313 119.96 28.0139 121.864 28.7407C123.784 29.4489 125.051 31.1187 125.36 32.986Z" fill="#3DBDEA"/>
<path d="M129.307 16.2134C129.352 18.1106 128.424 19.9817 126.69 21.0626C124.957 22.1286 122.855 22.1137 121.182 21.2154C121.137 19.3182 122.065 17.4471 123.798 16.3662C125.546 15.3003 127.633 15.3002 129.307 16.2134Z" fill="#3DBDEA"/>
<path d="M111.962 17.1528C112.614 18.9457 112.319 21.0143 111.004 22.576C109.688 24.1377 107.694 24.7863 105.823 24.462C105.171 22.6692 105.465 20.6006 106.781 19.0388C108.097 17.4771 110.091 16.8286 111.962 17.1528Z" fill="#3DBDEA"/>
<path d="M116.9 4.56586C118.276 5.87785 118.924 7.87193 118.447 9.84738C117.966 11.8266 116.464 13.2914 114.642 13.8169C113.263 12.5049 112.614 10.5108 113.091 8.53538C113.572 6.55621 115.074 5.10631 116.9 4.56586Z" fill="#3DBDEA"/>
<path d="M133.624 46.5793C131.999 47.5708 129.908 47.6938 128.115 46.7061C126.318 45.7333 125.301 43.9069 125.252 42.0097C126.877 41.0183 128.965 40.8953 130.761 41.8867C132.554 42.8446 133.575 44.6822 133.624 46.5793Z" fill="#3DBDEA"/>
<path d="M126.986 58.9538C126.028 60.5901 124.246 61.7046 122.219 61.7046C120.18 61.7046 118.398 60.5901 117.455 58.9538C118.413 57.3176 120.195 56.2031 122.219 56.2031C124.261 56.1882 126.043 57.3027 126.986 58.9538Z" fill="#3DBDEA"/>
<g filter="url(#filter0_d_242_1153)">
<path d="M3.78363 124.115V92.4557H8.12546V106.069H24.8144V92.4557H29.1562V124.115H24.8144V109.913H8.12546V124.115H3.78363Z" fill="url(#paint0_linear_242_1153)"/>
<path d="M44.4834 124.658C42.1315 124.658 40.0511 124.13 38.242 123.075C36.4329 121.989 35.0007 120.542 33.9454 118.733C32.8901 116.894 32.3624 114.843 32.3624 112.582C32.3624 110.321 32.8901 108.285 33.9454 106.476C35.0007 104.637 36.4329 103.19 38.242 102.134C40.0511 101.049 42.1315 100.506 44.4834 100.506C46.8352 100.506 48.9156 101.049 50.7247 102.134C52.564 103.19 53.9962 104.622 55.0214 106.431C56.0767 108.24 56.6043 110.29 56.6043 112.582C56.6043 114.843 56.0767 116.894 55.0214 118.733C53.9962 120.542 52.564 121.989 50.7247 123.075C48.9156 124.13 46.8352 124.658 44.4834 124.658ZM44.4834 121.085C46.0814 121.085 47.4684 120.708 48.6443 119.954C49.8202 119.2 50.7398 118.19 51.4032 116.924C52.0665 115.627 52.3982 114.18 52.3982 112.582C52.3982 110.984 52.0665 109.552 51.4032 108.285C50.7398 106.989 49.8202 105.964 48.6443 105.21C47.4684 104.456 46.0814 104.079 44.4834 104.079C42.9155 104.079 41.5285 104.456 40.3224 105.21C39.1465 105.964 38.2269 106.989 37.5636 108.285C36.9002 109.552 36.5686 110.984 36.5686 112.582C36.5686 114.18 36.9002 115.627 37.5636 116.924C38.2269 118.19 39.1465 119.2 40.3224 119.954C41.5285 120.708 42.9155 121.085 44.4834 121.085Z" fill="url(#paint1_linear_242_1153)"/>
<path d="M66.6649 124.115C64.6146 124.115 63.0015 123.527 61.8256 122.351C60.6798 121.175 60.107 119.577 60.107 117.557V95.2598H64.2679V117.286C64.2679 118.281 64.5392 119.08 65.082 119.683C65.6549 120.255 66.4388 120.542 67.4338 120.542H72.0922V124.115H66.6649ZM56.1269 104.622V101.049H72.1827V104.622H56.1269Z" fill="url(#paint2_linear_242_1153)"/>
<path d="M85.959 124.115C83.4263 124.115 81.18 123.648 79.2201 122.713C77.2603 121.748 75.7226 120.406 74.6069 118.688C73.5215 116.939 72.9788 114.904 72.9788 112.582C72.9788 110.29 73.4461 108.24 74.3808 106.431C75.3155 104.592 76.612 103.144 78.2704 102.089C79.9287 101.034 81.8584 100.506 84.0595 100.506C86.4415 100.506 88.4164 101.019 89.9843 102.044C91.5823 103.069 92.7733 104.456 93.5572 106.205C94.3412 107.923 94.7332 109.853 94.7332 111.994C94.7332 112.326 94.7181 112.672 94.6879 113.034C94.6879 113.396 94.6578 113.713 94.5975 113.984H77.411C77.5618 115.401 78.0292 116.607 78.8131 117.602C79.597 118.567 80.592 119.306 81.7981 119.818C83.0343 120.301 84.3911 120.542 85.8686 120.542H91.8838V124.115H85.959ZM77.3658 111.044H90.527C90.527 110.471 90.4667 109.868 90.3461 109.235C90.2255 108.572 90.0144 107.939 89.7129 107.336C89.4114 106.702 89.0043 106.145 88.4918 105.662C88.0093 105.15 87.3912 104.742 86.6374 104.441C85.9138 104.139 85.0545 103.989 84.0595 103.989C83.0042 103.989 82.0695 104.2 81.2554 104.622C80.4714 105.014 79.793 105.557 79.2201 106.25C78.6473 106.913 78.2101 107.667 77.9085 108.511C77.607 109.356 77.4261 110.2 77.3658 111.044Z" fill="url(#paint3_linear_242_1153)"/>
<path d="M97.7775 124.115V91.0989H101.938V124.115H97.7775Z" fill="url(#paint4_linear_242_1153)"/>
<path d="M131.062 124.703C128.559 124.703 126.298 124.281 124.278 123.436C122.257 122.562 120.524 121.371 119.076 119.864C117.659 118.356 116.559 116.607 115.775 114.617C114.991 112.627 114.599 110.501 114.599 108.24C114.599 106.009 114.991 103.898 115.775 101.908C116.559 99.9182 117.659 98.1694 119.076 96.6618C120.524 95.1543 122.257 93.9784 124.278 93.1341C126.298 92.2899 128.559 91.8677 131.062 91.8677C133.564 91.8677 135.826 92.2899 137.846 93.1341C139.866 93.9784 141.585 95.1543 143.002 96.6618C144.449 98.1694 145.565 99.9182 146.349 101.908C147.133 103.898 147.525 106.024 147.525 108.285C147.525 110.517 147.133 112.627 146.349 114.617C145.565 116.607 144.449 118.356 143.002 119.864C141.585 121.371 139.866 122.562 137.846 123.436C135.826 124.281 133.564 124.703 131.062 124.703ZM131.062 120.859C132.78 120.859 134.378 120.542 135.856 119.909C137.333 119.276 138.615 118.386 139.7 117.24C140.816 116.095 141.675 114.768 142.278 113.26C142.881 111.723 143.183 110.049 143.183 108.24C143.183 106.461 142.881 104.803 142.278 103.265C141.675 101.727 140.831 100.401 139.745 99.285C138.66 98.1393 137.363 97.2649 135.856 96.6618C134.378 96.0287 132.78 95.7121 131.062 95.7121C129.313 95.7121 127.7 96.0287 126.222 96.6618C124.745 97.2649 123.464 98.1393 122.378 99.285C121.293 100.401 120.448 101.727 119.845 103.265C119.242 104.803 118.941 106.476 118.941 108.285C118.941 110.064 119.242 111.723 119.845 113.26C120.448 114.768 121.293 116.095 122.378 117.24C123.464 118.386 124.745 119.276 126.222 119.909C127.7 120.542 129.313 120.859 131.062 120.859Z" fill="url(#paint5_linear_242_1153)"/>
<path d="M162.111 100.506C163.86 100.506 165.458 100.793 166.906 101.366C168.353 101.908 169.604 102.722 170.659 103.808C171.715 104.893 172.529 106.205 173.102 107.743C173.705 109.25 174.006 110.954 174.006 112.853C174.006 115.235 173.509 117.316 172.514 119.095C171.549 120.874 170.222 122.245 168.534 123.21C166.845 124.175 164.931 124.658 162.79 124.658C161.614 124.658 160.483 124.462 159.398 124.07C158.342 123.678 157.393 123.135 156.548 122.441C155.734 121.718 155.071 120.904 154.558 119.999H154.468V134.065H150.307V112.718C150.307 110.125 150.82 107.923 151.845 106.114C152.9 104.305 154.317 102.918 156.096 101.953C157.875 100.989 159.88 100.506 162.111 100.506ZM162.111 104.079C160.724 104.079 159.443 104.426 158.267 105.119C157.121 105.813 156.202 106.793 155.508 108.059C154.845 109.326 154.513 110.818 154.513 112.537C154.513 114.285 154.845 115.808 155.508 117.105C156.202 118.371 157.121 119.351 158.267 120.044C159.443 120.738 160.74 121.085 162.157 121.085C163.604 121.085 164.9 120.723 166.046 119.999C167.192 119.276 168.096 118.281 168.76 117.014C169.453 115.748 169.8 114.27 169.8 112.582C169.8 110.833 169.453 109.326 168.76 108.059C168.066 106.793 167.132 105.813 165.956 105.119C164.81 104.426 163.529 104.079 162.111 104.079Z" fill="url(#paint6_linear_242_1153)"/>
<path d="M176.75 124.115V120.542H187.786C188.509 120.542 189.127 120.391 189.64 120.09C190.183 119.758 190.59 119.336 190.861 118.823C191.133 118.311 191.268 117.768 191.268 117.195C191.268 116.652 191.148 116.155 190.906 115.703C190.665 115.22 190.288 114.843 189.776 114.572C189.293 114.27 188.705 114.12 188.012 114.12H183.353C181.876 114.12 180.58 113.878 179.464 113.396C178.378 112.883 177.519 112.145 176.886 111.18C176.283 110.215 175.981 109.039 175.981 107.652C175.981 106.476 176.268 105.391 176.841 104.396C177.414 103.401 178.213 102.602 179.238 101.999C180.263 101.366 181.439 101.049 182.766 101.049H193.394V104.622H183.173C182.238 104.622 181.499 104.908 180.956 105.481C180.414 106.054 180.142 106.732 180.142 107.516C180.142 108.27 180.414 108.934 180.956 109.506C181.529 110.049 182.328 110.321 183.353 110.321H187.786C189.444 110.321 190.831 110.592 191.947 111.135C193.092 111.647 193.952 112.401 194.525 113.396C195.128 114.391 195.429 115.612 195.429 117.059C195.429 118.296 195.128 119.456 194.525 120.542C193.922 121.597 193.077 122.457 191.992 123.12C190.937 123.783 189.7 124.115 188.283 124.115H176.75Z" fill="url(#paint7_linear_242_1153)"/>
</g>
<defs>
<filter id="filter0_d_242_1153" x="0.853403" y="91.0989" width="197.506" height="48.8265" filterUnits="userSpaceOnUse" color-interpolation-filters="sRGB">
<feFlood flood-opacity="0" result="BackgroundImageFix"/>
<feColorMatrix in="SourceAlpha" type="matrix" values="0 0 0 0 0 0 0 0 0 0 0 0 0 0 0 0 0 0 127 0" result="hardAlpha"/>
<feOffset dy="2.93023"/>
<feGaussianBlur stdDeviation="1.46511"/>
<feComposite in2="hardAlpha" operator="out"/>
<feColorMatrix type="matrix" values="0 0 0 0 0 0 0 0 0 0 0 0 0 0 0 0 0 0 0.2 0"/>
<feBlend mode="normal" in2="BackgroundImageFix" result="effect1_dropShadow_242_1153"/>
<feBlend mode="normal" in="SourceGraphic" in2="effect1_dropShadow_242_1153" result="shape"/>
</filter>
<linearGradient id="paint0_linear_242_1153" x1="99.2041" y1="76.2996" x2="95.555" y2="131.036" gradientUnits="userSpaceOnUse">
<stop stop-color="#3DBDEA"/>
<stop offset="1" stop-color="#141D24"/>
</linearGradient>
<linearGradient id="paint1_linear_242_1153" x1="99.2041" y1="76.2996" x2="95.555" y2="131.036" gradientUnits="userSpaceOnUse">
<stop stop-color="#3DBDEA"/>
<stop offset="1" stop-color="#141D24"/>
</linearGradient>
<linearGradient id="paint2_linear_242_1153" x1="99.2041" y1="76.2996" x2="95.555" y2="131.036" gradientUnits="userSpaceOnUse">
<stop stop-color="#3DBDEA"/>
<stop offset="1" stop-color="#141D24"/>
</linearGradient>
<linearGradient id="paint3_linear_242_1153" x1="99.2041" y1="76.2996" x2="95.555" y2="131.036" gradientUnits="userSpaceOnUse">
<stop stop-color="#3DBDEA"/>
<stop offset="1" stop-color="#141D24"/>
</linearGradient>
<linearGradient id="paint4_linear_242_1153" x1="99.2041" y1="76.2996" x2="95.555" y2="131.036" gradientUnits="userSpaceOnUse">
<stop stop-color="#3DBDEA"/>
<stop offset="1" stop-color="#141D24"/>
</linearGradient>
<linearGradient id="paint5_linear_242_1153" x1="99.2041" y1="76.2996" x2="95.555" y2="131.036" gradientUnits="userSpaceOnUse">
<stop stop-color="#3DBDEA"/>
<stop offset="1" stop-color="#141D24"/>
</linearGradient>
<linearGradient id="paint6_linear_242_1153" x1="99.2041" y1="76.2996" x2="95.555" y2="131.036" gradientUnits="userSpaceOnUse">
<stop stop-color="#3DBDEA"/>
<stop offset="1" stop-color="#141D24"/>
</linearGradient>
<linearGradient id="paint7_linear_242_1153" x1="99.2041" y1="76.2996" x2="95.555" y2="131.036" gradientUnits="userSpaceOnUse">
<stop stop-color="#3DBDEA"/>
<stop offset="1" stop-color="#141D24"/>
</linearGradient>
</defs>
</svg>
