<svg width="24" height="24" viewBox="0 0 24 24" fill="none" xmlns="http://www.w3.org/2000/svg">
<path d="M16.68 4.2C15.4893 4.2 14.52 5.16844 14.52 6.36C14.52 7.55155 15.4893 8.52 16.68 8.52C17.8706 8.52 18.84 7.55061 18.84 6.36C18.84 5.16844 17.8706 4.2 16.68 4.2ZM16.68 7.08C16.2834 7.08 15.96 6.75655 15.96 6.36C15.96 5.96345 16.2834 5.64 16.68 5.64C17.0765 5.64 17.4 5.96345 17.4 6.36C17.4 6.75655 17.0765 7.08 16.68 7.08Z" fill="#179ED5"/>
<path d="M15.9009 1.44C15.2944 1.44 14.6906 1.53 14.1056 1.70719C10.845 2.69625 8.99721 6.15367 9.98625 9.41431L10.1203 9.85586L9.70031 10.2112L1.67999 18.105V21.8399H5.46743L6.95994 19.8993V18.4799H8.87994V16.3199H10.7109L13.6247 13.3948L14.1038 13.5373C15.256 13.887 16.5131 13.8917 17.6925 13.5354C20.9531 12.5454 22.8009 9.08701 21.8109 5.82637C21.0159 3.20317 18.6403 1.44 15.9009 1.44ZM17.2763 12.1574C16.3697 12.4312 15.4078 12.4284 14.5191 12.1584L13.2123 11.7693L10.1129 14.88H7.44002V17.04H5.52002V19.41L4.75876 20.4H3.12002V18.7078L10.651 11.293L11.7722 10.3433L11.3644 8.99609C10.606 6.49577 12.0235 3.84353 14.5238 3.08417C14.9729 2.94917 15.436 2.87979 15.901 2.87979C17.9691 2.87979 19.8339 4.26354 20.4348 6.24459C21.1933 8.74587 19.7756 11.399 17.2763 12.1574Z" fill="#179ED5"/>
</svg>
