<svg width="24" height="24" viewBox="0 0 24 24" fill="none" xmlns="http://www.w3.org/2000/svg">
<path d="M17.8182 6.96107V5.16901C17.8182 3.06786 16.108 1.35752 14.0067 1.35752H9.99301C7.89186 1.35752 6.18152 3.06774 6.18152 5.16901V6.96447C4.14175 7.74969 2.69061 9.7247 2.69061 12.0382V16.8609C2.69061 19.8619 5.13151 22.3029 8.13381 22.3029H15.8656C18.8678 22.3029 21.3088 19.862 21.3088 16.8597V12.0371C21.3088 9.72456 19.8577 7.74847 17.8179 6.96098L17.8182 6.96107ZM7.92727 5.16901C7.92727 4.02809 8.85567 3.10309 9.99319 3.10309H14.008C15.1455 3.10309 16.0739 4.02809 16.0739 5.16901L16.0728 6.594H7.92735L7.92727 5.16901ZM19.5636 16.8601C19.5636 18.8998 17.9057 20.5578 15.8659 20.5578H8.1341C6.09434 20.5578 4.43636 18.8999 4.43636 16.8601V12.0374C4.43636 9.9976 6.09431 8.33963 8.1341 8.33963H15.8659C17.9057 8.33963 19.5636 9.99757 19.5636 12.0374V16.8601Z" fill="#179ED5"/>
<path d="M12 13.5758C11.517 13.5758 11.1273 13.9655 11.1273 14.4485V16.8985C11.1273 17.3815 11.517 17.7712 12 17.7712C12.483 17.7712 12.8727 17.3815 12.8727 16.8985V14.4485C12.8727 13.9655 12.483 13.5758 12 13.5758Z" fill="#179ED5"/>
</svg>
