<svg width="49" height="49" viewBox="0 0 49 49" fill="none" xmlns="http://www.w3.org/2000/svg">
<rect width="48.6126" height="48.9895" rx="8.66737" fill="white" fill-opacity="0.2"/>
<path d="M29.8182 19.9611V18.169C29.8182 16.0679 28.108 14.3575 26.0067 14.3575H21.9931C19.8919 14.3575 18.1816 16.0677 18.1816 18.169V19.9645C16.1418 20.7497 14.6907 22.7247 14.6907 25.0382V29.8609C14.6907 32.8619 17.1316 35.3029 20.1339 35.3029H27.8657C30.8678 35.3029 33.3089 32.862 33.3089 29.8597V25.037C33.3089 22.7246 31.8577 20.7485 29.8179 19.961L29.8182 19.9611ZM19.9273 18.169C19.9273 17.0281 20.8557 16.1031 21.9932 16.1031H26.0081C27.1456 16.1031 28.074 17.0281 28.074 18.169L28.0729 19.594H19.9274L19.9273 18.169ZM31.5637 29.8601C31.5637 31.8998 29.9057 33.5578 27.8659 33.5578H20.1342C18.0944 33.5578 16.4364 31.8999 16.4364 29.8601V25.0374C16.4364 22.9976 18.0944 21.3396 20.1342 21.3396H27.8659C29.9057 21.3396 31.5637 22.9976 31.5637 25.0374V29.8601Z" fill="white"/>
<path d="M24.0002 26.5758C23.5172 26.5758 23.1274 26.9655 23.1274 27.4485V29.8985C23.1274 30.3815 23.5172 30.7712 24.0002 30.7712C24.4831 30.7712 24.8729 30.3815 24.8729 29.8985V27.4485C24.8729 26.9655 24.4831 26.5758 24.0002 26.5758Z" fill="white"/>
</svg>
