<svg width="49" height="50" viewBox="0 0 49 50" fill="none" xmlns="http://www.w3.org/2000/svg">
<rect y="0.989471" width="48.6126" height="48.9895" rx="8.66737" fill="white" fill-opacity="0.2"/>
<path d="M34.4352 24.9991L30.8889 21.3164C30.5278 20.9414 29.9445 20.9414 29.5834 21.3164C29.2222 21.6914 29.2222 22.2972 29.5834 22.6722L31.5463 24.7106H23.1852C22.6759 24.7106 22.2593 25.1433 22.2593 25.6722C22.2593 26.201 22.6759 26.6337 23.1852 26.6337H31.5278L29.5926 28.6145C29.2315 28.9895 29.2222 29.5952 29.5926 29.9702C29.7778 30.1625 30.0093 30.2587 30.25 30.2587C30.4908 30.2587 30.7222 30.1625 30.8982 29.9799L34.4445 26.3549C34.6204 26.1722 34.7222 25.9318 34.7222 25.6722C34.7222 25.4125 34.6296 25.1722 34.4537 24.9895L34.4352 24.9991Z" fill="white"/>
<path d="M26.9815 31.1241C25.5833 32.576 23.7222 33.3741 21.7407 33.3741C19.7592 33.3741 17.8981 32.576 16.5 31.1241C13.6111 28.1241 13.6111 23.2491 16.5 20.2491C17.8981 18.7972 19.7592 17.9991 21.7407 17.9991C23.7222 17.9991 25.5833 18.7972 26.9815 20.2491C27.3426 20.6241 27.9259 20.6241 28.287 20.2491C28.6481 19.8741 28.6481 19.2683 28.287 18.8933C26.537 17.076 24.2129 16.076 21.7407 16.076C19.2685 16.076 16.9444 17.076 15.1944 18.8933C11.5833 22.6433 11.5833 28.7395 15.1944 32.4895C16.9444 34.3068 19.2685 35.3068 21.7407 35.3068C24.2129 35.3068 26.537 34.3068 28.287 32.4895C28.6481 32.1145 28.6481 31.5087 28.287 31.1337C27.9259 30.7587 27.3426 30.7587 26.9815 31.1337V31.1241Z" fill="white"/>
</svg>
