<svg width="28" height="22" viewBox="0 0 28 22" fill="none" xmlns="http://www.w3.org/2000/svg">
<path d="M22.75 2.85001H5.24998C3.93449 2.85001 2.86362 3.85969 2.86362 5.10001V17.1C2.86362 18.3403 3.93449 19.35 5.24998 19.35H22.75C24.0655 19.35 25.1363 18.3403 25.1363 17.1V5.10001C25.1363 3.85969 24.0655 2.85001 22.75 2.85001ZM22.22 4.35001L14.4783 9.82489C14.1969 10.0236 13.8041 10.0236 13.5227 9.82489L5.77997 4.35001H22.22ZM22.75 17.85H5.24998C4.81048 17.85 4.45453 17.5135 4.45453 17.1V5.28745L12.5682 11.0249C12.9887 11.323 13.4949 11.4721 14 11.4721C14.5051 11.4721 15.0112 11.323 15.4318 11.0249L23.5454 5.28745V17.1C23.5454 17.5135 23.1895 17.85 22.75 17.85Z" fill="#179ED5"/>
</svg>
