<svg width="62" height="61" viewBox="0 0 62 61" fill="none" xmlns="http://www.w3.org/2000/svg">
<rect x="0.716657" y="0.716657" width="60.2656" height="59.1832" rx="19.2833" fill="white" stroke="#E2EEF7" stroke-width="1.43331"/>
<path d="M29.955 28.5221L30.056 28.5257L30.116 28.5137C30.1241 28.5135 30.1345 28.5133 30.1472 28.5133C30.1962 28.5133 30.2581 28.5156 30.3174 28.5201L30.3704 28.5242L30.4235 28.5218C33.3283 28.3884 35.6042 26.0016 35.6189 23.0802L35.6189 23.0802V23.0759C35.6189 20.0707 33.1649 17.6166 30.1597 17.6166C27.1545 17.6166 24.7004 20.0707 24.7004 23.0759C24.7004 26.0323 27.0122 28.4186 29.955 28.5221ZM30.3589 28.6592H30.3587H30.3584H30.3582H30.358H30.3578H30.3576H30.3574H30.3571H30.3569H30.3567H30.3565H30.3563H30.3561H30.3558H30.3556H30.3554H30.3552H30.355H30.3548H30.3546H30.3543H30.3541H30.3539H30.3537H30.3535H30.3533H30.3531H30.3529H30.3526H30.3524H30.3522H30.352H30.3518H30.3516H30.3514H30.3512H30.351H30.3508H30.3506H30.3503H30.3501H30.3499H30.3497H30.3495H30.3493H30.3491H30.3489H30.3487H30.3485H30.3483H30.3481H30.3479H30.3477H30.3474H30.3472H30.347H30.3468H30.3466H30.3464H30.3462H30.346H30.3458H30.3456H30.3454H30.3452H30.345H30.3448H30.3446H30.3444H30.3442H30.344H30.3438H30.3436H30.3434H30.3432H30.343H30.3428H30.3426H30.3424H30.3422H30.342H30.3418H30.3416H30.3414H30.3412H30.341H30.3408H30.3406H30.3404H30.3402H30.34H30.3398H30.3396H30.3394H30.3392H30.339H30.3388H30.3386H30.3384H30.3382H30.338H30.3378H30.3376H30.3375H30.3373H30.3371H30.3369H30.3367H30.3365H30.3363H30.3361H30.3359H30.3357H30.3355H30.3353H30.3351H30.3349H30.3347H30.3345H30.3344H30.3342H30.334H30.3338H30.3336H30.3334H30.3332H30.333H30.3328H30.3326H30.3324H30.3322H30.332H30.3319H30.3317H30.3315H30.3313H30.3311H30.3309H30.3307H30.3305H30.3303H30.3301H30.33H30.3298H30.3296H30.3294H30.3292H30.329H30.3288H30.3286H30.3284H30.3283H30.3281H30.3279H30.3277H30.3275H30.3273H30.3271H30.3269H30.3268H30.3266H30.3264H30.3262H30.326H30.3258H30.3256H30.3254H30.3253H30.3251H30.3249H30.3247H30.3245H30.3243H30.3241H30.324H30.3238H30.3236H30.3234H30.3232H30.323H30.3228H30.3227H30.3225H30.3223H30.3221H30.3219H30.3217H30.3215H30.3214H30.3212H30.321H30.3209C30.2107 28.6466 30.0996 28.6474 29.9977 28.6572C26.8817 28.5282 24.5639 26.0806 24.5639 23.0759C24.5639 19.9933 27.0772 17.4801 30.1597 17.4801C33.2417 17.4801 35.7546 19.9925 35.7554 23.0744C35.7438 26.1069 33.3772 28.5554 30.3818 28.6592H30.3817H30.3816H30.3816H30.3815H30.3814H30.3813H30.3813H30.3812H30.3811H30.3811H30.381H30.3809H30.3808H30.3808H30.3807H30.3806H30.3805H30.3805H30.3804H30.3803H30.3803H30.3802H30.3801H30.38H30.38H30.3799H30.3798H30.3797H30.3797H30.3796H30.3795H30.3795H30.3794H30.3793H30.3792H30.3792H30.3791H30.379H30.3789H30.3789H30.3788H30.3787H30.3786H30.3786H30.3785H30.3784H30.3784H30.3783H30.3782H30.3781H30.3781H30.378H30.3779H30.3778H30.3778H30.3777H30.3776H30.3776H30.3775H30.3774H30.3773H30.3773H30.3772H30.3771H30.377H30.377H30.3769H30.3768H30.3768H30.3767H30.3766H30.3765H30.3765H30.3764H30.3763H30.3762H30.3762H30.3761H30.376H30.3759H30.3759H30.3758H30.3757H30.3757H30.3756H30.3755H30.3754H30.3754H30.3753H30.3752H30.3751H30.3751H30.375H30.3749H30.3749H30.3748H30.3747H30.3746H30.3746H30.3745H30.3744H30.3743H30.3743H30.3742H30.3741H30.3741H30.374H30.3739H30.3738H30.3738H30.3737H30.3736H30.3735H30.3735H30.3734H30.3733H30.3733H30.3732H30.3731H30.373H30.373H30.3729H30.3728H30.3727H30.3727H30.3726H30.3725H30.3724H30.3724H30.3723H30.3722H30.3722H30.3721H30.372H30.3719H30.3719H30.3718H30.3717H30.3716H30.3716H30.3715H30.3714H30.3714H30.3713H30.3712H30.3711H30.3711H30.371H30.3709H30.3708H30.3708H30.3707H30.3706H30.3706H30.3705H30.3704H30.3703H30.3703H30.3702H30.3701H30.37H30.37H30.3699H30.3698H30.3697H30.3697H30.3696H30.3695H30.3695H30.3694H30.3693H30.3692H30.3692H30.3691H30.369H30.3689H30.3689H30.3688H30.3687H30.3687H30.3686H30.3685H30.3684H30.3684H30.3683H30.3682H30.3681H30.3681H30.368H30.3679H30.3679H30.3678H30.3677H30.3676H30.3676H30.3675H30.3674H30.3673H30.3673H30.3672H30.3671H30.3671H30.367H30.3669H30.3668H30.3668H30.3667H30.3666H30.3665H30.3665H30.3664H30.3663H30.3662H30.3662H30.3661H30.366H30.366H30.3659H30.3658H30.3657H30.3657H30.3656H30.3655H30.3654H30.3654H30.3653H30.3652H30.3652H30.3651H30.365H30.3649H30.3649H30.3648H30.3647H30.3646H30.3646H30.3645H30.3644H30.3644H30.3643H30.3642H30.3641H30.3641H30.364H30.3639H30.3638H30.3638H30.3637H30.3636H30.3635H30.3635H30.3634H30.3633H30.3633H30.3632H30.3631H30.363H30.363H30.3629H30.3628H30.3627H30.3627H30.3626H30.3625H30.3625H30.3624H30.3623H30.3622H30.3622H30.3621H30.362H30.3619H30.3619H30.3618H30.3617H30.3617H30.3616H30.3615H30.3614H30.3614H30.3613H30.3612H30.3611H30.3611H30.361H30.3609H30.3608H30.3608H30.3607H30.3606H30.3606H30.3605H30.3604H30.3603H30.3603H30.3602H30.3601H30.36H30.36H30.3599H30.3598H30.3598H30.3597H30.3596H30.3595H30.3595H30.3594H30.3593H30.3592H30.3592H30.3591H30.359H30.359H30.3589Z" fill="#179ED5" stroke="#179ED5" stroke-width="1.73091"/>
<path d="M24.1062 40.5454L24.1015 40.5423C22.5549 39.5187 21.8127 38.1961 21.8127 36.8445C21.8127 35.4915 22.5565 34.1561 24.1037 33.1204C25.8006 31.9953 28.0706 31.4075 30.3807 31.4075C32.6918 31.4075 34.9549 31.9957 36.6383 33.1198L36.6389 33.1202C38.1781 34.1464 38.9301 35.4708 38.9301 36.8196C38.9301 38.1729 38.186 39.5086 36.6382 40.5444C34.9411 41.6756 32.6774 42.266 30.3714 42.266C28.0635 42.266 25.7888 41.6747 24.1062 40.5454ZM24.1771 33.2486C22.8294 34.1471 21.9492 35.4049 21.9492 36.857C21.9492 38.3012 22.8469 39.5577 24.1771 40.4404C25.9022 41.5967 28.1628 42.1451 30.3714 42.1451C32.5805 42.1451 34.8415 41.5965 36.5667 40.4398C37.9138 39.5414 38.7936 38.2838 38.7936 36.8321C38.7936 35.3875 37.8954 34.1307 36.5647 33.248C34.8398 32.0984 32.5795 31.5533 30.3714 31.5533C28.1629 31.5533 25.9022 32.0986 24.1771 33.2486Z" fill="#179ED5" stroke="#179ED5" stroke-width="1.73091"/>
</svg>
