<svg width="49" height="49" viewBox="0 0 49 49" fill="none" xmlns="http://www.w3.org/2000/svg">
<rect width="48.6126" height="48.9895" rx="8.66737" fill="white" fill-opacity="0.2"/>
<path d="M23.6866 22.4056L23.7523 22.4079L23.7974 22.3988C23.808 22.3983 23.8242 22.3979 23.8457 22.3979C23.8925 22.3979 23.9505 22.4 24.0061 22.4043L24.0405 22.4069L24.075 22.4053C26.4771 22.295 28.3602 20.3215 28.3724 17.9034H28.3724V17.9006C28.3724 15.4149 26.342 13.3845 23.8564 13.3845C21.3707 13.3845 19.3403 15.4149 19.3403 17.9006C19.3403 20.3467 21.252 22.3199 23.6866 22.4056ZM24.0278 22.8881H24.0276H24.0274H24.0272H24.027H24.0269H24.0267H24.0265H24.0263H24.0261H24.0259H24.0257H24.0256H24.0254H24.0252H24.025H24.0248H24.0246H24.0244H24.0243H24.0241H24.0239H24.0237H24.0235H24.0233H24.0232H24.023H24.0228H24.0226H24.0224H24.0223H24.0221H24.0219H24.0217H24.0215H24.0213H24.0212H24.021H24.0208H24.0206H24.0204H24.0203H24.0201H24.0199H24.0197H24.0196H24.0194H24.0192H24.019H24.0188H24.0187H24.0185H24.0183H24.0181H24.018H24.0178H24.0176H24.0174H24.0173H24.0171H24.0169H24.0167H24.0166H24.0164H24.0162H24.016H24.0159H24.0157H24.0155H24.0153H24.0152H24.015H24.0148H24.0146H24.0145H24.0143H24.0141H24.0139H24.0138H24.0136H24.0134H24.0133H24.0131H24.0129H24.0127H24.0126H24.0124H24.0122H24.0121H24.0119H24.0117H24.0116H24.0114H24.0112H24.011H24.0109H24.0107H24.0105H24.0104H24.0102H24.01H24.0099H24.0097H24.0095H24.0094H24.0092H24.009H24.0089H24.0087H24.0085H24.0084H24.0082H24.008H24.0079H24.0077H24.0075H24.0074H24.0072H24.007H24.0069H24.0067H24.0065H24.0064H24.0062H24.006H24.0059H24.0057H24.0055H24.0054H24.0052H24.005H24.0049H24.0047H24.0045H24.0044H24.0042H24.004H24.0039H24.0037H24.0036H24.0034H24.0032H24.0031H24.0029H24.0027H24.0026H24.0024H24.0023H24.0021H24.0019H24.0018H24.0016H24.0014H24.0013H24.0011H24.001H24.0008H24.0006H24.0005H24.0003H24.0001H24H23.9998H23.9997H23.9995H23.9993H23.9992H23.999H23.9989H23.9987H23.9985H23.9984H23.9982H23.9981H23.9979H23.9977H23.9976H23.9974H23.9973H23.9971H23.9969H23.9968H23.9966H23.9965H23.9963H23.9961H23.996H23.9958H23.9957H23.9955H23.9953H23.9952H23.995H23.9949H23.9947H23.9945H23.9944H23.9942H23.9941H23.9939H23.9938H23.9936H23.9934H23.9933H23.9931H23.993H23.9928H23.9926H23.9925H23.9923H23.9922H23.992H23.9919H23.9917H23.9915H23.9914H23.9912H23.9911H23.9909H23.9908H23.9906H23.9904H23.9903H23.9901H23.99H23.9898H23.9897H23.9895H23.9893H23.9892H23.989H23.9889H23.9887H23.9886H23.9884H23.9882H23.9881H23.9879H23.9878H23.9876H23.9875H23.9873H23.9871H23.987H23.9868H23.9867H23.9865H23.9864H23.9862H23.986H23.9859H23.9857H23.9856H23.9854H23.9853H23.9851H23.9849H23.9848H23.9846H23.9845H23.9844C23.8962 22.8772 23.8052 22.878 23.7224 22.8868C20.9377 22.7781 18.8582 20.5897 18.8582 17.9006C18.8582 15.1469 21.1027 12.9023 23.8564 12.9023C26.6097 12.9023 28.8541 15.1464 28.8546 17.8996C28.8444 20.6076 26.7292 22.797 24.0506 22.8881H24.0506H24.0505H24.0505H24.0504H24.0503H24.0503H24.0502H24.0501H24.0501H24.05H24.05H24.0499H24.0498H24.0498H24.0497H24.0496H24.0496H24.0495H24.0495H24.0494H24.0493H24.0493H24.0492H24.0491H24.0491H24.049H24.049H24.0489H24.0488H24.0488H24.0487H24.0486H24.0486H24.0485H24.0485H24.0484H24.0483H24.0483H24.0482H24.0481H24.0481H24.048H24.0479H24.0479H24.0478H24.0478H24.0477H24.0476H24.0476H24.0475H24.0474H24.0474H24.0473H24.0473H24.0472H24.0471H24.0471H24.047H24.0469H24.0469H24.0468H24.0468H24.0467H24.0466H24.0466H24.0465H24.0464H24.0464H24.0463H24.0463H24.0462H24.0461H24.0461H24.046H24.0459H24.0459H24.0458H24.0458H24.0457H24.0456H24.0456H24.0455H24.0454H24.0454H24.0453H24.0452H24.0452H24.0451H24.0451H24.045H24.0449H24.0449H24.0448H24.0447H24.0447H24.0446H24.0446H24.0445H24.0444H24.0444H24.0443H24.0442H24.0442H24.0441H24.0441H24.044H24.0439H24.0439H24.0438H24.0437H24.0437H24.0436H24.0436H24.0435H24.0434H24.0434H24.0433H24.0432H24.0432H24.0431H24.0431H24.043H24.0429H24.0429H24.0428H24.0427H24.0427H24.0426H24.0426H24.0425H24.0424H24.0424H24.0423H24.0422H24.0422H24.0421H24.042H24.042H24.0419H24.0419H24.0418H24.0417H24.0417H24.0416H24.0415H24.0415H24.0414H24.0414H24.0413H24.0412H24.0412H24.0411H24.041H24.041H24.0409H24.0409H24.0408H24.0407H24.0407H24.0406H24.0405H24.0405H24.0404H24.0404H24.0403H24.0402H24.0402H24.0401H24.04H24.04H24.0399H24.0399H24.0398H24.0397H24.0397H24.0396H24.0395H24.0395H24.0394H24.0393H24.0393H24.0392H24.0392H24.0391H24.039H24.039H24.0389H24.0388H24.0388H24.0387H24.0387H24.0386H24.0385H24.0385H24.0384H24.0383H24.0383H24.0382H24.0382H24.0381H24.038H24.038H24.0379H24.0378H24.0378H24.0377H24.0377H24.0376H24.0375H24.0375H24.0374H24.0373H24.0373H24.0372H24.0372H24.0371H24.037H24.037H24.0369H24.0368H24.0368H24.0367H24.0366H24.0366H24.0365H24.0365H24.0364H24.0363H24.0363H24.0362H24.0361H24.0361H24.036H24.036H24.0359H24.0358H24.0358H24.0357H24.0356H24.0356H24.0355H24.0355H24.0354H24.0353H24.0353H24.0352H24.0351H24.0351H24.035H24.035H24.0349H24.0348H24.0348H24.0347H24.0346H24.0346H24.0345H24.0345H24.0344H24.0343H24.0343H24.0342H24.0341H24.0341H24.034H24.0339H24.0339H24.0338H24.0338H24.0337H24.0336H24.0336H24.0335H24.0334H24.0334H24.0333H24.0333H24.0332H24.0331H24.0331H24.033H24.0329H24.0329H24.0328H24.0328H24.0327H24.0326H24.0326H24.0325H24.0324H24.0324H24.0323H24.0323H24.0322H24.0321H24.0321H24.032H24.0319H24.0319H24.0318H24.0318H24.0317H24.0316H24.0316H24.0315H24.0314H24.0314H24.0313H24.0312H24.0312H24.0311H24.0311H24.031H24.0309H24.0309H24.0308H24.0307H24.0307H24.0306H24.0306H24.0305H24.0304H24.0304H24.0303H24.0302H24.0302H24.0301H24.0301H24.03H24.0299H24.0299H24.0298H24.0297H24.0297H24.0296H24.0296H24.0295H24.0294H24.0294H24.0293H24.0292H24.0292H24.0291H24.0291H24.029H24.0289H24.0289H24.0288H24.0287H24.0287H24.0286H24.0286H24.0285H24.0284H24.0284H24.0283H24.0282H24.0282H24.0281H24.028H24.028H24.0279H24.0279H24.0278Z" fill="white" stroke="white" stroke-width="1.125"/>
<path d="M18.545 33.0868L18.542 33.0848C17.1722 32.1781 16.4905 30.988 16.4905 29.7503C16.4905 28.5115 17.1732 27.3105 18.5434 26.3934C20.0397 25.4012 22.0305 24.8887 24.0467 24.8887C26.0635 24.8887 28.0485 25.4015 29.5335 26.3931L29.5338 26.3933C30.8962 27.3016 31.5869 28.4928 31.5869 29.7288C31.5869 30.9678 30.9039 32.1691 29.5332 33.0862C28.0367 34.0837 26.0515 34.5985 24.0387 34.5985C22.0246 34.5985 20.0294 34.0831 18.545 33.0868ZM18.8088 26.8073C17.6811 27.5591 16.9726 28.5917 16.9726 29.761C16.9726 30.9226 17.6951 31.9544 18.8088 32.6933C20.2566 33.6638 22.1645 34.1297 24.0387 34.1297C25.9131 34.1297 27.8212 33.6637 29.2691 32.693C30.3965 31.9412 31.1048 30.9087 31.1048 29.7396C31.1048 28.5777 30.3819 27.5457 29.2678 26.8068C27.8202 25.8419 25.9125 25.3788 24.0387 25.3788C22.1646 25.3788 20.2566 25.8421 18.8088 26.8073Z" fill="white" stroke="white" stroke-width="1.125"/>
</svg>
