<svg width="203" height="61" viewBox="0 0 203 61" fill="none" xmlns="http://www.w3.org/2000/svg">
<g clip-path="url(#clip0_221_1867)">
<path fill-rule="evenodd" clip-rule="evenodd" d="M23.0068 52.5934C23.274 52.2671 23.5257 51.7683 24.886 51.4371C24.886 51.4371 71.07 35.7394 132.51 38.8795C132.51 38.8795 135.999 38.7509 135.052 40.2771C134.497 41.1726 133.46 41.2294 131.49 41.3309C131.49 41.3309 130.822 41.4343 128.208 41.4064C128.208 41.4064 134.491 43.847 109.689 43.3397C109.689 43.3397 111.879 45.5751 102.758 44.9305C102.758 44.9305 77.3228 43.7724 25.9142 53.0976C25.9142 53.0976 21.8713 53.9721 23.0068 52.5934Z" fill="white"/>
<path fill-rule="evenodd" clip-rule="evenodd" d="M159.019 31.5746C159.019 31.5746 166.21 37.5075 157.288 37.2061C157.288 37.2061 155.553 37.3371 154.49 33.7627C154.49 33.7627 151.424 26.7532 151.647 24.1037C151.344 24.4433 149.646 26.4911 148.675 28.7538C148.113 30.0619 147.884 30.5165 147.08 31.7687C146.638 32.3964 146.217 32.9625 145.822 33.3267C141.882 36.9813 141.499 32.3129 141.499 32.3129C140.685 28.3331 142.726 21.9474 142.726 21.9474C144.208 17.5395 146.388 19.355 146.388 19.355C149.408 20.1426 148.186 23.0556 148.186 23.0556C147.541 25.2777 146.962 24.7954 146.962 24.7954C146.217 25.2886 146.013 26.3532 145.96 27.026C145.96 27.026 145.678 29.4924 146.781 27.603C147.61 25.9151 149.217 23.1049 150.385 22.2079C150.385 22.2079 152.106 20.3755 153.111 21.8849C153.111 21.8849 157.449 30.6064 159.019 31.5746ZM36.0402 50.3767C37.881 52.9462 39.2894 54.7603 38.9032 55.0977C37.651 56.1888 32.0139 51.7806 32.0139 51.7806C22.2071 43.6429 17.8729 33.272 16.924 30.7527C16.7847 30.3846 17.0618 30.055 17.0618 30.055C17.3973 29.6839 17.9297 29.4768 19.3516 29.3164C19.3468 29.3155 19.3567 29.3173 19.3516 29.3164C18.6063 28.9576 18.3732 28.8635 18.4384 28.6138C18.581 28.2078 19.9549 28.2187 19.9549 28.2187C21.0386 28.1694 21.826 28.1015 21.826 28.1015C23.4161 27.9329 24.223 27.785 24.223 27.785C27.6076 27.2439 28.9337 25.773 28.9337 25.773C32.2811 22.3789 26.904 18.9773 26.904 18.9773C13.2754 11.1408 2.30109 14.8564 2.30109 14.8564C1.7053 15.0273 1.24855 15.0303 0.595405 14.817C-0.834604 14.3398 1.7071 12.3145 1.7071 12.3145C8.46676 6.7121 12.0133 8.39005 12.0133 8.39005C25.1443 9.26269 30.9229 16.1322 30.9229 16.1322C35.4988 20.9771 34.3123 24.8399 33.6976 25.9638C31.4592 30.0625 26.1539 30.165 26.1539 30.165C25.3275 30.2115 24.6038 30.2335 23.9638 30.2356C24.5737 30.9309 25.02 32.1458 25.02 32.1458C26.0383 35.3412 36.0402 50.3767 36.0402 50.3767ZM18.3963 17.4646C19.1333 18.8105 18.1498 20.9479 18.1498 20.9479C13.8943 29.6565 8.57427 50.2225 7.51092 54.4159L7.53344 54.4108C7.53344 54.4108 7.50641 54.4757 7.46677 54.5932C7.37098 54.9691 7.32053 55.1731 7.32053 55.1731C7.24996 55.4836 7.17609 55.7603 7.10132 56.0208C6.9839 56.6654 6.89411 57.4764 6.91573 58.4037L6.90162 58.3995C6.93645 59.5129 6.8881 60.6541 6.55327 60.8074C5.59623 61.2452 5.10225 59.9636 4.83859 58.5687C3.90076 58.35 3.1311 57.1342 3.1311 57.1342C-0.318996 54.8219 2.26055 48.3946 2.26055 48.3946C4.60285 39.0845 16.2141 19.4536 16.2141 19.4536C17.5753 17.2582 18.1396 16.9971 18.3963 17.4646ZM45.1566 35.6886C44.8668 36.1544 44.5905 36.6787 43.8428 37.1571C43.8428 37.1571 40.0044 39.5082 40.1393 36.1871C40.1393 36.1871 40.2663 34.3487 40.8999 32.6365C40.8999 32.6365 42.6669 28.142 45.4068 25.5217C45.6584 25.2678 45.8764 25.2432 46.0167 25.4337C46.3983 25.9569 46.4644 26.5542 46.7548 27.0416C46.8311 27.1702 46.9151 27.3043 47.0055 27.4329C46.6791 29.1183 45.8365 32.315 45.6953 34.7324C45.5911 35.0651 45.3512 35.3773 45.1566 35.6886ZM55.2706 33.6134C55.2706 33.6134 55.2529 33.5037 55.1562 33.4151C54.9027 33.2402 53.6592 33.8021 52.425 34.5455C52.2286 34.663 52.0508 34.7655 51.8862 34.858C51.4322 35.1384 50.995 35.42 50.8193 35.5723C50.8193 35.5723 50.0247 36.2058 50.1118 34.7823C50.113 34.7625 50.1136 34.7454 50.1154 34.7258H50.1136C50.1286 34.4082 50.189 34.0061 50.2085 33.5755C50.2085 33.5755 51.298 29.2226 51.7688 28.0047C51.7688 28.0047 52.0274 26.8571 52.4334 25.5497C52.4334 25.5497 54.2877 23.6193 50.8814 22.9937C50.8814 22.9937 49.2508 18.9884 47.4992 25.2985L47.4983 25.2964C47.3755 24.6461 46.7821 23.6467 45.8647 23.2515C45.6824 23.146 45.423 23.0691 45.0623 23.0379C44.9266 23.0252 44.8359 23.0619 44.5353 23.0216C44.5353 23.0216 42.9035 22.4585 41.1528 24.6473C39.2927 26.6958 33.8655 33.2074 35.1045 38.6605C35.1045 38.6605 35.7751 41.4821 38.2819 41.4671C38.2819 41.4671 41.5966 41.5049 44.1023 39.128C44.1023 39.128 44.8539 38.4646 45.6584 37.4807C45.6887 37.8149 45.7422 38.1839 45.838 38.5469C45.8539 38.6187 45.8704 38.6893 45.8893 38.7572C45.8893 38.7572 45.9827 39.3907 46.4992 39.8673C46.88 40.2194 47.4929 40.4872 48.4701 40.3547C48.5683 40.3339 48.6701 40.3102 48.7758 40.2771C48.7758 40.2771 52.2841 39.4285 52.1982 37.936C52.155 37.1989 52.4217 37.0516 52.4217 37.0516C52.4217 37.0516 52.6454 36.9284 52.5655 36.6694C52.5655 36.6694 55.3646 34.7973 55.2706 33.6134ZM115.921 22.2518C117.486 23.345 120.106 25.7663 119.674 28.2911C119.674 28.2911 118.919 33.9824 109.509 33.7886C109.509 33.7886 108.483 33.7327 108.463 33.0981C108.466 32.6293 108.659 32.2552 109.468 31.946C109.468 31.946 115.587 29.966 111.579 22.6088C111.579 22.6088 110.066 23.7807 107.942 25.4289C107.942 25.4289 106.459 27.0648 106.567 24.7411C106.567 24.7411 106.696 23.4568 107.248 22.9621C107.248 22.9621 110.66 20.947 111.792 17.7982C112.36 15.7188 115.401 13.9615 115.696 15.7113C115.829 16.4995 114.924 16.9935 114.477 17.5527C113.459 18.8292 114.766 21.5219 115.921 22.2518ZM129.566 17.9902C131.207 15.8188 132.356 16.7999 132.356 16.7999C132.512 16.8868 132.839 16.7819 132.975 16.772C135.154 16.6067 133.366 18.7495 133.366 18.7495C131.53 21.2463 129.866 25.9139 129.866 25.9139C129.446 26.9713 129.042 28.6715 129.042 28.6715C128.377 31.5039 131.36 29.4997 131.36 29.4997C131.787 29.1977 132.178 28.768 132.379 28.5793C132.72 28.2556 133.015 28.2187 133.015 28.2187C133.639 28.1306 132.579 24.8868 132.579 24.8868C132.127 23.6034 132.206 23.5457 132.206 23.5457C131.915 21.9711 132.792 21.5664 132.792 21.5664C133.723 20.9972 134.475 22.4883 134.475 22.4883C135.308 23.7587 136.049 27.1029 136.049 27.1029C136.759 30.067 134.539 29.8356 134.539 29.8356C133.619 30.0168 132.045 31.5827 132.045 31.5827C129.596 33.6104 126.18 33.8084 126.18 33.8084C122.789 33.9274 123.059 30.9396 123.059 30.9396C123.034 27.7048 129.566 17.9902 129.566 17.9902ZM90.4944 10.355C90.3995 11.2411 89.9253 11.9806 89.2842 12.3725C88.3635 13.0651 86.459 14.2518 85.8467 14.0919C85.2266 13.9302 85.9266 11.965 85.9605 11.4139C85.9977 10.7916 85.9956 10.3369 86.1221 9.76361C86.3212 8.42251 87.3929 7.45312 88.5686 7.57722C89.7827 7.70734 90.6442 8.94957 90.4944 10.355ZM98.706 19.0909C98.706 19.0909 104.243 24.9923 104.016 29.0823C104.016 29.0823 103.261 34.7724 93.8517 34.5774C93.8517 34.5774 91.5235 34.23 93.8108 32.7369C93.8108 32.7369 99.9285 30.7566 95.9216 23.3985C95.9216 23.3985 92.1331 27.8479 89.6259 30.311L89.6436 30.3311C82.4741 37.3314 81.0618 34.7616 81.0618 34.7616C78.3327 30.8522 80.3324 22.2993 80.3324 22.2993C81.3921 17.7714 83.7326 19.3737 83.7326 19.3737C87.1524 19.9293 85.8713 22.887 85.8713 22.887C85.438 25.1605 84.8833 24.9093 84.8833 24.9093C83.8281 25.7636 83.6056 29.5078 83.6056 29.5078C84.0299 31.5737 82.1948 34.4449 87.501 29.8356C88.7623 28.5699 95.1207 21.4068 96.1327 18.5882C96.1327 18.5882 97.1928 15.842 98.706 19.0909ZM63.2963 33.291C63.2963 33.291 62.5912 32.8225 62.6365 30.7088C62.6365 30.7088 62.8335 27.038 65.3257 24.0983C65.3257 24.0983 66.0194 23.2182 66.5854 23.11C66.7746 23.0739 67.0803 23.351 67.2232 24.473C67.2581 24.7486 66.4656 24.8063 66.7545 25.684C66.7545 25.684 68.0806 29.0408 70.8733 27.5266C70.7562 28.2151 70.6322 28.9083 70.4998 29.6057C69.0442 31.6262 65.9848 35.1225 63.2963 33.291ZM75.1745 1.81708C75.1745 1.81708 72.1163 -2.04245 72.6334 2.40755C72.6334 2.40755 73.0502 11.6895 71.5196 23.2401C71.3457 22.7921 71.1088 22.332 70.7851 21.881C70.7851 21.881 68.1193 18.3246 65.1293 19.31C65.1293 19.31 61.3149 20.5116 59.1056 26.2739C59.1056 26.2739 57.5468 30.2554 57.9901 33.2549C57.9901 33.2549 57.8426 41.1317 67.4241 35.5654C67.4241 35.5654 68.4379 34.9485 69.6268 33.7405C69.3968 34.7246 69.022 35.3692 68.9839 36.3809C68.9839 36.3809 68.6415 38.4604 69.592 38.9829C69.955 39.1839 70.3454 38.9072 71.1896 36.8846C71.1896 36.8846 78.0021 19.3962 78.366 12.1766C78.366 12.1766 80.7597 8.59259 75.1745 1.81708Z" fill="white"/>
<path fill-rule="evenodd" clip-rule="evenodd" d="M139.227 39.2425C141.105 39.3579 143.218 39.3838 146.144 39.6674C147.664 39.8144 150.01 39.8144 150.343 40.8015C150.647 41.7078 149.502 42.6381 147.458 43.035C146.421 43.2361 145.769 43.4061 144.834 43.3734C143.729 43.3346 141.362 43.4212 141.294 42.1447C141.243 41.3478 139.697 41.3547 138.665 41.3138C136.598 41.2324 136.81 40.6473 137.26 39.943C137.529 39.5109 138.094 39.2317 139.227 39.2425Z" fill="white"/>
<path fill-rule="evenodd" clip-rule="evenodd" d="M202.703 7.94893C202.703 7.35065 202.214 6.86084 201.615 6.86115L167.549 6.86746C166.951 6.86746 166.462 7.35726 166.462 7.95584L166.468 42.044C166.468 42.6429 166.957 43.1327 167.556 43.1327L201.622 43.1258C202.22 43.1258 202.709 42.6363 202.709 42.0383L202.703 7.94893Z" fill="#292D71"/>
<path fill-rule="evenodd" clip-rule="evenodd" d="M197.826 30.0039C197.283 28.7163 197.132 27.0681 197.041 25.7249C195.76 28.5721 193.844 32.9586 191.671 32.6206C190.375 32.4193 190.283 30.1701 190.589 27.9948C189.73 29.8437 188.91 31.7606 187.92 32.9178C187.92 32.9178 187.846 33.0133 187.688 33.1954C187.446 33.4881 186.846 34.1525 186.292 34.2907C186.252 34.3018 186.187 34.3148 186.123 34.3208C185.957 34.3424 185.781 34.3346 185.598 34.2895C185.16 34.1516 184.753 33.7186 184.398 32.8997C184.333 32.7525 184.281 32.5987 184.235 32.4412C184.188 32.2224 184.152 32.0097 184.126 31.8026C183.749 32.4274 183.31 33.0022 182.826 33.4758C181.246 35.023 179.541 35.9753 177.529 36.5483C175.711 37.0667 173.484 37.4973 171.689 36.6108C169.868 35.7106 169.549 33.5945 170.358 31.8026C170.658 31.138 170.84 31.534 170.719 32.2988C170.675 32.5794 170.629 32.8484 170.62 33.1326C170.474 37.7392 177.607 35.5474 179.572 34.4133C181.031 33.5704 181.61 32.9385 182.326 32.2155C183.293 31.2353 183.986 29.5444 184.154 28.1054C184.557 24.6575 180.266 24.684 178.243 24.7696C178.174 24.7726 178.11 24.7606 178.051 24.7417C177.821 25.3685 177.579 25.9902 177.329 26.6056C176.84 27.807 176.394 28.8148 175.914 30.0192C175.512 31.0253 174.878 32.3246 174.265 33.1855C173.893 33.7069 173.602 33.5317 173.628 32.9148C173.674 31.8264 174.26 30.6253 174.665 29.6505C175.127 28.5393 175.608 27.4383 176.072 26.3283C176.991 24.138 177.879 21.9086 178.408 19.5537C178.564 18.8631 179.522 18.9707 179.41 19.7078C179.283 20.5474 179.099 21.3698 178.877 22.18C179.53 21.292 180.196 20.4152 180.757 19.4452C181.321 18.4701 182.551 15.8423 181.021 15.0415C179.772 14.3882 178.085 15.4399 177.123 16.2161C176.059 17.0731 174.88 18.1876 174.003 19.5945C173.589 20.1051 173.324 19.8106 173.525 19.4064C174.307 17.8342 175.76 16.3035 177.076 15.314C178.304 14.3918 180.285 13.1562 181.748 14.1977C183.41 15.3822 182.773 17.8433 181.98 19.4013C181.221 20.89 180.233 22.1695 179.308 23.5118C181.287 23.5 183.69 23.7786 184.804 25.6269C184.923 25.8252 185.023 26.029 185.104 26.2375C185.597 24.9078 186.135 23.8029 186.525 22.9459C188.004 19.6925 188.784 18.2856 190.707 15.4796C190.974 15.0896 191.376 15.5274 191.144 15.9336C188.439 20.6589 186.663 24.275 185.551 28.7103C185.461 29.0805 185.385 29.4459 185.357 29.6505C185.359 29.6526 185.348 29.6833 185.351 29.6854C185.242 30.4991 185.187 31.6124 185.553 32.2918C185.628 32.4322 185.711 32.5307 185.798 32.5987C185.8 32.5993 185.803 32.6035 185.803 32.6035C186.281 32.9647 186.881 32.315 187.187 31.9021C187.978 30.909 188.668 29.78 189.27 28.5678C190.257 26.5813 191.284 24.455 191.917 22.2031C192.113 21.5 192.95 21.6499 192.912 22.457C192.849 23.7579 192.498 25.0067 192.255 26.2559C192.086 27.1195 191.003 32.3081 192.696 30.6977C194.549 28.9362 195.754 26.12 196.979 23.6091C197.2 23.156 197.802 23.2356 197.876 23.8282C198.11 25.7495 198.138 27.5215 198.749 29.3491C199.027 30.1803 198.165 30.8086 197.826 30.0039Z" fill="#555494"/>
<path fill-rule="evenodd" clip-rule="evenodd" d="M199.787 21.9302V28.1288C199.787 30.07 198.61 30.4591 196.711 30.4591H193.041C191.144 30.4591 189.968 30.07 189.968 28.1288V21.9302H191.525V28.1177C191.525 28.7102 191.629 29.0994 193.009 29.0994H196.745C198.126 29.0994 198.23 28.7102 198.23 28.1177V21.9302H199.787ZM182.443 29.0098H188.617V30.3708H180.884V21.9302H182.443V29.0098ZM170.9 26.7096C171.34 26.7096 176.186 26.7096 176.186 26.7096C177.208 26.7096 177.474 26.895 177.474 27.6132V28.185C177.474 28.6943 177.286 29.0098 176.351 29.0098C176.351 29.0098 171.341 29.0098 170.9 29.0098C170.9 28.6465 170.9 27.0723 170.9 26.7096ZM177.165 24.6115C177.165 24.9544 177.058 25.3492 176.219 25.3492C176.219 25.3492 171.34 25.3492 170.9 25.3492C170.9 24.9959 170.9 23.6433 170.9 23.2894C171.341 23.2894 176.275 23.2894 176.275 23.2894C176.423 23.2894 177.165 23.3182 177.165 23.8858V24.6115ZM178.028 25.8436C178.462 25.5863 178.723 25.1735 178.723 24.6223V23.9408C178.723 23.1899 178.417 21.9302 176.373 21.9302H169.343V30.3708H176.484C178.031 30.3708 179.031 29.6117 179.031 28.4383V27.4924C179.031 26.6489 178.692 26.1005 178.028 25.8436Z" fill="#FFFFFE"/>
</g>
<defs>
<clipPath id="clip0_221_1867">
<rect width="203" height="61" fill="white"/>
</clipPath>
</defs>
</svg>
