<svg width="269" height="81" viewBox="0 0 269 81" fill="none" xmlns="http://www.w3.org/2000/svg">
<g clip-path="url(#clip0_182_888)">
<path fill-rule="evenodd" clip-rule="evenodd" d="M30.4869 69.8372C30.8411 69.4038 31.1746 68.7415 32.9772 68.3018C32.9772 68.3018 94.1767 47.4572 175.593 51.6269C175.593 51.6269 180.216 51.4562 178.961 53.4827C178.225 54.6718 176.851 54.7472 174.241 54.8821C174.241 54.8821 173.355 55.0194 169.891 54.9822C169.891 54.9822 178.217 58.223 145.352 57.5495C145.352 57.5495 148.253 60.5178 136.168 59.6619C136.168 59.6619 102.462 58.1241 34.3397 70.5067C34.3397 70.5067 28.9824 71.6678 30.4869 69.8372Z" fill="#292D71"/>
<path fill-rule="evenodd" clip-rule="evenodd" d="M210.72 41.9269C210.72 41.9269 220.249 49.805 208.426 49.4048C208.426 49.4048 206.127 49.5788 204.718 44.8325C204.718 44.8325 200.656 35.5247 200.951 32.0066C200.549 32.4575 198.3 35.1767 197.012 38.1813C196.268 39.9182 195.964 40.5219 194.899 42.1846C194.313 43.0182 193.755 43.7699 193.232 44.2535C188.011 49.1063 187.504 42.9072 187.504 42.9072C186.425 37.6227 189.13 29.1432 189.13 29.1432C191.094 23.2901 193.982 25.7009 193.982 25.7009C197.984 26.7468 196.364 30.6148 196.364 30.6148C195.51 33.5655 194.743 32.9251 194.743 32.9251C193.755 33.5799 193.485 34.9936 193.415 35.887C193.415 35.887 193.041 39.1621 194.503 36.6531C195.602 34.4118 197.731 30.6802 199.279 29.4892C199.279 29.4892 201.559 27.056 202.892 29.0602C202.892 29.0602 208.639 40.6412 210.72 41.9269ZM47.7579 66.8936C50.1972 70.3056 52.0634 72.7145 51.5517 73.1625C49.8923 74.6114 42.4224 68.7578 42.4224 68.7578C29.4273 57.9521 23.6839 44.1809 22.4265 40.8356C22.2419 40.3468 22.6091 39.9091 22.6091 39.9091C23.0536 39.4163 23.7592 39.1413 25.6433 38.9283C25.637 38.9271 25.6501 38.9295 25.6433 38.9283C24.6557 38.4519 24.3469 38.327 24.4332 37.9954C24.6223 37.4563 26.4428 37.4707 26.4428 37.4707C27.8789 37.4052 28.9223 37.3151 28.9223 37.3151C31.0293 37.0912 32.0986 36.8949 32.0986 36.8949C36.5836 36.1763 38.3409 34.2231 38.3409 34.2231C42.7766 29.7162 35.6513 25.1994 35.6513 25.1994C17.5917 14.7935 3.04934 19.7273 3.04934 19.7273C2.25985 19.9543 1.6546 19.9583 0.7891 19.675C-1.10584 19.0414 2.26223 16.352 2.26223 16.352C11.2196 8.91279 15.9192 11.1409 15.9192 11.1409C33.3194 12.2996 40.9767 21.4215 40.9767 21.4215C47.0404 27.8548 45.4682 32.9842 44.6536 34.4765C41.6874 39.919 34.6572 40.0551 34.6572 40.0551C33.5621 40.1169 32.6031 40.1461 31.7551 40.1489C32.5633 41.0722 33.1547 42.6854 33.1547 42.6854C34.504 46.9285 47.7579 66.8936 47.7579 66.8936ZM24.3775 23.1907C25.3541 24.9779 24.0508 27.8161 24.0508 27.8161C18.4118 39.38 11.3621 66.6889 9.95301 72.2572L9.98285 72.2504C9.98285 72.2504 9.94704 72.3366 9.89451 72.4926C9.76757 72.9918 9.70072 73.2627 9.70072 73.2627C9.60721 73.6749 9.50932 74.0424 9.41023 74.3883C9.25464 75.2442 9.13566 76.3211 9.16431 77.5525L9.14561 77.5469C9.19177 79.0253 9.1277 80.5407 8.68401 80.7442C7.41581 81.3256 6.76122 79.6238 6.41184 77.7716C5.1691 77.4811 4.14921 75.8667 4.14921 75.8667C-0.422594 72.7962 2.99562 64.2617 2.99562 64.2617C6.09946 51.899 21.4858 25.8318 21.4858 25.8318C23.2896 22.9166 24.0373 22.5699 24.3775 23.1907ZM59.8382 47.3898C59.4542 48.0083 59.0881 48.7045 58.0972 49.3398C58.0972 49.3398 53.0109 52.4617 53.1896 48.0518C53.1896 48.0518 53.3579 45.6106 54.1975 43.337C54.1975 43.337 56.539 37.3689 60.1697 33.8895C60.5031 33.5523 60.792 33.5196 60.9779 33.7726C61.4836 34.4673 61.5712 35.2605 61.956 35.9077C62.057 36.0785 62.1685 36.2565 62.2882 36.4273C61.8557 38.6653 60.7391 42.91 60.5521 46.1201C60.414 46.5618 60.096 46.9764 59.8382 47.3898ZM73.2404 44.6342C73.2404 44.6342 73.217 44.4885 73.0888 44.3708C72.753 44.1386 71.1051 44.8848 69.4697 45.8719C69.2094 46.0279 68.9738 46.164 68.7558 46.2869C68.1541 46.6592 67.5747 47.0331 67.3419 47.2354C67.3419 47.2354 66.289 48.0765 66.4044 46.1864C66.406 46.16 66.4068 46.1373 66.4092 46.1113H66.4068C66.4267 45.6896 66.5067 45.1557 66.5325 44.5839C66.5325 44.5839 67.9762 38.8038 68.6002 37.1866C68.6002 37.1866 68.9428 35.6627 69.4808 33.9266C69.4808 33.9266 71.938 31.3634 67.4243 30.5326C67.4243 30.5326 65.2635 25.2141 62.9424 33.5931L62.9412 33.5903C62.7785 32.7268 61.9922 31.3997 60.7765 30.875C60.535 30.7349 60.1911 30.6328 59.7132 30.5913C59.5334 30.5745 59.4132 30.6232 59.0149 30.5697C59.0149 30.5697 56.8525 29.822 54.5326 32.7284C52.0678 35.4485 44.8761 44.0951 46.5179 51.336C46.5179 51.336 47.4065 55.0828 50.7284 55.0628C50.7284 55.0628 55.1207 55.1131 58.4411 51.9569C58.4411 51.9569 59.4371 51.0759 60.5031 49.7695C60.5433 50.2132 60.6141 50.7032 60.7411 51.1852C60.7622 51.2806 60.7841 51.3743 60.8091 51.4645C60.8091 51.4645 60.9329 52.3056 61.6173 52.9385C62.1219 53.4061 62.9341 53.7617 64.2289 53.5857C64.3591 53.5582 64.4939 53.5266 64.634 53.4827C64.634 53.4827 69.283 52.3559 69.1692 50.374C69.1119 49.3952 69.4653 49.1997 69.4653 49.1997C69.4653 49.1997 69.7617 49.0361 69.6559 48.6922C69.6559 48.6922 73.365 46.2063 73.2404 44.6342ZM153.61 29.5474C155.683 30.9991 159.156 34.2143 158.583 37.5668C158.583 37.5668 157.582 45.1242 145.112 44.8668C145.112 44.8668 143.754 44.7926 143.728 43.9499C143.731 43.3274 143.987 42.8306 145.059 42.4201C145.059 42.4201 153.168 39.7909 147.856 30.0215C147.856 30.0215 145.851 31.5776 143.037 33.7662C143.037 33.7662 141.071 35.9385 141.214 32.8529C141.214 32.8529 141.386 31.1475 142.116 30.4907C142.116 30.4907 146.638 27.8149 148.138 23.6336C148.89 20.8725 152.921 18.539 153.312 20.8625C153.488 21.9091 152.288 22.5651 151.696 23.3076C150.347 25.0027 152.079 28.5782 153.61 29.5474ZM171.691 23.8886C173.865 21.0053 175.388 22.3081 175.388 22.3081C175.595 22.4234 176.029 22.2842 176.209 22.271C179.096 22.0515 176.726 24.8969 176.726 24.8969C174.293 28.2123 172.088 34.4102 172.088 34.4102C171.532 35.8144 170.996 38.072 170.996 38.072C170.115 41.8331 174.069 39.1717 174.069 39.1717C174.634 38.7707 175.152 38.2001 175.419 37.9495C175.871 37.5198 176.262 37.4707 176.262 37.4707C177.088 37.3538 175.684 33.0464 175.684 33.0464C175.085 31.3422 175.189 31.2656 175.189 31.2656C174.804 29.1748 175.965 28.6373 175.965 28.6373C177.2 27.8816 178.195 29.8615 178.195 29.8615C179.3 31.5485 180.281 35.9891 180.281 35.9891C181.223 39.925 178.281 39.6178 178.281 39.6178C177.062 39.8584 174.977 41.9376 174.977 41.9376C171.73 44.6302 167.204 44.8932 167.204 44.8932C162.711 45.0512 163.069 41.0838 163.069 41.0838C163.035 36.7884 171.691 23.8886 171.691 23.8886ZM119.916 13.75C119.791 14.9267 119.162 15.9087 118.313 16.429C117.093 17.3488 114.569 18.9245 113.758 18.7122C112.936 18.4975 113.863 15.888 113.908 15.1562C113.958 14.3298 113.955 13.7261 114.122 12.9648C114.386 11.184 115.806 9.89676 117.364 10.0616C118.973 10.2343 120.115 11.8839 119.916 13.75ZM130.798 25.3502C130.798 25.3502 138.135 33.1865 137.834 38.6174C137.834 38.6174 136.834 46.1732 124.365 45.9142C124.365 45.9142 121.28 45.453 124.311 43.4703C124.311 43.4703 132.418 40.8408 127.108 31.0701C127.108 31.0701 122.088 36.9783 118.766 40.249L118.789 40.2757C109.288 49.5712 107.417 46.1588 107.417 46.1588C103.801 40.9676 106.45 29.6105 106.45 29.6105C107.855 23.5981 110.956 25.7257 110.956 25.7257C115.488 26.4635 113.79 30.391 113.79 30.391C113.216 33.4099 112.481 33.0763 112.481 33.0763C111.083 34.2107 110.788 39.1824 110.788 39.1824C111.35 41.9257 108.918 45.7383 115.95 39.6178C117.621 37.9371 126.047 28.4254 127.388 24.6827C127.388 24.6827 128.793 21.0361 130.798 25.3502ZM83.8755 44.206C83.8755 44.206 82.9411 43.584 83.0012 40.7773C83.0012 40.7773 83.2623 35.9029 86.5647 31.9994C86.5647 31.9994 87.4839 30.8307 88.234 30.687C88.4847 30.6391 88.8898 31.007 89.0792 32.497C89.1254 32.8629 88.0752 32.9395 88.458 34.105C88.458 34.105 90.2153 38.5624 93.916 36.5517C93.7608 37.4659 93.5965 38.3864 93.421 39.3125C91.4922 41.9955 87.4381 46.638 83.8755 44.206ZM99.6156 2.41284C99.6156 2.41284 95.5631 -2.7121 96.2483 3.19691C96.2483 3.19691 96.8006 15.5221 94.7724 30.8598C94.542 30.2649 94.228 29.654 93.799 29.0551C93.799 29.0551 90.2666 24.3327 86.3044 25.6411C86.3044 25.6411 81.2499 27.2367 78.3224 34.8883C78.3224 34.8883 76.2567 40.1752 76.8441 44.1582C76.8441 44.1582 76.6487 54.6175 89.3454 47.2262C89.3454 47.2262 90.6888 46.407 92.2642 44.803C91.9594 46.1097 91.4628 46.9656 91.4123 48.3091C91.4123 48.3091 90.9586 51.0703 92.2181 51.7642C92.6992 52.0311 93.2165 51.6636 94.335 48.9779C94.335 48.9779 103.362 25.7556 103.845 16.1689C103.845 16.1689 107.017 11.4098 99.6156 2.41284Z" fill="#181916"/>
<path fill-rule="evenodd" clip-rule="evenodd" d="M184.494 52.1089C186.982 52.2622 189.781 52.2965 193.66 52.6731C195.674 52.8683 198.782 52.8683 199.223 54.179C199.626 55.3825 198.109 56.6178 195.4 57.1449C194.027 57.4118 193.162 57.6377 191.923 57.5942C190.458 57.5427 187.322 57.6576 187.233 55.9626C187.165 54.9044 185.116 54.9136 183.748 54.8594C181.01 54.7512 181.29 53.9743 181.887 53.039C182.243 52.4653 182.992 52.0946 184.494 52.1089Z" fill="#292D71"/>
<path fill-rule="evenodd" clip-rule="evenodd" d="M268.606 10.5552C268.606 9.76071 267.958 9.11032 267.166 9.11072L222.023 9.1191C221.231 9.1191 220.583 9.76949 220.583 10.5643L220.591 55.829C220.591 56.6242 221.239 57.2746 222.032 57.2746L267.174 57.2654C267.967 57.2654 268.615 56.6154 268.615 55.8214L268.606 10.5552Z" fill="#292D71"/>
<path fill-rule="evenodd" clip-rule="evenodd" d="M262.144 39.8412C261.425 38.1315 261.224 35.9429 261.104 34.1593C259.407 37.9399 256.867 43.7647 253.988 43.3158C252.271 43.0485 252.148 40.0619 252.554 37.1734C251.416 39.6286 250.33 42.1739 249.017 43.7105C249.017 43.7105 248.919 43.8374 248.71 44.0792C248.389 44.4678 247.594 45.35 246.86 45.5336C246.807 45.5483 246.72 45.5655 246.636 45.5735C246.416 45.6022 246.184 45.5918 245.94 45.532C245.361 45.3488 244.821 44.7738 244.351 43.6865C244.264 43.491 244.195 43.2867 244.135 43.0776C244.072 42.7872 244.024 42.5047 243.99 42.2297C243.49 43.0593 242.908 43.8226 242.267 44.4514C240.174 46.506 237.914 47.7704 235.248 48.5314C232.839 49.2197 229.888 49.7915 227.509 48.6144C225.097 47.4189 224.674 44.6091 225.746 42.2297C226.143 41.3471 226.384 41.873 226.224 42.8885C226.166 43.2612 226.105 43.6183 226.093 43.9958C225.9 50.1127 235.352 47.2023 237.956 45.6964C239.888 44.5771 240.656 43.738 241.604 42.778C242.887 41.4764 243.805 39.2311 244.027 37.3203C244.562 32.742 238.875 32.7771 236.194 32.8908C236.102 32.8948 236.018 32.8788 235.94 32.8537C235.635 33.686 235.315 34.5116 234.983 35.3288C234.335 36.924 233.744 38.2623 233.108 39.8616C232.575 41.1975 231.736 42.9228 230.923 44.066C230.43 44.7583 230.044 44.5257 230.079 43.7065C230.139 42.2613 230.916 40.6664 231.453 39.372C232.065 37.8964 232.703 36.4344 233.318 34.9605C234.536 32.0521 235.712 29.0918 236.413 25.9647C236.619 25.0478 237.889 25.1906 237.741 26.1694C237.572 27.2842 237.328 28.3763 237.034 29.4521C237.899 28.273 238.782 27.1087 239.526 25.8206C240.272 24.5258 241.902 21.0365 239.875 19.9731C238.22 19.1056 235.985 20.5022 234.71 21.5328C233.301 22.6708 231.738 24.1508 230.576 26.019C230.027 26.6969 229.675 26.3059 229.943 25.7692C230.979 23.6815 232.904 21.649 234.648 20.335C236.276 19.1104 238.899 17.4697 240.838 18.8527C243.041 20.4256 242.198 23.6935 241.147 25.7624C240.141 27.7391 238.832 29.4381 237.605 31.2205C240.228 31.205 243.413 31.5748 244.888 34.0292C245.046 34.2925 245.178 34.5631 245.286 34.84C245.939 33.0743 246.652 31.6072 247.169 30.4692C249.129 26.149 250.163 24.2809 252.71 20.5549C253.065 20.0369 253.597 20.6183 253.29 21.1578C249.705 27.4323 247.352 32.234 245.879 38.1235C245.759 38.6151 245.658 39.1003 245.622 39.372C245.623 39.3748 245.61 39.4155 245.613 39.4183C245.468 40.4988 245.396 41.9772 245.88 42.8793C245.981 43.0657 246.09 43.1965 246.205 43.2867C246.208 43.2875 246.212 43.2931 246.212 43.2931C246.845 43.7727 247.64 42.9101 248.045 42.3618C249.094 41.0431 250.008 39.544 250.806 37.9343C252.115 35.2964 253.475 32.473 254.314 29.4828C254.573 28.5491 255.683 28.7482 255.632 29.82C255.55 31.5473 255.084 33.2056 254.762 34.8643C254.538 36.0111 253.102 42.9009 255.347 40.7626C257.801 38.4235 259.399 34.684 261.021 31.3498C261.314 30.7481 262.113 30.8538 262.211 31.6407C262.52 34.192 262.558 36.545 263.367 38.9718C263.735 40.0754 262.593 40.9098 262.144 39.8412Z" fill="#555494"/>
<path fill-rule="evenodd" clip-rule="evenodd" d="M264.742 29.1205V37.3514C264.742 39.929 263.183 40.4457 260.667 40.4457H255.803C253.289 40.4457 251.731 39.929 251.731 37.3514V29.1205H253.794V37.3366C253.794 38.1235 253.932 38.6402 255.761 38.6402H260.712C262.542 38.6402 262.679 38.1235 262.679 37.3366V29.1205H264.742ZM241.759 38.5213H249.941V40.3284H239.693V29.1205H241.759V38.5213ZM226.464 35.4668C227.047 35.4668 233.469 35.4668 233.469 35.4668C234.823 35.4668 235.175 35.713 235.175 36.6666V37.426C235.175 38.1023 234.926 38.5213 233.687 38.5213C233.687 38.5213 227.048 38.5213 226.464 38.5213C226.464 38.0389 226.464 35.9484 226.464 35.4668ZM234.766 32.6809C234.766 33.1362 234.623 33.6605 233.512 33.6605C233.512 33.6605 227.047 33.6605 226.464 33.6605C226.464 33.1912 226.464 31.3953 226.464 30.9252C227.048 30.9252 233.586 30.9252 233.586 30.9252C233.783 30.9252 234.766 30.9635 234.766 31.7173V32.6809ZM235.909 34.3169C236.484 33.9753 236.83 33.427 236.83 32.6953V31.7903C236.83 30.7932 236.425 29.1205 233.716 29.1205H224.4V40.3284H233.862C235.913 40.3284 237.238 39.3205 237.238 37.7623V36.5062C237.238 35.3862 236.789 34.658 235.909 34.3169Z" fill="#FFFFFE"/>
</g>
<defs>
<clipPath id="clip0_182_888">
<rect width="269" height="81" fill="white"/>
</clipPath>
</defs>
</svg>
