<svg width="18" height="18" viewBox="0 0 18 18" fill="none" xmlns="http://www.w3.org/2000/svg">
<path d="M0 3.75C0 2.75544 0.395088 1.80161 1.09835 1.09835C1.80161 0.395088 2.75544 0 3.75 0H14.25C15.2446 0 16.1984 0.395088 16.9016 1.09835C17.6049 1.80161 18 2.75544 18 3.75V14.25C18 15.2446 17.6049 16.1984 16.9016 16.9016C16.1984 17.6049 15.2446 18 14.25 18H3.75C2.75544 18 1.80161 17.6049 1.09835 16.9016C0.395088 16.1984 0 15.2446 0 14.25V3.75ZM5.25 8.25C5.05109 8.25 4.86032 8.32902 4.71967 8.46967C4.57902 8.61032 4.5 8.80109 4.5 9C4.5 9.19891 4.57902 9.38968 4.71967 9.53033C4.86032 9.67098 5.05109 9.75 5.25 9.75H12.75C12.9489 9.75 13.1397 9.67098 13.2803 9.53033C13.421 9.38968 13.5 9.19891 13.5 9C13.5 8.80109 13.421 8.61032 13.2803 8.46967C13.1397 8.32902 12.9489 8.25 12.75 8.25H5.25Z" fill="#179ED5"/>
</svg>
