<svg width="315" height="255" viewBox="0 0 315 255" fill="none" xmlns="http://www.w3.org/2000/svg">
<g clip-path="url(#clip0_190_3674)">
<path d="M314.738 212.841H0V212.998H314.738V212.841Z" fill="#F5F5F5"/>
<path d="M283.202 222.974H262.352V223.131H283.202V222.974Z" fill="#F5F5F5"/>
<path d="M208.495 224.682H203.023V224.84H208.495V224.682Z" fill="#F5F5F5"/>
<path d="M261.722 217.128H249.641V217.285H261.722V217.128Z" fill="#F5F5F5"/>
<path d="M60.2105 218.186H33.0216V218.343H60.2105V218.186Z" fill="#F5F5F5"/>
<path d="M69.8019 218.186H65.8154V218.343H69.8019V218.186Z" fill="#F5F5F5"/>
<path d="M141.725 220.844H82.7578V221.001H141.725V220.844Z" fill="#F5F5F5"/>
<path d="M149.195 184.765H27.6435C25.6625 184.765 24.0504 183.153 24.0504 181.172V10.2968C24.0504 8.31563 25.6625 6.7034 27.6435 6.7034H149.195C151.175 6.7034 152.787 8.31563 152.787 10.2968V181.172C152.787 183.153 151.175 184.765 149.195 184.765ZM27.6435 6.86141C25.7487 6.86141 24.2078 8.4025 24.2078 10.2974V181.172C24.2078 183.067 25.7487 184.608 27.6435 184.608H149.195C151.089 184.608 152.63 183.067 152.63 181.172V10.2968C152.63 8.4025 151.089 6.86078 149.195 6.86078L27.6435 6.86141Z" fill="#F5F5F5"/>
<path d="M285.348 184.765H163.797C161.816 184.765 160.205 183.153 160.205 181.172V10.2968C160.205 8.31563 161.817 6.7034 163.797 6.7034H285.348C287.329 6.7034 288.941 8.31563 288.941 10.2968V181.172C288.941 183.153 287.329 184.765 285.348 184.765ZM163.797 6.86141C161.903 6.86141 160.362 8.4025 160.362 10.2974V181.172C160.362 183.067 161.903 184.608 163.797 184.608H285.348C287.242 184.608 288.783 183.067 288.783 181.172V10.2968C288.783 8.4025 287.242 6.86078 285.348 6.86078L163.797 6.86141Z" fill="#F5F5F5"/>
<path d="M159.389 71.4589C158.397 66.6732 156.501 62.2236 153.907 58.2721L158.629 52.5685L148.535 42.4734L142.832 47.1949C138.881 44.6024 134.432 42.705 129.647 41.7135L128.955 34.3625H114.68L113.987 41.7135C109.203 42.7057 104.753 44.6024 100.802 47.1949L95.0992 42.4734L85.005 52.5685L89.726 58.2721C87.1332 62.223 85.2366 66.6725 84.2445 71.4582L76.8942 72.1514V86.4266L84.2445 87.1197C85.2372 91.9048 87.1332 96.3537 89.726 100.305L85.005 106.009L95.0992 116.104L100.802 111.382C104.753 113.976 109.203 115.872 113.987 116.864L114.68 124.216H128.955L129.647 116.866C134.432 115.874 138.881 113.977 142.832 111.382L148.535 116.105L158.629 106.009L153.907 100.307C156.501 96.3543 158.397 91.9054 159.389 87.1203L166.739 86.4272V72.152L159.389 71.4589ZM141.141 79.2896C141.141 89.9627 132.489 98.6162 121.816 98.6162C111.143 98.6162 102.491 89.9633 102.491 79.2896C102.491 68.6159 111.143 59.963 121.816 59.963C132.489 59.963 141.141 68.6159 141.141 79.2896Z" fill="#F5F5F5"/>
<path d="M200.331 139.975L200.828 145.257H211.085L211.581 139.976C215.02 139.263 218.216 137.9 221.055 136.036L225.153 139.429L232.406 132.175L229.014 128.078C230.878 125.238 232.239 122.041 232.953 118.603L238.233 118.106V107.849L232.953 107.351C232.24 103.912 230.878 100.715 229.014 97.8772L232.406 93.7789L225.153 86.5248L221.055 89.9174C218.216 88.0552 215.02 86.6917 211.581 85.9784L211.085 80.6985L200.828 80.6973L200.331 85.979C196.892 86.6929 193.696 88.0558 190.856 89.918L186.759 86.5255L179.506 93.7795L182.899 97.8778C181.035 100.717 179.673 103.913 178.96 107.352L173.679 107.85V118.107L178.96 118.604C179.672 122.042 181.035 125.24 182.898 128.079L179.506 132.177L186.758 139.431L190.856 136.037C193.696 137.9 196.892 139.263 200.331 139.975ZM205.956 126.863C198.288 126.863 192.071 120.646 192.071 112.977C192.071 105.308 198.288 99.0915 205.956 99.0915C213.624 99.0915 219.841 105.308 219.841 112.977C219.841 120.646 213.624 126.863 205.956 126.863Z" fill="#F5F5F5"/>
<path d="M69.5639 190.509L69.8176 193.203H75.0486L75.3016 190.51C77.0553 190.146 78.6857 189.451 80.1335 188.501L82.2233 190.231L85.9221 186.532L84.1917 184.442C85.1422 182.994 85.8365 181.363 86.201 179.61L88.8939 179.357V174.125L86.201 173.872C85.8371 172.118 85.1422 170.487 84.1917 169.04L85.9221 166.95L82.2233 163.251L80.1335 164.981C78.6857 164.031 77.0553 163.336 75.3016 162.972L75.0486 160.279L69.8176 160.279L69.5639 162.973C67.8109 163.336 66.1805 164.031 64.7321 164.981L62.6429 163.251L58.9441 166.949L60.6739 169.039C59.724 170.487 59.029 172.117 58.6652 173.871L55.9717 174.125V179.356L58.6652 179.61C59.0284 181.363 59.7234 182.994 60.6739 184.441L58.9441 186.532L62.6429 190.231L64.7321 188.5C66.1799 189.451 67.8102 190.146 69.5639 190.509ZM72.4325 183.822C68.5222 183.822 65.3515 180.652 65.3515 176.74C65.3515 172.83 68.5222 169.659 72.4325 169.659C76.3434 169.659 79.5134 172.829 79.5134 176.74C79.5134 180.652 76.344 183.822 72.4325 183.822Z" fill="#F0F0F0"/>
<path d="M257.612 177.437L257.821 179.655H262.126L262.335 177.438C263.778 177.138 265.119 176.567 266.311 175.785L268.031 177.209L271.075 174.164L269.651 172.445C270.433 171.253 271.005 169.911 271.305 168.468L273.521 168.259V163.953L271.304 163.744C271.005 162.301 270.433 160.959 269.65 159.768L271.074 158.048L268.03 155.003L266.31 156.427C265.119 155.645 263.777 155.073 262.334 154.774L262.126 152.558L257.821 152.558L257.612 154.775C256.169 155.074 254.827 155.646 253.635 156.428L251.915 155.004L248.871 158.048L250.295 159.768C249.513 160.96 248.941 162.301 248.642 163.745L246.426 163.954V168.259L248.643 168.468C248.942 169.911 249.514 171.253 250.296 172.445L248.872 174.165L251.916 177.209L253.636 175.785C254.827 176.566 256.169 177.138 257.612 177.437ZM259.973 171.934C256.755 171.934 254.146 169.325 254.146 166.106C254.146 162.887 256.755 160.278 259.973 160.278C263.192 160.278 265.801 162.887 265.801 166.106C265.801 169.325 263.192 171.934 259.973 171.934Z" fill="#F0F0F0"/>
<path d="M145.865 211.804H158.077L158.669 205.516C162.762 204.668 166.567 203.044 169.947 200.826L174.826 204.865L183.46 196.231L179.422 191.352C181.64 187.972 183.262 184.166 184.11 180.071L190.398 179.48V167.267L184.11 166.675C183.261 162.582 181.639 158.775 179.422 155.396L183.46 150.517L174.826 141.882L169.947 145.92C166.567 143.703 162.762 142.08 158.669 141.23L158.077 134.943H145.865L145.274 141.23C141.18 142.08 137.375 143.703 133.994 145.92L129.116 141.882L120.481 150.517L124.52 155.396C122.302 158.776 120.679 162.582 119.831 166.675L113.543 167.267V179.48L119.831 180.071C120.679 184.166 122.302 187.972 124.52 191.351L120.481 196.231L129.116 204.866L133.994 200.827C137.375 203.045 141.18 204.668 145.274 205.517L145.865 211.804ZM151.971 189.905C142.841 189.905 135.441 182.503 135.441 173.372C135.441 164.243 142.841 156.841 151.971 156.841C161.101 156.841 168.502 164.243 168.502 173.372C168.502 182.504 161.101 189.905 151.971 189.905Z" fill="#F5F5F5"/>
<path d="M214.122 189.459L213.476 188.227C211.37 184.215 206.394 182.664 202.382 184.771L199.44 186.316C195.427 188.422 193.877 193.4 195.982 197.411L196.629 198.643L194.577 199.72L201.975 213.814L223.572 202.476L216.175 188.382L214.122 189.459ZM209.624 200.242L210.915 202.701L209.349 203.523L208.058 201.065C207.47 201.029 206.91 200.725 206.616 200.165C206.168 199.312 206.497 198.258 207.349 197.811C208.202 197.363 209.255 197.691 209.703 198.544C209.998 199.103 209.929 199.737 209.624 200.242ZM210.879 191.161L199.872 196.94L199.225 195.708C198.058 193.485 198.919 190.726 201.143 189.559L204.085 188.014C206.308 186.847 209.066 187.706 210.233 189.929L210.879 191.161Z" fill="#F0F0F0"/>
<path d="M63.1446 114.606L63.6009 113.292C65.0871 109.012 62.8141 104.32 58.5343 102.834L55.3951 101.744C51.1134 100.257 46.4226 102.531 44.9364 106.81L44.48 108.125L42.2913 107.365L37.0704 122.402L60.113 130.404L65.3339 115.367L63.1446 114.606ZM52.2024 118.7L51.2915 121.323L49.6203 120.742L50.5311 118.119C50.1547 117.665 49.9942 117.049 50.2019 116.451C50.5179 115.542 51.5112 115.061 52.4202 115.376C53.3304 115.692 53.8113 116.686 53.496 117.595C53.2882 118.193 52.779 118.577 52.2024 118.7ZM59.685 113.405L47.9408 109.326L48.3972 108.012C49.2212 105.64 51.8222 104.381 54.1941 105.204L57.3333 106.295C59.7051 107.119 60.9653 109.718 60.1413 112.09L59.685 113.405Z" fill="#F0F0F0"/>
<path d="M269.37 107.249L268.024 106.821C270.983 106.286 273.565 104.211 274.539 101.145C275.941 96.7333 273.501 92.0194 269.09 90.6174C264.678 89.2148 259.965 91.6549 258.563 96.0672C257.588 99.1331 258.499 102.318 260.607 104.463L259.261 104.036C255.164 102.733 250.786 105 249.483 109.098L248.136 113.337L273.083 121.267L274.431 117.027C275.732 112.929 273.467 108.551 269.37 107.249Z" fill="#F0F0F0"/>
<path d="M178.89 31.2236L178.052 31.5762C179.279 30.0785 179.678 27.9835 178.876 26.0735C177.721 23.3255 174.557 22.0338 171.81 23.1883C169.061 24.3429 167.77 27.5069 168.925 30.2548C169.727 32.1642 171.503 33.3458 173.432 33.517L172.593 33.8689C170.042 34.941 168.842 37.8803 169.914 40.4324L171.024 43.0733L186.563 36.5438L185.454 33.9029C184.38 31.3514 181.442 30.1516 178.89 31.2236Z" fill="#F0F0F0"/>
<path d="M66.4096 48.9248L65.5189 48.7391C67.379 48.2021 68.8966 46.7032 69.319 44.6755C69.9271 41.7576 68.0538 38.8989 65.1361 38.2908C62.2179 37.6826 59.3594 39.5555 58.752 42.4734C58.3296 44.5011 59.1221 46.4816 60.6134 47.7167L59.7233 47.531C57.0134 46.9663 54.3583 48.7057 53.7936 51.4165L53.2095 54.2204L69.7093 57.6583L70.2934 54.8544C70.8581 52.1442 69.1195 49.4895 66.4096 48.9248Z" fill="#F0F0F0"/>
<path d="M157.369 241.272C224.774 241.272 279.417 238.081 279.417 234.144C279.417 230.207 224.774 227.016 157.369 227.016C89.9635 227.016 35.3206 230.207 35.3206 234.144C35.3206 238.081 89.9635 241.272 157.369 241.272Z" fill="#F5F5F5"/>
<path d="M232.391 203.607H119.766C117.223 203.607 115.161 201.545 115.161 199.001V60.7071C115.161 58.1638 117.222 56.1014 119.766 56.1014H232.391C234.934 56.1014 236.996 58.1632 236.996 60.7071V199.001C236.996 201.545 234.935 203.607 232.391 203.607Z" fill="#179ED5"/>
<path opacity="0.6" d="M230.465 203.677H117.839C115.296 203.677 113.234 201.615 113.234 199.071V60.777C113.234 58.2337 115.296 56.1713 117.839 56.1713H230.465C233.008 56.1713 235.07 58.233 235.07 60.777V199.071C235.07 201.615 233.008 203.677 230.465 203.677Z" fill="white"/>
<path d="M217.258 134.39H134.899V148.493H217.258V134.39Z" fill="white"/>
<g opacity="0.4">
<path d="M139.049 141.162C139.049 139.978 139.949 139.106 141.167 139.106C141.756 139.106 142.287 139.303 142.645 139.695L142.374 139.967C142.044 139.632 141.64 139.488 141.179 139.488C140.203 139.488 139.47 140.204 139.47 141.162C139.47 142.12 140.204 142.836 141.179 142.836C141.64 142.836 142.045 142.692 142.374 142.351L142.645 142.622C142.287 143.015 141.756 143.217 141.161 143.217C139.949 143.218 139.049 142.346 139.049 141.162Z" fill="#263238"/>
<path d="M143.032 141.665C143.032 140.764 143.69 140.123 144.579 140.123C145.468 140.123 146.12 140.764 146.12 141.665C146.12 142.565 145.468 143.211 144.579 143.211C143.69 143.211 143.032 142.565 143.032 141.665ZM145.705 141.665C145.705 140.954 145.226 140.48 144.579 140.48C143.932 140.48 143.447 140.954 143.447 141.665C143.447 142.375 143.933 142.848 144.579 142.848C145.226 142.848 145.705 142.375 145.705 141.665Z" fill="#263238"/>
<path d="M149.751 141.422V143.182H149.341V141.462C149.341 140.821 149.006 140.492 148.429 140.492C147.776 140.492 147.367 140.897 147.367 141.589V143.182H146.957V140.146H147.349V140.706C147.569 140.337 147.978 140.123 148.504 140.123C149.244 140.123 149.751 140.55 149.751 141.422Z" fill="#263238"/>
<path d="M151.853 138.87C152.078 138.87 152.309 138.934 152.459 139.061L152.321 139.367C152.205 139.269 152.044 139.217 151.87 139.217C151.519 139.217 151.334 139.413 151.334 139.789V140.146H152.268V140.492H151.345V143.182H150.935V140.492H150.392V140.146H150.935V139.77C150.935 139.228 151.258 138.87 151.853 138.87ZM153.792 139.182C153.792 139.35 153.665 139.483 153.492 139.483C153.325 139.483 153.192 139.35 153.192 139.188C153.192 139.032 153.325 138.899 153.492 138.899C153.659 138.899 153.792 139.026 153.792 139.182ZM153.285 140.146H153.695V143.182H153.285V140.146Z" fill="#263238"/>
<path d="M156.368 140.123V140.521C156.333 140.521 156.298 140.516 156.269 140.516C155.634 140.516 155.248 140.92 155.248 141.636V143.182H154.838V140.146H155.231V140.74C155.421 140.337 155.808 140.123 156.368 140.123Z" fill="#263238"/>
<path d="M162.117 141.422V143.182H161.707V141.462C161.707 140.821 161.384 140.492 160.835 140.492C160.212 140.492 159.819 140.897 159.819 141.589V143.182H159.41V141.462C159.41 140.821 159.086 140.492 158.532 140.492C157.915 140.492 157.516 140.897 157.516 141.589V143.182H157.106V140.146H157.499V140.7C157.713 140.337 158.105 140.123 158.613 140.123C159.116 140.123 159.508 140.337 159.693 140.764C159.913 140.371 160.346 140.123 160.894 140.123C161.632 140.123 162.117 140.55 162.117 141.422Z" fill="#263238"/>
<path d="M168.208 139.141V143.182H167.856L165.259 139.903V143.182H164.831V139.141H165.184L167.787 142.421V139.141H168.208Z" fill="#263238"/>
<path d="M172.082 141.791H169.542C169.588 142.426 170.073 142.848 170.736 142.848C171.106 142.848 171.435 142.715 171.666 142.45L171.897 142.715C171.626 143.038 171.204 143.211 170.726 143.211C169.779 143.211 169.133 142.565 169.133 141.665C169.133 140.764 169.762 140.123 170.616 140.123C171.47 140.123 172.088 140.752 172.088 141.665C172.087 141.699 172.082 141.745 172.082 141.791ZM169.541 141.485H171.695C171.643 140.891 171.209 140.475 170.615 140.475C170.026 140.475 169.593 140.891 169.541 141.485Z" fill="#263238"/>
<path d="M177.323 140.146L176.174 143.182H175.787L174.829 140.694L173.871 143.182H173.484L172.341 140.146H172.734L173.686 142.727L174.662 140.146H175.014L175.984 142.727L176.948 140.146H177.323Z" fill="#263238"/>
<path d="M182.703 140.528C182.703 141.388 182.08 141.907 181.052 141.907H179.967V143.182H179.54V139.141H181.052C182.08 139.141 182.703 139.661 182.703 140.528ZM182.276 140.528C182.276 139.881 181.849 139.512 181.041 139.512H179.967V141.532H181.041C181.849 141.532 182.276 141.162 182.276 140.528Z" fill="#263238"/>
<path d="M185.804 141.301V143.182H185.411V142.709C185.226 143.021 184.868 143.211 184.366 143.211C183.679 143.211 183.257 142.854 183.257 142.328C183.257 141.861 183.558 141.468 184.43 141.468H185.393V141.284C185.393 140.764 185.099 140.481 184.533 140.481C184.141 140.481 183.772 140.62 183.523 140.839L183.338 140.533C183.644 140.273 184.094 140.123 184.573 140.123C185.359 140.123 185.804 140.516 185.804 141.301ZM185.394 142.271V141.774H184.441C183.852 141.774 183.662 142.005 183.662 142.317C183.662 142.669 183.945 142.888 184.43 142.888C184.892 142.888 185.232 142.669 185.394 142.271Z" fill="#263238"/>
<path d="M186.497 142.837L186.682 142.513C186.924 142.704 187.335 142.854 187.761 142.854C188.339 142.854 188.576 142.657 188.576 142.357C188.576 141.566 186.607 142.19 186.607 140.989C186.607 140.492 187.035 140.123 187.809 140.123C188.201 140.123 188.628 140.233 188.882 140.405L188.703 140.735C188.437 140.55 188.12 140.475 187.809 140.475C187.26 140.475 187.018 140.688 187.018 140.977C187.018 141.797 188.986 141.179 188.986 142.346C188.986 142.871 188.525 143.211 187.734 143.211C187.23 143.211 186.745 143.049 186.497 142.837Z" fill="#263238"/>
<path d="M189.319 142.837L189.504 142.513C189.747 142.704 190.157 142.854 190.584 142.854C191.162 142.854 191.398 142.657 191.398 142.357C191.398 141.566 189.429 142.19 189.429 140.989C189.429 140.492 189.857 140.123 190.63 140.123C191.023 140.123 191.45 140.233 191.704 140.405L191.526 140.735C191.26 140.55 190.943 140.475 190.631 140.475C190.082 140.475 189.84 140.688 189.84 140.977C189.84 141.797 191.809 141.179 191.809 142.346C191.809 142.871 191.347 143.211 190.556 143.211C190.053 143.211 189.568 143.049 189.319 142.837Z" fill="#263238"/>
<path d="M196.962 140.146L195.814 143.182H195.427L194.469 140.694L193.511 143.182H193.124L191.981 140.146H192.373L193.326 142.727L194.302 140.146H194.654L195.624 142.727L196.588 140.146H196.962Z" fill="#263238"/>
<path d="M197.188 141.665C197.188 140.764 197.846 140.123 198.735 140.123C199.624 140.123 200.276 140.764 200.276 141.665C200.276 142.565 199.624 143.211 198.735 143.211C197.846 143.211 197.188 142.565 197.188 141.665ZM199.861 141.665C199.861 140.954 199.382 140.48 198.735 140.48C198.088 140.48 197.604 140.954 197.604 141.665C197.604 142.375 198.089 142.848 198.735 142.848C199.382 142.848 199.861 142.375 199.861 141.665Z" fill="#263238"/>
<path d="M202.643 140.123V140.521C202.609 140.521 202.574 140.516 202.545 140.516C201.91 140.516 201.524 140.92 201.524 141.636V143.182H201.114V140.146H201.507V140.74C201.697 140.337 202.084 140.123 202.643 140.123Z" fill="#263238"/>
<path d="M206.125 138.899V143.183H205.732V142.583C205.484 142.992 205.063 143.212 204.561 143.212C203.695 143.212 203.048 142.583 203.048 141.665C203.048 140.747 203.695 140.123 204.561 140.123C205.045 140.123 205.462 140.331 205.715 140.724V138.9L206.125 138.899ZM205.721 141.665C205.721 140.954 205.236 140.48 204.595 140.48C203.948 140.48 203.464 140.954 203.464 141.665C203.464 142.375 203.948 142.848 204.595 142.848C205.236 142.848 205.721 142.375 205.721 141.665Z" fill="#263238"/>
</g>
<path opacity="0.2" d="M217.258 174.57H134.899V188.673H217.258V174.57Z" fill="black"/>
<path d="M217.258 173.707H134.899V187.81H217.258V173.707Z" fill="#179ED5"/>
<path d="M152.856 182.397L153.111 181.86C153.47 182.185 154.084 182.419 154.704 182.419C155.539 182.419 155.897 182.095 155.897 181.674C155.897 180.494 152.973 181.24 152.973 179.446C152.973 178.701 153.552 178.067 154.821 178.067C155.387 178.067 155.973 178.219 156.373 178.495L156.146 179.046C155.725 178.778 155.249 178.654 154.821 178.654C154.001 178.654 153.649 178.999 153.649 179.419C153.649 180.598 156.573 179.86 156.573 181.633C156.573 182.372 155.98 183.006 154.704 183.006C153.967 183.005 153.242 182.756 152.856 182.397Z" fill="white"/>
<path d="M160.776 181.342H157.811C157.894 181.983 158.411 182.411 159.135 182.411C159.563 182.411 159.921 182.266 160.19 181.97L160.556 182.397C160.225 182.784 159.721 182.99 159.114 182.99C157.935 182.99 157.149 182.212 157.149 181.121C157.149 180.039 157.928 179.259 158.983 179.259C160.038 179.259 160.79 180.018 160.79 181.142C160.79 181.197 160.783 181.281 160.776 181.342ZM157.811 180.866H160.156C160.087 180.252 159.624 179.818 158.983 179.818C158.349 179.818 157.879 180.246 157.811 180.866Z" fill="white"/>
<path d="M163.765 182.735C163.565 182.908 163.261 182.99 162.965 182.99C162.227 182.99 161.807 182.584 161.807 181.846V179.839H161.186V179.294H161.807V178.494H162.469V179.294H163.517V179.839H162.469V181.819C162.469 182.212 162.676 182.433 163.041 182.433C163.234 182.433 163.421 182.371 163.559 182.261L163.765 182.735Z" fill="white"/>
<path d="M170.417 179.804C170.417 180.853 169.658 181.488 168.403 181.488H167.21V182.949H166.52V178.122H168.403C169.658 178.122 170.417 178.756 170.417 179.804ZM169.727 179.804C169.727 179.114 169.265 178.722 168.382 178.722H167.21V180.887H168.382C169.265 180.888 169.727 180.494 169.727 179.804Z" fill="white"/>
<path d="M174.199 180.742V182.949H173.572V182.467C173.351 182.797 172.944 182.99 172.372 182.99C171.544 182.99 171.02 182.549 171.02 181.915C171.02 181.328 171.4 180.846 172.489 180.846H173.538V180.715C173.538 180.156 173.213 179.832 172.558 179.832C172.124 179.832 171.683 179.984 171.4 180.225L171.124 179.729C171.503 179.425 172.048 179.26 172.634 179.26C173.633 179.26 174.199 179.742 174.199 180.742ZM173.537 181.833V181.322H172.516C171.861 181.322 171.674 181.577 171.674 181.887C171.674 182.253 171.978 182.48 172.481 182.48C172.978 182.48 173.371 182.253 173.537 181.833Z" fill="white"/>
<path d="M174.967 182.564L175.243 182.039C175.554 182.26 176.05 182.419 176.526 182.419C177.14 182.419 177.395 182.232 177.395 181.922C177.395 181.101 175.085 181.812 175.085 180.357C175.085 179.702 175.671 179.26 176.609 179.26C177.085 179.26 177.622 179.384 177.94 179.591L177.657 180.115C177.326 179.901 176.96 179.826 176.602 179.826C176.023 179.826 175.74 180.04 175.74 180.329C175.74 181.191 178.057 180.488 178.057 181.909C178.057 182.571 177.45 182.992 176.478 182.992C175.871 182.99 175.271 182.804 174.967 182.564Z" fill="white"/>
<path d="M178.425 182.564L178.701 182.039C179.011 182.26 179.508 182.419 179.983 182.419C180.597 182.419 180.853 182.232 180.853 181.922C180.853 181.101 178.543 181.812 178.543 180.357C178.543 179.702 179.129 179.26 180.067 179.26C180.542 179.26 181.08 179.384 181.397 179.591L181.115 180.115C180.784 179.901 180.418 179.826 180.06 179.826C179.481 179.826 179.197 180.04 179.197 180.329C179.197 181.191 181.515 180.488 181.515 181.909C181.515 182.571 180.908 182.992 179.936 182.992C179.328 182.99 178.728 182.804 178.425 182.564Z" fill="white"/>
<path d="M187.806 179.294L186.441 182.949H185.806L184.751 180.177L183.682 182.949H183.048L181.689 179.294H182.317L183.379 182.204L184.483 179.294H185.041L186.124 182.219L187.214 179.294H187.806Z" fill="white"/>
<path d="M188.038 181.122C188.038 180.032 188.845 179.26 189.941 179.26C191.038 179.26 191.838 180.032 191.838 181.122C191.838 182.212 191.038 182.991 189.941 182.991C188.845 182.99 188.038 182.212 188.038 181.122ZM191.169 181.122C191.169 180.343 190.644 179.839 189.941 179.839C189.238 179.839 188.707 180.343 188.707 181.122C188.707 181.901 189.238 182.412 189.941 182.412C190.645 182.411 191.169 181.901 191.169 181.122Z" fill="white"/>
<path d="M194.724 179.26V179.901C194.669 179.894 194.62 179.894 194.572 179.894C193.862 179.894 193.42 180.329 193.42 181.129V182.95H192.758V179.294H193.393V179.909C193.627 179.48 194.082 179.26 194.724 179.26Z" fill="white"/>
<path d="M198.953 177.832V182.949H198.318V182.37C198.022 182.784 197.553 182.99 197.015 182.99C195.946 182.99 195.166 182.239 195.166 181.121C195.166 180.005 195.946 179.259 197.015 179.259C197.532 179.259 197.987 179.452 198.291 179.846V177.832H198.953ZM198.298 181.122C198.298 180.343 197.767 179.839 197.071 179.839C196.367 179.839 195.836 180.343 195.836 181.122C195.836 181.901 196.367 182.412 197.071 182.412C197.767 182.411 198.298 181.901 198.298 181.122Z" fill="white"/>
<g opacity="0.6">
<path d="M150.073 100.113L148.933 98.4891C148.827 98.4967 148.714 98.5043 148.601 98.5043H147.295V100.113H146.54V94.8278H148.601C149.975 94.8278 150.805 95.5228 150.805 96.6698C150.805 97.485 150.382 98.0743 149.643 98.3387L150.896 100.113H150.073ZM150.051 96.6698C150.051 95.915 149.545 95.4844 148.578 95.4844H147.295V97.8628H148.578C149.545 97.8628 150.051 97.4252 150.051 96.6698Z" fill="#202020"/>
<path d="M155.527 98.3538H152.281C152.372 99.0557 152.938 99.5241 153.731 99.5241C154.198 99.5241 154.591 99.3654 154.886 99.0406L155.286 99.509C154.923 99.932 154.372 100.158 153.708 100.158C152.417 100.158 151.556 99.305 151.556 98.112C151.556 96.9266 152.409 96.0736 153.564 96.0736C154.72 96.0736 155.543 96.904 155.543 98.1347C155.542 98.1951 155.534 98.2858 155.527 98.3538ZM152.281 97.8325H154.848C154.772 97.1608 154.267 96.6849 153.564 96.6849C152.869 96.6855 152.356 97.1533 152.281 97.8325Z" fill="#202020"/>
<path d="M156.043 99.6903L156.345 99.1161C156.684 99.3579 157.228 99.5316 157.749 99.5316C158.421 99.5316 158.7 99.3277 158.7 98.9877C158.7 98.0894 156.171 98.8668 156.171 97.2741C156.171 96.5565 156.813 96.0736 157.839 96.0736C158.36 96.0736 158.949 96.2096 159.296 96.4362L158.987 97.0104C158.624 96.7762 158.224 96.6931 157.832 96.6931C157.198 96.6931 156.887 96.9273 156.887 97.2439C156.887 98.1882 159.424 97.4177 159.424 98.9732C159.424 99.6978 158.76 100.159 157.695 100.159C157.032 100.158 156.374 99.9547 156.043 99.6903Z" fill="#202020"/>
<path d="M163.934 98.3538H160.688C160.778 99.0557 161.344 99.5241 162.137 99.5241C162.605 99.5241 162.998 99.3654 163.292 99.0406L163.693 99.509C163.33 99.932 162.779 100.158 162.115 100.158C160.824 100.158 159.963 99.305 159.963 98.112C159.963 96.9266 160.816 96.0736 161.971 96.0736C163.126 96.0736 163.949 96.904 163.949 98.1347C163.949 98.1951 163.941 98.2858 163.934 98.3538ZM160.688 97.8325H163.255C163.179 97.1608 162.674 96.6849 161.971 96.6849C161.276 96.6855 160.763 97.1533 160.688 97.8325Z" fill="#202020"/>
<path d="M167.205 99.8791C166.986 100.068 166.654 100.158 166.329 100.158C165.521 100.158 165.061 99.7123 165.061 98.9046V96.7076H164.381V96.1114H165.061V95.2357H165.786V96.1114H166.933V96.7076H165.786V98.8744C165.786 99.305 166.012 99.5461 166.413 99.5461C166.623 99.5461 166.828 99.4781 166.978 99.3573L167.205 99.8791Z" fill="#202020"/>
<path d="M174.486 96.6698C174.486 97.8174 173.655 98.5124 172.281 98.5124H170.975V100.113H170.22V94.8278H172.281C173.655 94.8278 174.486 95.5222 174.486 96.6698ZM173.731 96.6698C173.731 95.915 173.225 95.4844 172.258 95.4844H170.975V97.8552H172.258C173.225 97.8558 173.731 97.4252 173.731 96.6698Z" fill="#202020"/>
<path d="M178.626 97.6972V100.113H177.939V99.5851C177.697 99.9478 177.252 100.159 176.625 100.159C175.719 100.159 175.145 99.6752 175.145 98.9808C175.145 98.3387 175.561 97.8105 176.754 97.8105H177.901V97.667C177.901 97.0551 177.546 96.7006 176.829 96.7006C176.353 96.7006 175.871 96.8668 175.561 97.1312L175.259 96.5873C175.674 96.2556 176.271 96.0742 176.912 96.0742C178.007 96.0736 178.626 96.6018 178.626 97.6972ZM177.901 98.8895V98.3305H176.784C176.067 98.3305 175.863 98.61 175.863 98.9493C175.863 99.3497 176.195 99.599 176.746 99.599C177.29 99.5996 177.72 99.3503 177.901 98.8895Z" fill="#202020"/>
<path d="M179.466 99.6903L179.768 99.1161C180.108 99.3579 180.651 99.5316 181.173 99.5316C181.844 99.5316 182.124 99.3277 182.124 98.9877C182.124 98.0894 179.594 98.8668 179.594 97.2741C179.594 96.5565 180.237 96.0736 181.263 96.0736C181.784 96.0736 182.372 96.2096 182.72 96.4362L182.41 97.0104C182.048 96.7762 181.648 96.6931 181.255 96.6931C180.621 96.6931 180.311 96.9273 180.311 97.2439C180.311 98.1882 182.848 97.4177 182.848 98.9732C182.848 99.6978 182.184 100.159 181.119 100.159C180.455 100.158 179.798 99.9547 179.466 99.6903Z" fill="#202020"/>
<path d="M183.25 99.6903L183.553 99.1161C183.893 99.3579 184.436 99.5316 184.957 99.5316C185.629 99.5316 185.908 99.3277 185.908 98.9877C185.908 98.0894 183.379 98.8668 183.379 97.2741C183.379 96.5565 184.021 96.0736 185.047 96.0736C185.568 96.0736 186.157 96.2096 186.504 96.4362L186.195 97.0104C185.832 96.7762 185.432 96.6931 185.039 96.6931C184.406 96.6931 184.096 96.9273 184.096 97.2439C184.096 98.1882 186.632 97.4177 186.632 98.9732C186.632 99.6978 185.968 100.159 184.903 100.159C184.239 100.158 183.583 99.9547 183.25 99.6903Z" fill="#202020"/>
<path d="M193.52 96.1114L192.025 100.113H191.33L190.175 97.0777L189.005 100.113H188.31L186.822 96.1114H187.51L188.672 99.2975L189.88 96.1114H190.492L191.677 99.3126L192.87 96.1114H193.52Z" fill="#202020"/>
<path d="M193.773 98.112C193.773 96.9191 194.656 96.0736 195.856 96.0736C197.057 96.0736 197.932 96.9191 197.932 98.112C197.932 99.305 197.056 100.158 195.856 100.158C194.656 100.158 193.773 99.305 193.773 98.112ZM197.2 98.112C197.2 97.259 196.626 96.7075 195.856 96.7075C195.086 96.7075 194.505 97.259 194.505 98.112C194.505 98.965 195.086 99.5241 195.856 99.5241C196.626 99.5241 197.2 98.9657 197.2 98.112Z" fill="#202020"/>
<path d="M201.09 96.0736V96.7755C201.03 96.768 200.977 96.768 200.924 96.768C200.147 96.768 199.663 97.2433 199.663 98.119V100.112H198.939V96.1108H199.633V96.7825C199.891 96.3154 200.389 96.0736 201.09 96.0736Z" fill="#202020"/>
<path d="M205.72 94.5105V100.113H205.026V99.4788C204.701 99.932 204.187 100.158 203.599 100.158C202.429 100.158 201.576 99.3352 201.576 98.1121C201.576 96.8889 202.429 96.0736 203.599 96.0736C204.165 96.0736 204.663 96.2852 204.996 96.7157V94.5111H205.72V94.5105ZM205.003 98.1121C205.003 97.259 204.422 96.7076 203.659 96.7076C202.89 96.7076 202.308 97.259 202.308 98.1121C202.308 98.9651 202.89 99.5241 203.659 99.5241C204.422 99.5241 205.003 98.9657 205.003 98.1121Z" fill="#202020"/>
</g>
<path d="M217.258 113.234H134.899V127.338H217.258V113.234Z" fill="white"/>
<g opacity="0.4">
<path d="M142.783 117.986V122.028H142.431L139.834 118.748V122.028H139.406V117.986H139.758L142.362 121.265V117.986H142.783Z" fill="#263238"/>
<path d="M146.657 120.636H144.117C144.164 121.271 144.649 121.693 145.312 121.693C145.682 121.693 146.011 121.56 146.242 121.294L146.473 121.56C146.201 121.883 145.78 122.057 145.301 122.057C144.355 122.057 143.708 121.41 143.708 120.509C143.708 119.608 144.337 118.968 145.192 118.968C146.046 118.968 146.664 119.597 146.664 120.509C146.663 120.543 146.657 120.59 146.657 120.636ZM144.117 120.33H146.271C146.218 119.735 145.785 119.32 145.191 119.32C144.602 119.32 144.169 119.735 144.117 120.33Z" fill="#263238"/>
<path d="M151.899 118.991L150.75 122.028H150.363L149.405 119.539L148.447 122.028H148.061L146.918 118.991H147.311L148.263 121.572L149.239 118.991H149.591L150.561 121.572L151.525 118.991H151.899Z" fill="#263238"/>
<path d="M157.28 119.372C157.28 120.232 156.656 120.751 155.629 120.751H154.544V122.027H154.116V117.985H155.629C156.656 117.986 157.28 118.505 157.28 119.372ZM156.852 119.372C156.852 118.725 156.425 118.355 155.617 118.355H154.543V120.376H155.617C156.425 120.376 156.852 120.007 156.852 119.372Z" fill="#263238"/>
<path d="M160.38 120.145V122.028H159.987V121.554C159.802 121.866 159.444 122.056 158.942 122.056C158.255 122.056 157.833 121.698 157.833 121.173C157.833 120.706 158.134 120.313 159.006 120.313H159.969V120.128C159.969 119.609 159.675 119.326 159.109 119.326C158.717 119.326 158.347 119.465 158.099 119.684L157.915 119.378C158.221 119.118 158.671 118.969 159.15 118.969C159.935 118.968 160.38 119.36 160.38 120.145ZM159.97 121.115V120.619H159.018C158.428 120.619 158.238 120.85 158.238 121.161C158.238 121.514 158.521 121.733 159.006 121.733C159.468 121.733 159.808 121.513 159.97 121.115Z" fill="#263238"/>
<path d="M161.072 121.681L161.257 121.357C161.499 121.548 161.909 121.698 162.336 121.698C162.914 121.698 163.15 121.502 163.15 121.202C163.15 120.41 161.181 121.034 161.181 119.833C161.181 119.337 161.608 118.967 162.382 118.967C162.775 118.967 163.202 119.077 163.456 119.25L163.277 119.579C163.012 119.394 162.694 119.319 162.383 119.319C161.834 119.319 161.592 119.533 161.592 119.822C161.592 120.641 163.56 120.023 163.56 121.19C163.56 121.715 163.099 122.056 162.308 122.056C161.805 122.057 161.321 121.895 161.072 121.681Z" fill="#263238"/>
<path d="M163.895 121.681L164.08 121.357C164.322 121.548 164.732 121.698 165.159 121.698C165.736 121.698 165.973 121.502 165.973 121.202C165.973 120.41 164.005 121.034 164.005 119.833C164.005 119.337 164.432 118.967 165.206 118.967C165.599 118.967 166.025 119.077 166.28 119.25L166.101 119.579C165.835 119.394 165.518 119.319 165.206 119.319C164.658 119.319 164.416 119.533 164.416 119.822C164.416 120.641 166.384 120.023 166.384 121.19C166.384 121.715 165.923 122.056 165.132 122.056C164.629 122.057 164.144 121.895 163.895 121.681Z" fill="#263238"/>
<path d="M171.538 118.991L170.39 122.028H170.003L169.045 119.539L168.087 122.028H167.701L166.557 118.991H166.95L167.903 121.572L168.878 118.991H169.231L170.201 121.572L171.165 118.991H171.538Z" fill="#263238"/>
<path d="M171.764 120.509C171.764 119.608 172.422 118.968 173.311 118.968C174.2 118.968 174.853 119.608 174.853 120.509C174.853 121.41 174.2 122.057 173.311 122.057C172.422 122.057 171.764 121.409 171.764 120.509ZM174.437 120.509C174.437 119.799 173.958 119.326 173.312 119.326C172.665 119.326 172.18 119.799 172.18 120.509C172.18 121.219 172.665 121.693 173.312 121.693C173.958 121.693 174.437 121.219 174.437 120.509Z" fill="#263238"/>
<path d="M177.219 118.968V119.367C177.185 119.367 177.15 119.36 177.121 119.36C176.486 119.36 176.1 119.765 176.1 120.48V122.028H175.69V118.991H176.082V119.586C176.273 119.181 176.66 118.968 177.219 118.968Z" fill="#263238"/>
<path d="M180.701 117.744V122.028H180.308V121.427C180.06 121.837 179.638 122.056 179.136 122.056C178.27 122.056 177.624 121.427 177.624 120.509C177.624 119.591 178.27 118.968 179.136 118.968C179.621 118.968 180.037 119.176 180.291 119.568V117.744H180.701ZM180.296 120.509C180.296 119.799 179.811 119.326 179.17 119.326C178.524 119.326 178.039 119.799 178.039 120.509C178.039 121.219 178.524 121.693 179.17 121.693C179.812 121.693 180.296 121.219 180.296 120.509Z" fill="#263238"/>
</g>
<path d="M250.882 208.932C250.882 208.932 246.995 209.45 245.334 208.932C243.674 208.415 244.293 200.874 242.597 200.718C238.694 200.359 239.358 210.374 241.018 212.485C242.678 214.595 251.234 213.697 251.234 213.697L250.882 208.932Z" fill="#179ED5"/>
<path opacity="0.2" d="M250.882 208.932C250.882 208.932 246.995 209.45 245.334 208.932C243.674 208.415 244.293 200.874 242.597 200.718C238.694 200.359 239.358 210.374 241.018 212.485C242.678 214.595 251.234 213.697 251.234 213.697L250.882 208.932Z" fill="white"/>
<path d="M251.205 226.694C251.205 226.694 245.446 175.55 252.322 174.961C259.197 174.373 260.855 192.408 258.2 226.045L251.205 226.694Z" fill="#179ED5"/>
<path opacity="0.3" d="M251.205 226.694C251.205 226.694 245.446 175.55 252.322 174.961C259.197 174.373 260.855 192.408 258.2 226.045L251.205 226.694Z" fill="white"/>
<path d="M243.131 220.501H265.746L263.858 234.972H245.02L243.131 220.501Z" fill="#263238"/>
<path d="M258.035 191.728C258.035 191.728 264.301 192.062 264.488 191.728C264.675 191.393 264.675 184.155 267.331 184.583C269.988 185.011 268.826 193.724 267.331 194.737C265.837 195.75 258.035 196.299 258.035 196.299C258.035 196.299 256.989 193.086 258.035 191.728Z" fill="#179ED5"/>
<path opacity="0.4" d="M258.035 191.728C258.035 191.728 264.301 192.062 264.488 191.728C264.675 191.393 264.675 184.155 267.331 184.583C269.988 185.011 268.826 193.724 267.331 194.737C265.837 195.75 258.035 196.299 258.035 196.299C258.035 196.299 256.989 193.086 258.035 191.728Z" fill="white"/>
<path d="M254.063 222.024C253.2 214.231 252.476 206.422 251.961 198.595C251.698 194.681 251.512 190.763 251.441 186.837C251.411 184.874 251.409 182.909 251.507 180.943C251.557 179.959 251.632 178.975 251.783 177.992C251.863 177.5 251.954 177.009 252.119 176.519C252.213 176.276 252.298 176.029 252.48 175.794C252.517 175.734 252.57 175.678 252.634 175.625C252.692 175.57 252.753 175.517 252.85 175.481C252.895 175.462 252.939 175.444 252.985 175.43C253.038 175.427 253.094 175.427 253.148 175.431C253.265 175.428 253.338 175.49 253.427 175.533C253.711 175.748 253.811 176.001 253.926 176.237C254.028 176.477 254.108 176.718 254.178 176.96C254.313 177.444 254.421 177.929 254.51 178.416C254.691 179.388 254.819 180.365 254.933 181.342C255.155 183.296 255.306 185.253 255.435 187.211C255.682 191.128 255.848 195.047 255.94 198.968C256.037 202.888 256.096 206.809 256.125 210.729C256.137 214.65 256.127 218.571 256.084 222.491C256.047 218.571 255.977 214.651 255.884 210.733C255.806 206.814 255.706 202.896 255.562 198.979C255.41 195.064 255.258 191.148 254.989 187.241C254.853 185.288 254.695 183.337 254.467 181.396C254.35 180.426 254.22 179.458 254.038 178.504C253.95 178.027 253.842 177.555 253.711 177.096C253.645 176.868 253.568 176.643 253.478 176.433C253.39 176.23 253.267 176.022 253.156 175.942C253.134 175.939 253.11 175.902 253.098 175.919C253.091 175.92 253.085 175.918 253.077 175.912C253.067 175.918 253.055 175.927 253.043 175.932C253.021 175.933 252.989 175.96 252.959 175.992C252.926 176.016 252.894 176.047 252.867 176.093C252.744 176.244 252.659 176.467 252.578 176.679C252.427 177.118 252.337 177.593 252.258 178.068C252.107 179.022 252.029 179.994 251.976 180.968C251.871 182.917 251.865 184.875 251.888 186.831C251.938 190.746 252.133 194.659 252.338 198.573C252.553 202.485 252.822 206.395 253.118 210.303C253.4 214.212 253.711 218.119 254.063 222.024Z" fill="#179ED5"/>
<path d="M258.823 193.446L262.464 193.166C263.068 193.108 263.673 193.065 264.268 192.985C264.565 192.945 264.863 192.907 265.143 192.841C265.278 192.808 265.423 192.767 265.51 192.72C265.511 192.715 265.554 192.691 265.527 192.71C265.515 192.721 265.523 192.724 265.51 192.749C265.496 192.771 265.505 192.825 265.512 192.824C265.499 192.729 265.478 192.611 265.481 192.533C265.548 191.255 265.8 190.083 266.059 188.883C266.335 187.695 266.601 186.499 267.042 185.356C266.913 185.951 266.815 186.551 266.724 187.153L266.431 188.953L266.16 190.753C266.077 191.347 265.982 191.961 265.973 192.527C265.969 192.601 265.984 192.634 265.982 192.69C265.99 192.727 265.996 192.819 265.981 192.878C265.967 192.942 265.937 192.97 265.908 193.014C265.841 193.099 265.804 193.101 265.748 193.144C265.563 193.239 265.41 193.27 265.25 193.31C264.936 193.377 264.629 193.417 264.321 193.447C263.706 193.501 263.096 193.539 262.484 193.543C261.261 193.563 260.041 193.542 258.823 193.446Z" fill="#179ED5"/>
<path d="M258.823 195.117C260.192 194.887 261.564 194.699 262.933 194.503L264.985 194.211C265.649 194.105 266.387 194.007 266.951 193.822C266.973 193.815 267.082 193.685 267.132 193.542C267.195 193.401 267.244 193.243 267.289 193.084C267.377 192.763 267.442 192.427 267.499 192.091C267.616 191.417 267.679 190.731 267.767 190.047C267.919 188.676 268.029 187.296 268.161 185.915C268.233 187.302 268.218 188.69 268.143 190.079C268.115 190.775 268.038 191.466 267.94 192.161C267.888 192.508 267.831 192.855 267.742 193.204C267.696 193.378 267.647 193.553 267.574 193.731C267.494 193.901 267.435 194.104 267.152 194.27C266.755 194.412 266.434 194.443 266.081 194.508L265.045 194.654C264.355 194.739 263.667 194.827 262.975 194.877C261.594 194.996 260.211 195.088 258.823 195.117Z" fill="#179ED5"/>
<path d="M248.947 210.332C247.791 210.391 246.634 210.367 245.476 210.26C244.894 210.204 244.32 210.133 243.731 209.944C243.654 209.913 243.589 209.901 243.502 209.854C243.401 209.8 243.326 209.734 243.267 209.664C243.144 209.524 243.073 209.378 243.005 209.234C242.877 208.946 242.801 208.656 242.732 208.367C242.487 207.208 242.414 206.049 242.391 204.891C242.372 203.733 242.398 202.577 242.512 201.425C242.602 202.578 242.671 203.727 242.769 204.872C242.878 206.012 242.967 207.163 243.211 208.259C243.342 208.775 243.471 209.422 243.889 209.508C244.389 209.699 244.967 209.781 245.524 209.887C246.654 210.07 247.8 210.189 248.947 210.332Z" fill="#179ED5"/>
<path d="M241.352 202.336L241.761 206.359C241.906 207.695 242.018 209.04 242.273 210.344C242.33 210.669 242.398 210.994 242.495 211.292C242.544 211.429 242.609 211.594 242.667 211.651L242.823 211.762C242.886 211.795 242.96 211.824 243.028 211.856C243.607 212.094 244.287 212.18 244.938 212.301C246.26 212.504 247.603 212.626 248.946 212.762C247.596 212.83 246.243 212.803 244.89 212.677C244.211 212.609 243.539 212.519 242.859 212.27C242.773 212.233 242.688 212.202 242.602 212.158C242.515 212.1 242.429 212.041 242.345 211.978C242.167 211.788 242.126 211.62 242.051 211.448C241.933 211.108 241.855 210.772 241.79 210.435C241.568 209.084 241.45 207.739 241.385 206.388C241.325 205.037 241.3 203.687 241.352 202.336Z" fill="#179ED5"/>
<path d="M227.22 59.9718C231.297 52.8543 240.403 50.3815 247.52 54.4584L246.912 55.5198L251.129 54.3747L249.984 50.1574L249.375 51.2188C240.473 46.1184 229.081 49.2131 223.981 58.1166C220.03 65.0137 220.894 73.6622 226.131 79.6365L228.939 77.1756C224.753 72.3981 224.062 65.4853 227.22 59.9718Z" fill="#263238"/>
<path d="M254.324 55.3303L251.476 57.7445C255.51 62.5044 256.135 69.3424 253.032 74.7595C248.956 81.877 239.85 84.3498 232.733 80.2729L233.341 79.2115L229.124 80.3566L230.269 84.5739L230.877 83.5131C239.78 88.6136 251.172 85.5188 256.272 76.6153C260.153 69.8391 259.37 61.285 254.324 55.3303Z" fill="#263238"/>
<g opacity="0.6">
<path d="M227.22 59.9718C231.297 52.8543 240.403 50.3815 247.52 54.4584L246.912 55.5198L251.129 54.3747L249.984 50.1574L249.375 51.2188C240.473 46.1184 229.081 49.2131 223.981 58.1166C220.03 65.0137 220.894 73.6622 226.131 79.6365L228.939 77.1756C224.753 72.3981 224.062 65.4853 227.22 59.9718Z" fill="white"/>
<path d="M254.324 55.3303L251.476 57.7445C255.51 62.5044 256.135 69.3424 253.032 74.7595C248.956 81.877 239.85 84.3498 232.733 80.2729L233.341 79.2115L229.124 80.3566L230.269 84.5739L230.877 83.5131C239.78 88.6136 251.172 85.5188 256.272 76.6153C260.153 69.8391 259.37 61.285 254.324 55.3303Z" fill="white"/>
</g>
<path d="M237.448 49.7243H233.345V37.128C233.345 32.3134 229.428 28.3964 224.614 28.3964C219.8 28.3964 215.883 32.314 215.883 37.128V49.7243H211.779V37.128C211.779 30.0502 217.537 24.2919 224.614 24.2919C231.691 24.2919 237.448 30.0496 237.448 37.128V49.7243Z" fill="#263238"/>
<g opacity="0.3">
<path d="M237.448 49.7243H233.345V37.128C233.345 32.3134 229.428 28.3964 224.614 28.3964C219.8 28.3964 215.883 32.314 215.883 37.128V49.7243H211.779V37.128C211.779 30.0502 217.537 24.2919 224.614 24.2919C231.691 24.2919 237.448 30.0496 237.448 37.128V49.7243Z" fill="white"/>
</g>
<path d="M242.151 46.5194V67.1239C242.151 68.4459 241.081 69.5161 239.759 69.5161H209.456C208.147 69.5161 207.077 68.4459 207.077 67.1239V46.5194C207.077 45.1973 208.147 44.1271 209.456 44.1271H239.759C240.168 44.1271 240.558 44.2279 240.892 44.4167C241.641 44.8133 242.151 45.6065 242.151 46.5194Z" fill="#179ED5"/>
<path opacity="0.2" d="M240.892 44.4167V64.6058C240.892 65.9278 239.822 66.9917 238.5 66.9917H208.197C207.794 66.9917 207.41 66.891 207.077 66.7084V46.5194C207.077 45.1973 208.147 44.1271 209.456 44.1271H239.759C240.169 44.1271 240.559 44.2279 240.892 44.4167Z" fill="white"/>
<path opacity="0.5" d="M229.127 54.2349C229.127 51.6947 227.107 49.6355 224.614 49.6355C222.121 49.6355 220.101 51.6947 220.101 54.2349C220.101 56.2097 221.329 57.8799 223.044 58.5314L222.808 64.0071H226.419L225.88 58.6278C227.752 58.0675 229.127 56.3237 229.127 54.2349Z" fill="black"/>
<path d="M80.1757 59.9762L82.2643 66.687L84.3529 59.9762H80.1757Z" fill="#179ED5"/>
<path d="M99.3507 62.0209H65.1771C62.1903 62.0209 59.7687 59.5991 59.7687 56.612V49.3321C59.7687 46.345 62.1903 43.9232 65.1771 43.9232H99.3507C102.338 43.9232 104.759 46.345 104.759 49.3321V56.612C104.759 59.5991 102.338 62.0209 99.3507 62.0209Z" fill="#179ED5"/>
<path d="M70.3452 52.9638L71.5292 53.6311L71.2208 54.1782L70.0166 53.4719L70.0267 54.8254H69.4299L69.44 53.4719L68.2358 54.1782L67.9274 53.6311L69.1215 52.9638L67.9274 52.3072L68.2358 51.7501L69.44 52.4564L69.4299 51.113H70.0267L70.0166 52.4564L71.2208 51.7501L71.5292 52.3072L70.3452 52.9638Z" fill="white"/>
<path d="M74.5236 52.9638L75.7077 53.6311L75.3992 54.1782L74.1957 53.4719L74.2057 54.8254H73.609L73.6191 53.4719L72.4149 54.1782L72.1064 53.6311L73.3006 52.9638L72.1064 52.3072L72.4149 51.7501L73.6191 52.4564L73.609 51.113H74.2057L74.1957 52.4564L75.3992 51.7501L75.7077 52.3072L74.5236 52.9638Z" fill="white"/>
<path d="M78.7027 52.9638L79.8868 53.6311L79.5783 54.1782L78.3741 53.4719L78.3842 54.8254H77.7875L77.7975 53.4719L76.5934 54.1782L76.2849 53.6311L77.479 52.9638L76.2849 52.3072L76.5934 51.7501L77.7975 52.4564L77.7875 51.113H78.3842L78.3741 52.4564L79.5783 51.7501L79.8868 52.3072L78.7027 52.9638Z" fill="white"/>
<path d="M82.8812 52.9638L84.0652 53.6311L83.7568 54.1782L82.5526 53.4719L82.5627 54.8254H81.9659L81.976 53.4719L80.7718 54.1782L80.4634 53.6311L81.6575 52.9638L80.4634 52.3072L80.7718 51.7501L81.976 52.4564L81.9659 51.113H82.5627L82.5526 52.4564L83.7568 51.7501L84.0652 52.3072L82.8812 52.9638Z" fill="white"/>
<path d="M87.0603 52.9638L88.2443 53.6311L87.9359 54.1782L86.7317 53.4719L86.7418 54.8254H86.145L86.1551 53.4719L84.9509 54.1782L84.6425 53.6311L85.8366 52.9638L84.6425 52.3072L84.9509 51.7501L86.1551 52.4564L86.145 51.113H86.7418L86.7317 52.4564L87.9359 51.7501L88.2443 52.3072L87.0603 52.9638Z" fill="white"/>
<path d="M91.2387 52.9638L92.4228 53.6311L92.1143 54.1782L90.9102 53.4719L90.9202 54.8254H90.3235L90.3336 53.4719L89.1294 54.1782L88.8209 53.6311L90.015 52.9638L88.8209 52.3072L89.1294 51.7501L90.3336 52.4564L90.3235 51.113H90.9202L90.9102 52.4564L92.1143 51.7501L92.4228 52.3072L91.2387 52.9638Z" fill="white"/>
<path d="M95.4178 52.9638L96.6019 53.6311L96.2934 54.1782L95.0892 53.4719L95.0993 54.8254H94.5026L94.5126 53.4719L93.3084 54.1782L93 53.6311L94.1941 52.9638L93 52.3072L93.3084 51.7501L94.5126 52.4564L94.5026 51.113H95.0993L95.0892 52.4564L96.2934 51.7501L96.6019 52.3072L95.4178 52.9638Z" fill="white"/>
<path d="M109.574 106.871L113.414 104.385L109.091 101.731C109.091 101.731 105.798 104.155 107.118 105.799L109.574 106.871Z" fill="#B55B52"/>
<path d="M115.383 100.304L110.89 99.2841L109.091 101.731L113.414 104.385L115.383 100.304Z" fill="#B55B52"/>
<path d="M93.7591 98.7994C94.9677 100.74 96.2656 102.759 97.5781 104.645C98.2302 105.596 98.912 106.516 99.5943 107.38C100.265 108.234 101.013 109.053 101.607 109.558C101.749 109.678 101.877 109.771 101.94 109.816C102 109.864 101.972 109.831 101.728 109.826C101.602 109.855 101.668 109.92 101.923 109.817C102.432 109.614 103.21 108.91 103.881 108.129C104.568 107.333 105.226 106.417 105.854 105.469C106.161 104.992 106.476 104.509 106.766 104.026L107.156 103.35C107.165 103.338 107.177 103.316 107.177 103.333C107.184 103.319 107.166 103.394 107.166 103.43C107.159 103.469 107.147 103.581 107.149 103.654L107.154 103.776C107.211 103.833 107.012 103.666 107.402 104.531C107.861 105.381 109.128 105.322 109.122 105.241C109.274 105.208 109.436 105.148 109.584 105.06C109.733 104.973 109.864 104.862 109.966 104.745L110.029 104.669C110.059 104.628 110.088 104.585 110.113 104.54L110.12 104.52C110.127 104.501 110.124 104.5 110.117 104.509C110.108 104.512 110.091 104.534 110.074 104.554C110.005 104.641 109.925 104.762 109.848 104.879L107.073 103.695C107.116 103.533 107.157 103.376 107.219 103.19C107.235 103.143 107.25 103.096 107.276 103.032C107.286 103.007 107.301 102.972 107.327 102.921L107.362 102.852C107.398 102.791 107.437 102.733 107.478 102.676C107.506 102.641 107.46 102.693 107.55 102.589C107.655 102.47 107.791 102.354 107.942 102.265C108.094 102.175 108.26 102.111 108.415 102.075C108.413 101.991 109.683 101.94 110.144 102.793C110.538 103.661 110.338 103.499 110.395 103.56L110.399 103.697C110.4 103.78 110.387 103.901 110.38 103.949L110.343 104.157L110.3 104.358C110.212 104.757 110.134 105.056 110.045 105.382C109.87 106.018 109.68 106.638 109.451 107.248C109.002 108.472 108.464 109.671 107.757 110.86C107.027 112.042 106.223 113.251 104.665 114.337C103.892 114.863 102.764 115.356 101.419 115.317C100.568 115.272 99.9569 115.034 99.4747 114.817C98.9944 114.592 98.6123 114.354 98.2649 114.117C96.9165 113.167 96.0107 112.187 95.1036 111.206C94.2142 110.224 93.4248 109.214 92.6556 108.203C91.1361 106.154 89.7877 104.104 88.5061 101.886L93.7591 98.7994Z" fill="#B55B52"/>
<path d="M91.8511 96.0383C94.3482 96.8724 99.4791 108.472 99.4791 108.472L90.8024 112.592C90.8024 112.592 89.0367 103.476 89.3609 100.555C89.6863 97.6335 91.8511 96.0383 91.8511 96.0383Z" fill="#179ED5"/>
<path opacity="0.7" d="M91.8511 96.0383C94.3482 96.8724 99.4791 108.472 99.4791 108.472L90.8024 112.592C90.8024 112.592 89.0367 103.476 89.3609 100.555C89.6863 97.6335 91.8511 96.0383 91.8511 96.0383Z" fill="white"/>
<path d="M102.05 230.551L97.631 231.802L96.5791 224.923L96.0126 221.245L100.432 219.994L101.185 224.923L102.05 230.551Z" fill="#B55B52"/>
<path d="M76.643 230.912L72.0875 231.516L72.044 224.923L72.0126 220.828L76.575 220.23L76.6059 224.923L76.643 230.912Z" fill="#B55B52"/>
<path opacity="0.2" d="M76.575 220.23L76.6059 224.923H72.044L72.0126 220.828L76.575 220.23Z" fill="black"/>
<path opacity="0.2" d="M101.185 224.923H96.5791L96.0126 221.245L100.432 219.994L101.185 224.923Z" fill="black"/>
<path d="M101.996 229.861L96.9777 229.726C96.7901 229.721 96.6227 229.846 96.5755 230.028L95.5211 234.069C95.4115 234.489 95.7187 234.896 96.1531 234.901C97.9647 234.919 100.585 234.884 102.86 234.945C105.52 235.017 107.212 234.886 110.332 234.97C112.219 235.021 112.811 233.136 112.027 232.943C108.461 232.064 106.129 232.237 103.091 230.247C102.76 230.031 102.393 229.872 101.996 229.861Z" fill="#263238"/>
<path d="M102.357 230.416C102.352 230.37 102.377 230.326 102.419 230.307C102.632 230.205 104.511 229.317 105.059 229.647C105.165 229.71 105.223 229.811 105.229 229.94C105.237 230.157 105.163 230.332 105.006 230.462C104.486 230.893 103.175 230.677 102.441 230.51C102.436 230.509 102.431 230.507 102.426 230.506C102.388 230.491 102.361 230.457 102.357 230.416ZM102.809 230.366C103.817 230.561 104.575 230.538 104.867 230.296C104.97 230.211 105.017 230.098 105.011 229.951C105.008 229.894 104.99 229.859 104.947 229.833C104.935 229.826 104.922 229.82 104.908 229.815C104.565 229.686 103.55 230.039 102.809 230.366Z" fill="#179ED5"/>
<path d="M102.399 230.49C102.368 230.467 102.352 230.429 102.357 230.391C102.364 230.339 102.532 229.11 103.134 228.648C103.318 228.507 103.523 228.45 103.745 228.478C104.042 228.517 104.124 228.67 104.139 228.793C104.205 229.312 103.07 230.271 102.507 230.504C102.481 230.515 102.452 230.515 102.426 230.506C102.416 230.502 102.407 230.497 102.399 230.49ZM103.715 228.694C103.551 228.672 103.405 228.714 103.266 228.819C102.872 229.122 102.681 229.855 102.609 230.213C103.188 229.89 103.962 229.133 103.923 228.821C103.92 228.801 103.914 228.752 103.825 228.719C103.797 228.708 103.761 228.699 103.715 228.694Z" fill="#179ED5"/>
<path d="M76.4611 229.861L71.4423 229.726C71.2541 229.721 71.0873 229.846 71.0401 230.028L69.9857 234.069C69.8761 234.489 70.1833 234.896 70.6177 234.901C72.4293 234.919 75.0485 234.884 77.3241 234.945C79.9849 235.017 81.6763 234.886 84.7966 234.97C86.6831 235.021 87.2755 233.136 86.4918 232.943C82.9252 232.064 80.5936 232.237 77.5551 230.247C77.2253 230.031 76.8577 229.872 76.4611 229.861Z" fill="#263238"/>
<path d="M76.8218 230.416C76.8168 230.37 76.8419 230.326 76.8835 230.307C77.0963 230.205 78.9752 229.317 79.5241 229.647C79.6299 229.71 79.6878 229.811 79.6935 229.94C79.7023 230.157 79.6274 230.332 79.4706 230.462C78.9507 230.893 77.6401 230.677 76.9049 230.51C76.8999 230.509 76.8955 230.507 76.891 230.506C76.8533 230.491 76.8262 230.457 76.8218 230.416ZM77.2738 230.366C78.2822 230.561 79.0401 230.538 79.3322 230.296C79.4348 230.211 79.482 230.098 79.4757 229.951C79.4732 229.894 79.4543 229.859 79.4115 229.833C79.3995 229.826 79.3869 229.82 79.3724 229.815C79.03 229.686 78.0153 230.039 77.2738 230.366Z" fill="#179ED5"/>
<path d="M76.8634 230.49C76.8326 230.467 76.8168 230.429 76.8218 230.391C76.8288 230.339 76.9968 229.11 77.5986 228.648C77.7824 228.507 77.9876 228.45 78.2092 228.478C78.507 228.517 78.5882 228.67 78.6039 228.793C78.6694 229.312 77.535 230.271 76.9717 230.504C76.9452 230.515 76.9169 230.515 76.8911 230.506C76.881 230.502 76.8722 230.497 76.8634 230.49ZM78.1796 228.694C78.016 228.672 77.8693 228.714 77.7314 228.819C77.3361 229.122 77.146 229.855 77.0743 230.213C77.6528 229.89 78.427 229.133 78.388 228.821C78.3855 228.801 78.3792 228.752 78.2904 228.719C78.2621 228.708 78.2262 228.699 78.1796 228.694Z" fill="#179ED5"/>
<path d="M67.2443 130.729C64.8309 141.196 68.9729 223.517 68.9729 223.517H76.9785L80.401 154.911L93.0081 223.517L101.564 222.894C95.9711 169.75 91.0265 138.021 91.0265 138.021L91.0379 134.012L67.2443 130.729Z" fill="#263238"/>
<path d="M101.565 222.894L93.0063 223.517L83.0851 169.512L80.4023 154.915L76.9792 223.517H68.9748C68.9748 223.517 64.8297 141.196 67.2443 130.732L91.0392 134.013L91.0266 138.022C91.0266 138.022 95.9692 169.748 101.565 222.894Z" fill="#263238"/>
<path d="M66.7036 95.3666C67.6006 100.423 67.9903 105.526 68.1086 110.307C68.1929 113.806 68.1243 117.13 67.9896 120.139C67.6755 127.193 66.9976 132.532 67.0297 134.363C70.5491 134.427 83.8128 134.666 91.0448 134.793C96.7755 109.671 91.8518 96.0376 91.8518 96.0376C91.8518 96.0376 89.2628 95.2803 86.2111 94.8321C85.8095 94.7704 85.3997 94.7206 84.983 94.6753C82.2869 94.3813 77.8434 94.4002 74.7729 94.4921C74.127 94.5123 73.473 94.5488 72.8353 94.5947C69.5904 94.8352 66.7036 95.3666 66.7036 95.3666Z" fill="#179ED5"/>
<path d="M85.7308 95.4754C85.7308 95.4754 84.2993 97.5491 83.1512 97.6939C81.5284 97.9111 75.5874 94.2812 75.5874 94.2812C76.9615 93.2652 77.6326 91.0605 77.9284 88.7237C78.184 86.691 78.1513 84.5632 78.0499 83.0101L83.5962 89.0416C82.8629 90.9239 82.4304 92.9472 83.865 94.3631C83.8732 94.37 83.8807 94.3687 83.8807 94.3687C84.3082 94.8025 84.9125 95.1752 85.7308 95.4754Z" fill="#B55B52"/>
<path opacity="0.2" d="M83.8644 94.3643C81.5259 93.0877 79.1579 90.9246 77.9279 88.7244C78.1834 86.6916 78.1507 84.5638 78.0493 83.0107L83.5957 89.0423C82.8623 90.9258 82.4299 92.9485 83.8644 94.3643Z" fill="black"/>
<path d="M90.0364 77.5911C90.5047 79.3406 90.054 82.8735 87.6929 81.6164C85.3311 80.3598 89.2307 74.5845 90.0364 77.5911Z" fill="#263238"/>
<path d="M77.5004 79.3853C77.0434 83.8096 76.5506 86.3781 78.3974 88.9737C81.1759 92.8774 86.9344 91.7153 88.7089 87.5037C90.3059 83.7133 90.7849 77.1146 86.7714 74.7003C82.817 72.3219 77.9574 74.9609 77.5004 79.3853Z" fill="#B55B52"/>
<path d="M80.7145 77.1083L80.9285 72.152C80.9285 72.152 75.6712 71.5319 75.7889 74.242C72.8052 75.5647 73.9892 80.1697 77.817 82.5682C80.0422 80.9396 79.9749 76.7834 79.9749 76.7834C80.2028 76.8967 80.4539 77.0038 80.7145 77.1083Z" fill="#263238"/>
<path d="M75.2047 82.7564C75.3678 83.9418 76.0665 84.9371 76.864 85.5131C78.0632 86.3787 79.1862 85.4269 79.2906 84.0268C79.3851 82.7665 78.8746 80.7967 77.4601 80.4857C76.0665 80.1785 75.0178 81.4004 75.2047 82.7564Z" fill="#B55B52"/>
<path d="M83.9645 81.6491C83.9053 82.006 84.047 82.3246 84.2811 82.3611C84.5153 82.3976 84.7526 82.1376 84.8118 81.7807C84.8709 81.4237 84.7293 81.1052 84.4951 81.0687C84.261 81.0322 84.0237 81.2921 83.9645 81.6491Z" fill="#263238"/>
<path d="M88.01 82.2786C87.9509 82.6356 88.0925 82.9541 88.3266 82.9906C88.5608 83.0271 88.7981 82.7671 88.8573 82.4102C88.9165 82.0532 88.7748 81.7347 88.5407 81.6982C88.3065 81.6623 88.0692 81.9223 88.01 82.2786Z" fill="#263238"/>
<path d="M86.6945 82.2559C86.6945 82.2559 87.1999 84.368 87.9446 85.4703C87.2276 85.9305 86.1959 85.4923 86.1959 85.4923L86.6945 82.2559Z" fill="#A02724"/>
<path d="M84.0512 86.5594C84.1948 86.6022 84.3484 86.6375 84.512 86.6627C84.5699 86.6715 84.6247 86.6318 84.6348 86.5745C84.6448 86.5166 84.6039 86.4625 84.5473 86.4536C82.9755 86.2069 82.4241 85.0007 82.419 84.9887C82.3957 84.9352 82.3322 84.9119 82.2786 84.9352C82.2245 84.9591 82.2 85.0221 82.2239 85.0756C82.2453 85.1235 82.7205 86.1641 84.0512 86.5594Z" fill="#263238"/>
<path d="M82.9328 80.152C83.0039 80.1734 83.0845 80.1564 83.1424 80.1011C83.8317 79.4438 84.5971 79.6094 84.6047 79.6107C84.7192 79.6365 84.8344 79.5653 84.8615 79.4514C84.8886 79.3374 84.8174 79.2235 84.7035 79.1977C84.6632 79.1882 83.7039 78.9805 82.8491 79.7964C82.7635 79.8776 82.7603 80.0117 82.8409 80.096C82.8673 80.1231 82.8988 80.142 82.9328 80.152Z" fill="#263238"/>
<path d="M89.9829 81.1631C90.0219 81.1744 90.0641 81.175 90.1056 81.1624C90.2183 81.1278 90.2825 81.0095 90.2491 80.8974C89.9136 79.7737 88.9751 79.4998 88.9342 79.4822C88.8215 79.4501 88.7025 79.5149 88.6692 79.6276C88.6358 79.7397 88.6994 79.8568 88.8108 79.8895C88.8505 79.8996 89.5706 80.1193 89.84 81.0214C89.862 81.0919 89.9174 81.1435 89.9829 81.1631Z" fill="#263238"/>
<path d="M75.7888 74.242C75.7888 74.242 73.0682 71.5432 82.2995 71.79C91.5307 72.0368 93.0635 77.2077 88.8341 78.4095L88.6396 77.5678C88.6396 77.5678 86.466 78.8426 83.9053 77.8071L84.5744 77.3916C84.5744 77.3916 78.2778 78.0375 75.7888 74.242Z" fill="#263238"/>
<path d="M83.1543 97.6964C83.1543 97.6964 81.9784 99.0556 80.6062 100.398C78.6473 99.4063 74.0622 96.7559 74.2894 94.3083C74.5601 93.5957 76.4233 93.1456 76.4233 93.1456C76.4233 93.1456 78.4534 95.782 83.1543 97.6964Z" fill="#179ED5"/>
<path d="M83.1544 97.6964C83.1544 97.6964 84.6853 98.8856 85.6786 100.396C87.1214 99.4635 86.3931 94.9082 85.8643 94.4046C84.7231 93.7178 83.3829 93.7543 83.3829 93.7543C83.3829 93.7543 84.4071 95.8267 83.1544 97.6964Z" fill="#179ED5"/>
<g opacity="0.5">
<path d="M83.1543 97.6964C83.1543 97.6964 81.9784 99.0556 80.6062 100.398C78.6473 99.4063 74.0622 96.7559 74.2894 94.3083C74.5601 93.5957 76.4233 93.1456 76.4233 93.1456C76.4233 93.1456 78.4534 95.782 83.1543 97.6964Z" fill="white"/>
<path d="M83.1544 97.6964C83.1544 97.6964 84.6853 98.8856 85.6786 100.396C87.1214 99.4635 86.3931 94.9082 85.8643 94.4046C84.7231 93.7178 83.3829 93.7543 83.3829 93.7543C83.3829 93.7543 84.4071 95.8267 83.1544 97.6964Z" fill="white"/>
</g>
<path opacity="0.2" d="M83.0858 169.511L80.403 154.915L80.9197 147.19C80.9197 147.19 84.5978 160.585 83.0858 169.511Z" fill="black"/>
<path d="M69.219 102.035L65.0921 108.766C64.4073 109.885 63.74 111.012 63.0904 112.127C62.4452 113.239 61.8151 114.375 61.3058 115.424C61.0515 115.948 60.8683 116.392 60.7028 116.898C60.5385 117.451 60.3679 118.045 60.215 118.66C59.9141 119.892 59.6308 121.177 59.3563 122.462C58.8043 125.036 58.2567 127.658 57.6536 130.256L54.6479 129.99C54.539 127.262 54.5642 124.564 54.7253 121.838C54.8128 120.474 54.9116 119.11 55.0986 117.712C55.1924 117.012 55.2931 116.297 55.4505 115.551C55.6185 114.762 55.881 113.943 56.158 113.239C56.6974 111.827 57.3055 110.589 57.9262 109.346C58.5399 108.103 59.2002 106.908 59.8599 105.715C61.1976 103.335 62.5881 101.036 64.0906 98.749L69.219 102.035Z" fill="#B55B52"/>
<path d="M66.7036 95.3666C63.3259 96.2385 57.2968 108.39 57.2968 108.39L64.4765 113.043L70.9564 106.755C70.9564 106.755 71.6072 103.743 70.5434 99.9263C69.479 96.1088 66.7036 95.3666 66.7036 95.3666Z" fill="#179ED5"/>
<path opacity="0.7" d="M66.7036 95.3666C63.3259 96.2385 57.2968 108.39 57.2968 108.39L64.4765 113.043L70.9564 106.755C70.9564 106.755 71.6072 103.743 70.5434 99.9263C69.479 96.1088 66.7036 95.3666 66.7036 95.3666Z" fill="white"/>
<path d="M124.718 85.1316L74.8207 138.051L69.2738 132.82L119.171 79.9002C120.3 78.7022 122.187 78.6468 123.385 79.7762L124.595 80.9169C125.792 82.0469 125.847 83.9336 124.718 85.1316Z" fill="#263238"/>
<path opacity="0.6" d="M124.718 85.1316L74.8207 138.051L69.2738 132.82L119.171 79.9002C120.3 78.7022 122.187 78.6468 123.385 79.7762L124.595 80.9169C125.792 82.0469 125.847 83.9336 124.718 85.1316Z" fill="white"/>
<path opacity="0.2" d="M123.757 80.1313L124.591 80.9188C125.789 82.0488 125.849 83.9343 124.719 85.1323L74.8214 138.053L73.9867 137.266L123.885 84.3447C125.015 83.1467 124.955 81.2613 123.757 80.1313Z" fill="black"/>
<path d="M107.835 100.624L117.082 109.345L118.287 108.068L117.089 106.939L118.992 104.921L118.29 104.259L121.146 101.231L121.848 101.892L123.632 100.001L124.829 101.129L126.075 99.8079L125.373 99.1463L127.164 97.247L125.76 95.9231L126.928 94.6848L129.034 96.6703L131.175 94.3996L121.927 85.6787L107.835 100.624Z" fill="#263238"/>
<path opacity="0.6" d="M107.835 100.624L117.082 109.345L118.287 108.068L117.089 106.939L118.992 104.921L118.29 104.259L121.146 101.231L121.848 101.892L123.632 100.001L124.829 101.129L126.075 99.8079L125.373 99.1463L127.164 97.247L125.76 95.9231L126.928 94.6848L129.034 96.6703L131.175 94.3996L121.927 85.6787L107.835 100.624Z" fill="white"/>
<g opacity="0.2">
<path opacity="0.6" d="M117.451 107.273L116.251 108.546L117.086 109.334L118.286 108.06L117.451 107.273Z" fill="black"/>
<path opacity="0.6" d="M121.851 101.891L121.149 101.229L118.292 104.26L118.993 104.922L117.088 106.942L116.253 106.155L118.158 104.134L117.457 103.473L120.315 100.442L121.016 101.103L122.799 99.2124L123.634 99.9999L121.851 101.891Z" fill="black"/>
<path opacity="0.6" d="M124.535 98.3581L126.326 96.4582L127.165 97.2495L125.375 99.1488L126.076 99.8104L124.832 101.129L123.997 100.342L125.24 99.0229L124.535 98.3581Z" fill="black"/>
<path opacity="0.6" d="M126.092 93.9064L124.923 95.1461L125.758 95.9335L126.927 94.6938L126.092 93.9064Z" fill="black"/>
<path opacity="0.6" d="M130.341 93.604L128.2 95.875L129.035 96.6623L131.176 94.3913L130.341 93.604Z" fill="black"/>
</g>
<path d="M124.366 86.4826L109.069 102.706C108.816 102.974 108.394 102.986 108.126 102.733L102.574 97.4975C102.306 97.2445 102.294 96.8227 102.547 96.5545L117.843 80.3315C118.096 80.0633 118.518 80.0513 118.786 80.3038L124.338 85.5396C124.606 85.792 124.618 86.2144 124.366 86.4826Z" fill="#263238"/>
<path d="M75.1102 155.16C70.2267 160.339 62.07 160.578 56.8913 155.695L52.7128 151.754C47.5342 146.87 47.295 138.713 52.1784 133.534C57.0619 128.355 65.2186 128.115 70.3973 132.999L74.5758 136.939C79.7545 141.823 79.9937 149.981 75.1102 155.16Z" fill="#263238"/>
<path d="M70.3049 150.628C67.8745 153.206 63.8143 153.325 61.2366 150.894L57.2502 147.135C54.6725 144.704 54.5535 140.644 56.9839 138.066C59.4143 135.488 63.4744 135.369 66.0521 137.799L70.0386 141.558C72.6163 143.99 72.7353 148.05 70.3049 150.628Z" fill="white"/>
<path opacity="0.5" d="M124.366 86.4826L109.069 102.706C108.816 102.974 108.394 102.986 108.126 102.733L102.574 97.4975C102.306 97.2445 102.294 96.8227 102.547 96.5545L117.843 80.3315C118.096 80.0633 118.518 80.0513 118.786 80.3038L124.338 85.5396C124.606 85.792 124.618 86.2144 124.366 86.4826Z" fill="white"/>
<g opacity="0.5">
<path d="M75.1102 155.16C70.2267 160.339 62.07 160.578 56.8913 155.695L52.7128 151.754C47.5342 146.87 47.295 138.713 52.1784 133.534C57.0619 128.355 65.2186 128.115 70.3973 132.999L74.5758 136.939C79.7545 141.823 79.9937 149.981 75.1102 155.16Z" fill="white"/>
<path d="M70.3049 150.628C67.8745 153.206 63.8143 153.325 61.2366 150.894L57.2502 147.135C54.6725 144.704 54.5535 140.644 56.9839 138.066C59.4143 135.488 63.4744 135.369 66.0521 137.799L70.0386 141.558C72.6163 143.99 72.7353 148.05 70.3049 150.628Z" fill="white"/>
</g>
<path opacity="0.2" d="M122.668 83.9626L124.337 85.5371C124.609 85.7927 124.621 86.2144 124.365 86.4858L109.069 102.708C108.817 102.975 108.396 102.988 108.124 102.732L106.455 101.158C106.722 101.409 107.144 101.397 107.396 101.13L122.692 84.9075C122.947 84.6362 122.935 84.2144 122.668 83.9626Z" fill="black"/>
<g opacity="0.2">
<path d="M64.8032 136.618L66.0552 137.799C64.7654 136.583 63.1086 136.006 61.4626 136.054C59.824 136.102 58.2006 136.78 56.9838 138.07C54.5553 140.645 54.6705 144.705 57.2501 147.137L55.9981 145.956C53.4185 143.524 53.2989 139.46 55.728 136.884C56.9442 135.594 58.5682 134.917 60.2105 134.873C61.8522 134.821 63.5128 135.402 64.8032 136.618Z" fill="black"/>
<path d="M73.325 135.759L74.577 136.94C79.7532 141.821 79.9924 149.98 75.1077 155.161C70.2267 160.338 62.0681 160.577 56.8919 155.696L55.6399 154.515C60.8161 159.396 68.9747 159.156 73.8557 153.98C78.741 148.799 78.5012 140.64 73.325 135.759Z" fill="black"/>
</g>
<g opacity="0.2">
<path d="M64.8032 136.618L66.0552 137.799C64.7654 136.583 63.1086 136.006 61.4626 136.054C59.824 136.102 58.2006 136.78 56.9838 138.07C54.5553 140.645 54.6705 144.705 57.2501 147.137L55.9981 145.956C53.4185 143.524 53.2989 139.46 55.728 136.884C56.9442 135.594 58.5682 134.917 60.2105 134.873C61.8522 134.821 63.5128 135.402 64.8032 136.618Z" fill="black"/>
<path d="M64.8032 136.618L66.0552 137.799C64.7654 136.583 63.1086 136.006 61.4626 136.054C59.824 136.102 58.2006 136.78 56.9838 138.07C54.5553 140.645 54.6705 144.705 57.2501 147.137L55.9981 145.956C53.4185 143.524 53.2989 139.46 55.728 136.884C56.9442 135.594 58.5682 134.917 60.2105 134.873C61.8522 134.821 63.5128 135.402 64.8032 136.618Z" fill="black"/>
</g>
<path d="M55.2585 137.179L59.8808 136.022L59.3684 132.641L53.7245 133.779L55.2585 137.179Z" fill="#B55B52"/>
<path d="M54.7996 129.357L53.7245 133.778L59.369 132.641C59.369 132.641 59.4452 128.681 57.3377 128.423L54.7996 129.357Z" fill="#B55B52"/>
</g>
<defs>
<clipPath id="clip0_190_3674">
<rect width="314.738" height="255" fill="white"/>
</clipPath>
</defs>
</svg>
