<svg width="24" height="24" viewBox="0 0 24 24" fill="none" xmlns="http://www.w3.org/2000/svg">
<path d="M16.02 17.6104C14.2116 19.0142 11.9361 19.676 9.65694 19.4611C7.37774 19.2463 5.26606 18.171 3.75176 16.454C2.23746 14.7371 1.43436 12.5077 1.50593 10.2195C1.5775 7.93128 2.51837 5.75637 4.13701 4.13744C5.75594 2.5188 7.93085 1.57793 10.219 1.50636C12.5072 1.43478 14.7367 2.23789 16.4536 3.75219C18.1705 5.26649 19.2459 7.37817 19.4607 9.65737C19.6755 11.9366 19.0137 14.212 17.61 16.0204L22.17 20.5804C22.3181 20.7179 22.4264 20.8929 22.4834 21.0867C22.5404 21.2806 22.5441 21.4863 22.494 21.682C22.444 21.8778 22.342 22.0565 22.1989 22.1992C22.0559 22.3419 21.8769 22.4434 21.681 22.4929C21.4854 22.5429 21.28 22.5393 21.0863 22.4826C20.8926 22.4258 20.7177 22.318 20.58 22.1704L16.02 17.6104ZM17.25 10.5004C17.2634 9.60585 17.0987 8.71753 16.7656 7.88717C16.4324 7.0568 15.9375 6.30097 15.3096 5.66362C14.6817 5.02628 13.9333 4.52016 13.108 4.1747C12.2827 3.82924 11.397 3.65133 10.5023 3.65133C9.60757 3.65133 8.72181 3.82924 7.8965 4.1747C7.0712 4.52016 6.32282 5.02628 5.69491 5.66362C5.067 6.30097 4.57209 7.0568 4.23897 7.88717C3.90585 8.71753 3.74117 9.60585 3.75451 10.5004C3.78094 12.2726 4.50348 13.9633 5.76606 15.2072C7.02863 16.4511 8.72987 17.1483 10.5023 17.1483C12.2747 17.1483 13.9759 16.4511 15.2385 15.2072C16.501 13.9633 17.2236 12.2726 17.25 10.5004Z" fill="#179ED5"/>
</svg>
